<svg width="24" height="24" viewBox="0 0 24 24" fill="none" xmlns="http://www.w3.org/2000/svg">
<path d="M15.0002 22.75C14.7302 22.75 14.4802 22.6 14.3502 22.37C14.2202 22.14 14.2202 21.85 14.3602 21.62L15.4102 19.87C15.6202 19.51 16.0802 19.4 16.4402 19.61C16.8002 19.82 16.9102 20.28 16.7002 20.64L16.4302 21.09C19.1902 20.44 21.2602 17.96 21.2602 15C21.2602 14.59 21.6002 14.25 22.0102 14.25C22.4202 14.25 22.7602 14.59 22.7602 15C22.7502 19.27 19.2702 22.75 15.0002 22.75Z" fill="black"/>
<path d="M2 9.75C1.59 9.75 1.25 9.41 1.25 9C1.25 4.73 4.73 1.25 9 1.25C9.27 1.25 9.51999 1.4 9.64999 1.63C9.77999 1.86 9.78 2.15 9.64 2.38L8.59 4.13C8.38 4.49001 7.92 4.60001 7.56 4.39001C7.2 4.18001 7.09 3.71999 7.3 3.35999L7.57001 2.90997C4.81001 3.55997 2.74001 6.04 2.74001 9C2.75001 9.41 2.41 9.75 2 9.75Z" fill="black"/>
<path fill-rule="evenodd" clip-rule="evenodd" d="M17.6799 11.7499C17.2199 11.7499 16.7499 11.6499 16.3799 11.4399L13.9799 10.1099C13.1999 9.67993 12.6099 8.66997 12.6099 7.77997V5.23993C12.6099 4.33993 13.1999 3.33997 13.9899 2.89997L16.3899 1.56995C17.1299 1.15995 18.2399 1.15995 18.9899 1.56995L21.3899 2.89997C22.1699 3.32997 22.7599 4.33992 22.7599 5.22992V7.76996C22.7599 8.66996 22.1699 9.66992 21.3899 10.0999L18.9899 11.4299C18.5999 11.6499 18.1399 11.7499 17.6799 11.7499ZM14.7099 8.77997C14.4099 8.61997 14.1099 8.10995 14.1099 7.75995V5.55174L16.9302 7.18571V10.0196L14.7099 8.77997ZM21.2499 7.76996C21.2499 8.10996 20.9499 8.61992 20.6499 8.78992L18.4302 10.02V7.17037L21.2499 5.54279V7.76996ZM17.1099 2.86994C17.3899 2.70994 17.9599 2.70995 18.2499 2.87995L20.6038 4.18446L17.6799 5.87988L14.7418 4.18228L17.1099 2.86994Z" fill="black"/>
<path fill-rule="evenodd" clip-rule="evenodd" d="M6.32001 22.7499C5.86001 22.7499 5.39 22.6499 5.02 22.4399L2.62 21.1099C1.84 20.6799 1.25 19.67 1.25 18.78V16.2399C1.25 15.3399 1.84 14.3399 2.62 13.9099L5.02 12.58C5.76 12.17 6.88 12.17 7.62 12.58L10.02 13.9099C10.8 14.3399 11.39 15.3499 11.39 16.2399V18.78C11.39 19.68 10.8 20.6799 10.01 21.1199L7.61 22.45C7.25 22.65 6.79001 22.7499 6.32001 22.7499ZM3.35001 19.78C3.05001 19.62 2.75 19.11 2.75 18.76V16.5517L5.56982 18.1854V21.0101L3.35001 19.78ZM9.89 18.76C9.89 19.1 9.58999 19.61 9.28999 19.78L7.06982 21.0103V18.1707L9.89 16.5428V18.76ZM5.75 13.8699C6.04 13.7099 6.61 13.7099 6.89 13.8599L9.25294 15.1793L6.32002 16.8799L3.3819 15.1823L5.75 13.8699Z" fill="black"/>
</svg>
