<svg width="24" height="24" viewBox="0 0 24 24" fill="none" xmlns="http://www.w3.org/2000/svg">
<path fill-rule="evenodd" clip-rule="evenodd" d="M9.45036 1.74717C8.78747 1.08428 7.70259 1.08428 7.0397 1.74717L5.6197 3.16717C5.3182 3.46867 5.15345 3.8543 5.12632 4.24756H4.5C3.58462 4.24756 2.8461 4.52249 2.35528 5.09875C1.88406 5.652 1.75 6.35827 1.75 6.99756V7.99756C1.75 8.63685 1.88406 9.34312 2.35528 9.89637C2.58962 10.1715 2.88042 10.3779 3.21997 10.5186V17.9976C3.21997 19.5391 3.46722 20.8055 4.31464 21.6529C5.16206 22.5003 6.42842 22.7476 7.96997 22.7476H15.97C17.5115 22.7476 18.7779 22.5003 19.6253 21.6529C20.4727 20.8055 20.72 19.5391 20.72 17.9976V10.5326C21.071 10.3921 21.3727 10.1824 21.6164 9.90311C22.0927 9.35717 22.25 8.65517 22.25 7.99756V6.99756C22.25 6.33994 22.0927 5.63795 21.6164 5.09201C21.1239 4.52747 20.3942 4.24756 19.5 4.24756H18.8637C18.8366 3.8543 18.6718 3.46867 18.3703 3.16717L16.9503 1.74717C16.2874 1.08428 15.2025 1.08428 14.5396 1.74717L12.0393 4.24756H11.9507L9.45036 1.74717ZM8.10036 2.80783C8.17747 2.73072 8.31259 2.73072 8.3897 2.80783L9.82937 4.2475H6.66297C6.66824 4.24072 6.67404 4.23415 6.68036 4.22783L8.10036 2.80783ZM3.49722 6.07137C3.35094 6.24312 3.25 6.53685 3.25 6.99756V7.99756C3.25 8.45827 3.35094 8.752 3.49722 8.92375C3.6239 9.07249 3.88538 9.24756 4.5 9.24756H19.5C20.0758 9.24756 20.3461 9.07747 20.4861 8.91701C20.6423 8.73795 20.75 8.43995 20.75 7.99756V6.99756C20.75 6.55517 20.6423 6.25717 20.4861 6.07811C20.3461 5.91765 20.0758 5.74756 19.5 5.74756H4.5C3.88538 5.74756 3.6239 5.92263 3.49722 6.07137ZM14.22 10.7476H9.69V15.1376C9.69 15.3316 9.90192 15.4611 10.0821 15.3481L11.0225 14.7279C11.6067 14.3499 12.3604 14.3431 12.946 14.7335L12.9493 14.7357L13.8371 15.3343C14.0019 15.4429 14.22 15.3241 14.22 15.1276V10.7476ZM8.19 10.7476V15.1376C8.19 16.5425 9.73591 17.3527 10.8951 16.6087L10.9029 16.6036L11.8394 15.986C11.9343 15.9256 12.0391 15.9323 12.1129 15.9809L13.0008 16.5794L13.004 16.5816C14.1591 17.3517 15.72 16.5305 15.72 15.1276V10.7476H19.22V17.9976C19.22 19.456 18.9672 20.1896 18.5646 20.5922C18.1621 20.9948 17.4284 21.2476 15.97 21.2476H7.96997C6.51152 21.2476 5.77788 20.9948 5.3753 20.5922C4.97272 20.1896 4.71997 19.456 4.71997 17.9976V10.7476H8.19ZM15.8896 2.80783C15.8125 2.73072 15.6774 2.73072 15.6003 2.80783L14.1606 4.2475H17.327C17.3218 4.24072 17.316 4.23415 17.3096 4.22783L15.8896 2.80783Z" fill="#7A608B"/>
</svg>
