<svg width="24" height="24" viewBox="0 0 24 24" fill="none" xmlns="http://www.w3.org/2000/svg">
<g clip-path="url(#clip0_348_11805)">
<path d="M23.9669 10.4162C23.6652 8.19347 22.7486 6.09921 21.3204 4.36955C19.8921 2.63988 18.0091 1.34359 15.8836 0.626829C13.7581 -0.0899361 11.4746 -0.198674 9.29058 0.312875C7.10658 0.824425 5.1089 1.93592 3.52277 3.52204C1.93665 5.10816 0.825157 7.10584 0.313608 9.28985C-0.197941 11.4739 -0.0892037 13.7573 0.627561 15.8829C1.34433 18.0084 2.64062 19.8914 4.37028 21.3196C6.09994 22.7479 8.1942 23.6645 10.4169 23.9662C10.5791 23.9873 10.7424 23.998 10.9059 23.9982C11.9606 23.9895 12.969 23.5638 13.7109 22.8142L22.8109 13.7142C23.243 13.2895 23.5718 12.7713 23.7722 12.1995C23.9726 11.6278 24.0392 11.0177 23.9669 10.4162ZM2.06694 10.8902C2.33589 8.51693 3.44261 6.31743 5.18814 4.68712C6.93366 3.05681 9.20349 2.10262 11.5896 1.99609C13.9757 1.88956 16.3215 2.63767 18.2054 4.10595C20.0892 5.57422 21.3876 7.66634 21.8669 10.0062C18.7346 10.044 15.7411 11.3046 13.5253 13.5189C11.3095 15.7332 10.0469 18.7259 10.0069 21.8582C7.54713 21.3622 5.36415 19.9584 3.89221 17.9262C2.42027 15.8939 1.76721 13.382 2.06294 10.8902H2.06694ZM12.2999 21.3992C12.2138 21.4819 12.1208 21.5572 12.0219 21.6242C12.119 19.1075 13.1622 16.72 14.9431 14.939C16.7239 13.158 19.1112 12.1146 21.6279 12.0172C21.5616 12.1166 21.4866 12.2099 21.4039 12.2962L12.2999 21.3992Z" fill="black"/>
</g>
<defs>
<clipPath id="clip0_348_11805">
<rect width="24" height="24" fill="white"/>
</clipPath>
</defs>
</svg>
