<svg width="24" height="24" viewBox="0 0 24 24" fill="none" xmlns="http://www.w3.org/2000/svg">
<path fill-rule="evenodd" clip-rule="evenodd" d="M10.1003 5.39985C10.3932 5.69274 10.3932 6.16761 10.1003 6.46051L5.31066 11.2502H20.5C20.9142 11.2502 21.25 11.586 21.25 12.0002C21.25 12.4144 20.9142 12.7502 20.5 12.7502H5.31066L10.1003 17.5398C10.3932 17.8327 10.3932 18.3076 10.1003 18.6005C9.80744 18.8934 9.33256 18.8934 9.03967 18.6005L2.96967 12.5305C2.82902 12.3899 2.75 12.1991 2.75 12.0002C2.75 11.8013 2.82902 11.6105 2.96967 11.4698L9.03967 5.39985C9.33256 5.10695 9.80744 5.10695 10.1003 5.39985Z" fill="black"/>
</svg>
