<svg width="24" height="24" viewBox="0 0 24 24" fill="none" xmlns="http://www.w3.org/2000/svg">
<path d="M9 21.75H3C2.59 21.75 2.25 21.41 2.25 21V15C2.25 14.59 2.59 14.25 3 14.25C3.41 14.25 3.75 14.59 3.75 15V19.19L9.97 12.97C10.26 12.68 10.74 12.68 11.03 12.97C11.32 13.26 11.32 13.74 11.03 14.03L4.81 20.25H9C9.41 20.25 9.75 20.59 9.75 21C9.75 21.41 9.41 21.75 9 21.75Z" fill="black"/>
<path d="M21 9.75C20.59 9.75 20.25 9.41 20.25 9V4.81L14.03 11.03C13.88 11.18 13.69 11.25 13.5 11.25C13.31 11.25 13.12 11.18 12.97 11.03C12.68 10.74 12.68 10.26 12.97 9.97L19.19 3.75H15C14.59 3.75 14.25 3.41 14.25 3C14.25 2.59 14.59 2.25 15 2.25H21C21.41 2.25 21.75 2.59 21.75 3V9C21.75 9.41 21.41 9.75 21 9.75Z" fill="black"/>
</svg>
