<svg width="24" height="24" viewBox="0 0 24 24" fill="none" xmlns="http://www.w3.org/2000/svg">
<path fill-rule="evenodd" clip-rule="evenodd" d="M11.9962 1.10986C12.8514 1.10986 13.7489 1.28985 14.4715 1.692L19.8796 4.69993C20.6392 5.12069 21.2859 5.828 21.74 6.59826C22.1943 7.36866 22.5 8.27596 22.5 9.14317V14.8668C22.5 15.734 22.1943 16.6413 21.74 17.4117C21.2859 18.182 20.6398 18.8889 19.8802 19.3097L14.4713 22.3181L14.4695 22.3191C13.7511 22.716 12.8539 22.8925 12 22.8925C11.1461 22.8925 10.2488 22.716 9.53047 22.3191L9.52866 22.3181L4.12036 19.31C3.3608 18.8893 2.71415 18.182 2.25996 17.4117C1.8057 16.6413 1.5 15.734 1.5 14.8668V9.14317C1.5 8.27596 1.8057 7.36866 2.25996 6.59826C2.71412 5.82804 3.36015 5.12109 4.11965 4.70032L9.52603 1.69338L9.5274 1.69261C10.2462 1.2895 11.1418 1.10986 11.9962 1.10986ZM11.9962 2.6294C11.329 2.6294 10.7057 2.7737 10.2699 3.01839L10.2673 3.01987L8.74353 3.86734L17.1226 8.70587L20.1518 6.9512C19.8479 6.54682 19.4951 6.22396 19.1436 6.02928L19.1423 6.02858L13.7327 3.01987C13.2904 2.77368 12.663 2.6294 11.9962 2.6294ZM20.8454 8.30548L17.818 10.0591V13.2537C17.818 13.6733 17.4778 14.0134 17.0582 14.0134C16.6386 14.0134 16.2984 13.6733 16.2984 13.2537V10.9393L12.7541 12.9924V21.3108C13.1292 21.2472 13.4669 21.1368 13.7335 20.9897L19.1423 17.9814L19.1436 17.9807C19.6095 17.7227 20.0775 17.2395 20.4311 16.6399C20.7847 16.0402 20.9805 15.3976 20.9805 14.8668V9.14317C20.9805 8.88453 20.934 8.59933 20.8454 8.30548ZM11.2345 21.3089V12.9927L3.15171 8.3151C3.06501 8.60555 3.01954 8.88735 3.01954 9.14317V14.8668C3.01954 15.3976 3.21528 16.0402 3.56889 16.6399C3.92247 17.2395 4.3905 17.7227 4.85645 17.9807L4.8577 17.9814L10.2654 20.9891C10.5294 21.1347 10.8639 21.245 11.2345 21.3089ZM3.84229 6.95909L11.994 11.6766L15.6056 9.58457L7.19569 4.72823L4.85645 6.02928C4.50258 6.22522 4.14751 6.55102 3.84229 6.95909Z" fill="black"/>
</svg>
