<svg width="24" height="24" viewBox="0 0 24 24" fill="none" xmlns="http://www.w3.org/2000/svg">
<path fill-rule="evenodd" clip-rule="evenodd" d="M5.39972 13.8997C5.69262 13.6068 6.16749 13.6068 6.46038 13.8997L11.2501 18.6893L11.2501 3.5C11.2501 3.08579 11.5858 2.75 12.0001 2.75C12.4143 2.75 12.7501 3.08579 12.7501 3.5L12.7501 18.6893L17.5397 13.8997C17.8326 13.6068 18.3075 13.6068 18.6004 13.8997C18.8933 14.1926 18.8933 14.6674 18.6004 14.9603L12.5304 21.0303C12.3897 21.171 12.199 21.25 12.0001 21.25C11.8011 21.25 11.6104 21.171 11.4697 21.0303L5.39972 14.9603C5.10683 14.6674 5.10683 14.1926 5.39972 13.8997Z" fill="black"/>
</svg>
