<svg width="24" height="24" viewBox="0 0 24 24" fill="none" xmlns="http://www.w3.org/2000/svg">
<path d="M12 8.25C12.4143 8.25 12.75 8.58579 12.75 9V14C12.75 14.4142 12.4143 14.75 12 14.75C11.5858 14.75 11.25 14.4142 11.25 14V9C11.25 8.58579 11.5858 8.25 12 8.25Z" fill="black"/>
<path d="M11.9945 16C11.4423 16 10.9945 16.4477 10.9945 17C10.9945 17.5523 11.4423 18 11.9945 18H12.0035C12.5558 18 13.0035 17.5523 13.0035 17C13.0035 16.4477 12.5558 16 12.0035 16H11.9945Z" fill="black"/>
<path fill-rule="evenodd" clip-rule="evenodd" d="M11.8773 22.1598H5.94009C4.04033 22.1598 2.50735 21.4745 1.74204 20.1707C0.977148 18.8676 1.12466 17.1945 2.04417 15.5361L5.16437 9.91575L8.10419 4.63607C9.06775 2.89878 10.4501 1.84229 12.0001 1.84229C13.5501 1.84229 14.9321 2.89814 15.8957 4.63545L21.9558 15.5458C22.8759 17.2052 23.0203 18.8787 22.254 20.1813C21.4877 21.4841 19.9556 22.1698 18.0601 22.1698H12.0001C11.9583 22.1698 11.9173 22.1664 11.8773 22.1598ZM12.0001 3.34229C11.2003 3.34229 10.2324 3.89118 9.416 5.3635L6.47582 10.6438L3.35602 16.2635C2.59552 17.6351 2.62804 18.717 3.03565 19.4114C3.44283 20.1051 4.36986 20.6598 5.94009 20.6598H12.0001C12.0419 20.6598 12.0829 20.6632 12.1229 20.6698H18.0601C19.6246 20.6698 20.5525 20.1155 20.9611 19.4208C21.3699 18.7258 21.4041 17.644 20.6442 16.2735L14.5845 5.36412C13.7681 3.8918 12.7999 3.34229 12.0001 3.34229Z" fill="black"/>
</svg>
