<svg width="24" height="24" viewBox="0 0 24 24" fill="none" xmlns="http://www.w3.org/2000/svg">
<path fill-rule="evenodd" clip-rule="evenodd" d="M7.98001 3.54L7.76628 4.81269C6.8289 4.86358 5.89336 4.93523 4.95998 5.02998L2.91998 5.22998C2.50998 5.26998 2.20998 5.62998 2.24998 6.04998C2.28998 6.46998 2.65998 6.76998 3.07998 6.72998L5.11998 6.52998C10.35 5.99998 15.63 6.19998 20.92 6.72998H21C21.38 6.72998 21.71 6.43998 21.74 6.04998C21.78 5.63998 21.48 5.26998 21.07 5.22998C19.4587 5.07183 17.8483 4.94218 16.2404 4.85244L16.02 3.55L16.0191 3.54413C15.8691 2.62414 15.645 1.25 13.31 1.25H10.69C8.36167 1.25 8.14033 2.5781 7.98035 3.53794L7.98001 3.54ZM14.55 3.8L14.7158 4.77964C12.9062 4.70826 11.1003 4.69214 9.30059 4.7476L9.47001 3.79L9.47153 3.781C9.62016 2.89906 9.64359 2.76 10.7 2.76H13.32C14.38 2.76 14.41 2.93 14.55 3.8Z" fill="black"/>
<path d="M8.79002 22.7501H15.21C18.7 22.7501 18.84 20.8201 18.95 19.2601L19.6 9.19007C19.63 8.77007 19.31 8.42008 18.9 8.39008C18.49 8.37008 18.13 8.68008 18.1 9.09008L17.45 19.1601C17.35 20.6801 17.31 21.2501 15.21 21.2501H8.79002C6.70127 21.2501 6.66007 20.6808 6.55022 19.1628L6.55002 19.1601L5.90002 9.09008C5.87002 8.68008 5.52002 8.37008 5.10002 8.39008C4.69002 8.42008 4.37002 8.78008 4.40002 9.19007L5.05002 19.2601C5.16002 20.8201 5.30002 22.7501 8.79002 22.7501Z" fill="black"/>
<path d="M13.66 17.25H10.33C9.92002 17.25 9.58002 16.91 9.58002 16.5C9.58002 16.09 9.92002 15.75 10.33 15.75H13.66C14.07 15.75 14.41 16.09 14.41 16.5C14.41 16.91 14.07 17.25 13.66 17.25Z" fill="black"/>
<path d="M9.5 13.25H14.5C14.91 13.25 15.25 12.91 15.25 12.5C15.25 12.09 14.91 11.75 14.5 11.75H9.5C9.09 11.75 8.75 12.09 8.75 12.5C8.75 12.91 9.09 13.25 9.5 13.25Z" fill="black"/>
</svg>
