<svg width="24" height="24" viewBox="0 0 24 24" fill="none" xmlns="http://www.w3.org/2000/svg">
<path fill-rule="evenodd" clip-rule="evenodd" d="M4.75001 16.35C4.75001 19.88 8.00001 22.75 12 22.75C16 22.75 19.25 19.88 19.25 16.35V12.65V7.65C19.25 5.93 18.48 4.31 17.09 3.08C15.72 1.9 13.92 1.25 12 1.25C8.00763 1.25 4.76239 4.10909 4.75005 7.62985C4.74419 9.30319 4.75001 10.9767 4.75001 12.65V16.35ZM12 17.25C8.72001 17.25 6.25001 15.27 6.25001 12.65V11.4377C7.5879 12.8862 9.69643 13.75 12 13.75C14.3036 13.75 16.4121 12.8862 17.75 11.4377V12.65C17.75 15.27 15.28 17.25 12 17.25ZM12 21.25C8.87001 21.25 6.32001 19.11 6.25001 16.46C7.56001 17.87 9.61001 18.75 12 18.75C14.39 18.75 16.45 17.87 17.75 16.46C17.68 19.11 15.13 21.25 12 21.25ZM8.20162 3.97508C9.25084 3.17829 10.5842 2.75 12 2.75C13.56 2.75 15.01 3.27 16.1 4.21C17.17 5.15 17.75 6.37 17.75 7.65C17.75 8.4 17.56 9.1 17.17 9.73C16.22 11.28 14.24 12.25 12 12.25C9.76001 12.25 7.78 11.29 6.83 9.73C6.41436 9.04091 6.21465 8.23773 6.25546 7.4353C6.32647 6.0394 7.10791 4.80566 8.20162 3.97508Z" fill="#7A608B"/>
<path fill-rule="evenodd" clip-rule="evenodd" d="M8.20162 3.97508C9.25084 3.17829 10.5842 2.75 12 2.75C10.5456 2.75 9.21544 3.21309 8.20162 3.97508Z" fill="#7A608B"/>
</svg>
