<svg width="24" height="24" viewBox="0 0 24 24" fill="none" xmlns="http://www.w3.org/2000/svg">
<path d="M15.5173 1.43775C16.6841 1.28855 17.8645 1.76567 19.0639 2.89422L19.0653 2.89552C20.2687 4.03361 20.8166 5.1881 20.7344 6.36399C20.655 7.50024 19.9963 8.46195 19.2451 9.2555L18.5422 7.78126C18.9673 7.24546 19.2042 6.74403 19.238 6.25939C19.2783 5.68293 19.0413 4.93767 18.0355 3.98613C17.3149 3.30824 16.7218 3.01865 16.2323 2.9371L15.5173 1.43775Z" fill="black"/>
<path fill-rule="evenodd" clip-rule="evenodd" d="M16.2323 2.9371L15.5173 1.43775C14.3899 1.58192 13.4669 2.29096 12.7153 3.08483L11.3613 4.51798C11.3504 4.52888 11.3398 4.5401 11.3295 4.55162L4.5048 11.7754L4.50334 11.7769C4.27535 12.0196 4.0827 12.3407 3.9415 12.6435C3.79979 12.9473 3.67971 13.2976 3.63655 13.6213L3.63482 13.6353L3.26482 16.8753L3.26456 16.8776C3.1774 17.6621 3.41268 18.3984 3.94514 18.9034C4.47834 19.409 5.22684 19.6041 6.0074 19.4695L9.22625 18.9197L9.23125 18.9189C9.55604 18.8611 9.902 18.7243 10.2011 18.5643C10.4964 18.4065 10.8079 18.1931 11.0392 17.9412L17.7767 10.8098C17.8549 10.7538 17.9222 10.6829 17.9741 10.6008L19.2451 9.2555L18.5422 7.78126L16.2323 2.9371ZM16.2323 2.9371L18.5422 7.78126C18.4271 7.92631 18.2977 8.07439 18.1553 8.22483L17.042 9.4032C14.8922 9.0357 13.1752 7.41188 12.6981 5.2873L13.8046 4.11605C14.4729 3.41017 15.0952 3.00394 15.7076 2.92563C15.8678 2.90514 16.0423 2.90548 16.2323 2.9371ZM11.5122 6.5425C12.2547 8.5041 13.8604 10.0199 15.8589 10.6556L9.9448 16.9154L9.93576 16.9251C9.85759 17.0109 9.70144 17.1306 9.49385 17.2415C9.2891 17.351 9.09608 17.419 8.97081 17.4416L5.7537 17.9911L5.75254 17.9913C5.37311 18.0568 5.12161 17.9518 4.97731 17.815C4.83239 17.6776 4.71276 17.4292 4.75527 17.0443L4.75539 17.0433L5.12419 13.8138C5.14206 13.6872 5.20168 13.4903 5.30094 13.2774C5.40203 13.0607 5.51413 12.892 5.5961 12.8045L11.5122 6.5425Z" fill="black"/>
<path d="M3 21.2502C2.58579 21.2502 2.25 21.586 2.25 22.0002C2.25 22.4144 2.58579 22.7502 3 22.7502H21C21.4142 22.7502 21.75 22.4144 21.75 22.0002C21.75 21.586 21.4142 21.2502 21 21.2502H3Z" fill="black"/>
</svg>
