<svg width="24" height="24" viewBox="0 0 24 24" fill="none" xmlns="http://www.w3.org/2000/svg">
<path d="M20.4401 16.8545L18.9591 14.6335C19.2017 14.4726 19.4101 14.2654 19.5725 14.0239C19.7349 13.7823 19.8481 13.5112 19.9056 13.2258C19.9631 12.9405 19.9638 12.6466 19.9076 12.361C19.8514 12.0754 19.7394 11.8037 19.5781 11.5615L17.4871 8.42647C17.6702 8.25975 17.8243 8.06374 17.9431 7.84647C18.1332 7.4976 18.2257 7.10395 18.2109 6.70694C18.1961 6.30993 18.0746 5.92425 17.8591 5.59048C17.8341 5.55268 17.8071 5.51629 17.7781 5.48148L13.6781 0.699483C13.4531 0.476607 13.1859 0.300869 12.8922 0.182566C12.5984 0.0642622 12.284 0.00577198 11.9674 0.0105216C11.6507 0.0152713 11.3382 0.0831653 11.0482 0.210226C10.7581 0.337287 10.4963 0.520959 10.2781 0.750483L6.20611 5.47748C6.17652 5.51111 6.14944 5.54687 6.12511 5.58448C5.83764 6.02715 5.71794 6.55803 5.78763 7.08123C5.85732 7.60443 6.11179 8.08547 6.50511 8.43747L4.42211 11.5615C4.26079 11.8037 4.14884 12.0754 4.09264 12.361C4.03644 12.6466 4.03711 12.9405 4.09461 13.2258C4.1521 13.5112 4.26529 13.7823 4.4277 14.0239C4.59011 14.2654 4.79856 14.4726 5.04111 14.6335L3.56011 16.8545C3.22781 17.3527 3.03696 17.9318 3.00792 18.53C2.97888 19.1282 3.11273 19.7231 3.39521 20.2512C3.67768 20.7793 4.09819 21.2208 4.61188 21.5287C5.12558 21.8366 5.71321 21.9993 6.31211 21.9995H11.0001V22.9995C11.0001 23.2647 11.1055 23.519 11.293 23.7066C11.4805 23.8941 11.7349 23.9995 12.0001 23.9995C12.2653 23.9995 12.5197 23.8941 12.7072 23.7066C12.8947 23.519 13.0001 23.2647 13.0001 22.9995V21.9995H17.6871C18.2861 21.9995 18.8738 21.8369 19.3877 21.5291C19.9015 21.2213 20.3222 20.7797 20.6048 20.2516C20.8874 19.7235 21.0213 19.1285 20.9923 18.5303C20.9633 17.932 20.7725 17.3528 20.4401 16.8545ZM18.8401 19.3085C18.7298 19.5183 18.5639 19.6938 18.3605 19.8157C18.1572 19.9376 17.9242 20.0012 17.6871 19.9995H6.31211C6.07529 19.9992 5.84297 19.9348 5.6399 19.8129C5.43683 19.6911 5.27061 19.5165 5.15896 19.3076C5.0473 19.0988 4.99439 18.8636 5.00587 18.627C5.01734 18.3905 5.09276 18.1615 5.22411 17.9645L7.50011 14.5545C7.60068 14.4037 7.6584 14.2285 7.6671 14.0475C7.67581 13.8665 7.63516 13.6865 7.54951 13.5268C7.46386 13.3671 7.33643 13.2337 7.18083 13.1408C7.02523 13.0479 6.84732 12.9991 6.66611 12.9995H6.26111C6.22272 13.0008 6.18476 12.991 6.15178 12.9713C6.1188 12.9516 6.09218 12.9229 6.07511 12.8885C6.05583 12.8551 6.04662 12.8168 6.04857 12.7783C6.05052 12.7398 6.06356 12.7027 6.08611 12.6715L8.83111 8.55447C8.9301 8.40294 8.9861 8.22737 8.99314 8.04651C9.00019 7.86564 8.95801 7.68625 8.87111 7.52747C8.78342 7.36758 8.65435 7.2342 8.49742 7.1413C8.34049 7.04841 8.16147 6.99943 7.97911 6.99948C7.94082 7.00088 7.90294 6.99126 7.86997 6.97176C7.837 6.95226 7.81032 6.9237 7.79311 6.88948C7.77763 6.86268 7.76858 6.83266 7.76667 6.80177C7.76476 6.77088 7.77004 6.73997 7.78211 6.71148L11.7441 2.11148C11.7709 2.07725 11.8043 2.0487 11.8422 2.02751C11.8802 2.00632 11.922 1.99291 11.9652 1.98806C12.0084 1.98322 12.0521 1.98704 12.0938 1.99931C12.1355 2.01157 12.1744 2.03203 12.2081 2.05948L16.2001 6.71248C16.2122 6.74097 16.2175 6.77188 16.2155 6.80277C16.2136 6.83366 16.2046 6.86368 16.1891 6.89048C16.1715 6.92499 16.1443 6.95367 16.1108 6.97302C16.0772 6.99237 16.0388 7.00156 16.0001 6.99948C15.8191 6.99945 15.6414 7.04857 15.4861 7.1416C15.3308 7.23463 15.2036 7.36808 15.1182 7.52771C15.0328 7.68734 14.9924 7.86716 15.0011 8.04799C15.0099 8.22882 15.0676 8.40387 15.1681 8.55447L17.9131 12.6715C17.9357 12.7027 17.9487 12.7398 17.9506 12.7783C17.9526 12.8168 17.9434 12.8551 17.9241 12.8885C17.907 12.9229 17.8804 12.9516 17.8474 12.9713C17.8145 12.991 17.7765 13.0008 17.7381 12.9995H17.3331C17.1521 12.9994 16.9744 13.0486 16.8191 13.1416C16.6638 13.2346 16.5366 13.3681 16.4512 13.5277C16.3658 13.6873 16.3254 13.8672 16.3341 14.048C16.3429 14.2288 16.4006 14.4039 16.5011 14.5545L18.7751 17.9645C18.9088 18.1607 18.9858 18.39 18.9974 18.6272C19.009 18.8643 18.954 19.1001 18.8401 19.3085Z" fill="black"/>
<path d="M9.00009 17.9996C9.55237 17.9996 10.0001 17.5518 10.0001 16.9996C10.0001 16.4473 9.55237 15.9995 9.00009 15.9995C8.44781 15.9995 8.00009 16.4473 8.00009 16.9996C8.00009 17.5518 8.44781 17.9996 9.00009 17.9996Z" fill="black"/>
<path d="M13.9998 17.9996C14.5521 17.9996 14.9998 17.5518 14.9998 16.9996C14.9998 16.4473 14.5521 15.9995 13.9998 15.9995C13.4475 15.9995 12.9998 16.4473 12.9998 16.9996C12.9998 17.5518 13.4475 17.9996 13.9998 17.9996Z" fill="black"/>
<path d="M10.9998 14.0002C11.5521 14.0002 11.9998 13.5525 11.9998 13.0002C11.9998 12.4479 11.5521 12.0002 10.9998 12.0002C10.4475 12.0002 9.99979 12.4479 9.99979 13.0002C9.99979 13.5525 10.4475 14.0002 10.9998 14.0002Z" fill="black"/>
<path d="M13 11.0002C13.5522 11.0002 14 10.5524 14 10.0002C14 9.44787 13.5522 9.00016 13 9.00016C12.4477 9.00016 11.9999 9.44787 11.9999 10.0002C11.9999 10.5524 12.4477 11.0002 13 11.0002Z" fill="black"/>
<path d="M10.9998 8.00015C11.5521 8.00015 11.9998 7.55244 11.9998 7.00015C11.9998 6.44787 11.5521 6.00016 10.9998 6.00016C10.4475 6.00016 9.99979 6.44787 9.99979 7.00015C9.99979 7.55244 10.4475 8.00015 10.9998 8.00015Z" fill="black"/>
</svg>
