<svg width="24" height="24" viewBox="0 0 24 24" fill="none" xmlns="http://www.w3.org/2000/svg">
<path fill-rule="evenodd" clip-rule="evenodd" d="M5.39972 10.1003C5.69262 10.3932 6.16749 10.3932 6.46038 10.1003L11.2501 5.31066L11.2501 20.5C11.2501 20.9142 11.5858 21.25 12.0001 21.25C12.4143 21.25 12.7501 20.9142 12.7501 20.5L12.7501 5.31066L17.5397 10.1003C17.8326 10.3932 18.3075 10.3932 18.6004 10.1003C18.8933 9.80744 18.8933 9.33256 18.6004 9.03967L12.5304 2.96967C12.3897 2.82902 12.199 2.75 12.0001 2.75C11.8011 2.75 11.6104 2.82902 11.4697 2.96967L5.39972 9.03967C5.10683 9.33256 5.10683 9.80744 5.39972 10.1003Z" fill="black"/>
</svg>
