<svg width="24" height="24" viewBox="0 0 24 24" fill="none" xmlns="http://www.w3.org/2000/svg">
<path fill-rule="evenodd" clip-rule="evenodd" d="M2.21967 2.21967C2.90993 1.52941 3.88439 1.25 5 1.25H7C8.11561 1.25 9.09007 1.52941 9.78033 2.21967C10.4706 2.90993 10.75 3.88439 10.75 5V7C10.75 8.11561 10.4706 9.09007 9.78033 9.78033C9.09007 10.4706 8.11561 10.75 7 10.75H5C3.88439 10.75 2.90993 10.4706 2.21967 9.78033C1.52941 9.09007 1.25 8.11561 1.25 7V5C1.25 3.88439 1.52941 2.90993 2.21967 2.21967ZM3.28033 3.28033C2.97059 3.59007 2.75 4.11561 2.75 5V7C2.75 7.88439 2.97059 8.40993 3.28033 8.71967C3.59007 9.02941 4.11561 9.25 5 9.25H7C7.88439 9.25 8.40993 9.02941 8.71967 8.71967C9.02941 8.40993 9.25 7.88439 9.25 7V5C9.25 4.11561 9.02941 3.59007 8.71967 3.28033C8.40993 2.97059 7.88439 2.75 7 2.75H5C4.11561 2.75 3.59007 2.97059 3.28033 3.28033ZM14.2197 2.21967C14.9099 1.52941 15.8844 1.25 17 1.25H19C20.1156 1.25 21.0901 1.52941 21.7803 2.21967C22.4706 2.90993 22.75 3.88439 22.75 5V7C22.75 8.11561 22.4706 9.09007 21.7803 9.78033C21.0901 10.4706 20.1156 10.75 19 10.75H17C15.8844 10.75 14.9099 10.4706 14.2197 9.78033C13.5294 9.09007 13.25 8.11561 13.25 7V5C13.25 3.88439 13.5294 2.90993 14.2197 2.21967ZM15.2803 3.28033C14.9706 3.59007 14.75 4.11561 14.75 5V7C14.75 7.88439 14.9706 8.40993 15.2803 8.71967C15.5901 9.02941 16.1156 9.25 17 9.25H19C19.8844 9.25 20.4099 9.02941 20.7197 8.71967C21.0294 8.40993 21.25 7.88439 21.25 7V5C21.25 4.11561 21.0294 3.59007 20.7197 3.28033C20.4099 2.97059 19.8844 2.75 19 2.75H17C16.1156 2.75 15.5901 2.97059 15.2803 3.28033ZM2.21967 14.2197C2.90993 13.5294 3.88439 13.25 5 13.25H7C8.11561 13.25 9.09007 13.5294 9.78033 14.2197C10.4706 14.9099 10.75 15.8844 10.75 17V19C10.75 20.1156 10.4706 21.0901 9.78033 21.7803C9.09007 22.4706 8.11561 22.75 7 22.75H5C3.88439 22.75 2.90993 22.4706 2.21967 21.7803C1.52941 21.0901 1.25 20.1156 1.25 19V17C1.25 15.8844 1.52941 14.9099 2.21967 14.2197ZM3.28033 15.2803C2.97059 15.5901 2.75 16.1156 2.75 17V19C2.75 19.8844 2.97059 20.4099 3.28033 20.7197C3.59007 21.0294 4.11561 21.25 5 21.25H7C7.88439 21.25 8.40993 21.0294 8.71967 20.7197C9.02941 20.4099 9.25 19.8844 9.25 19V17C9.25 16.1156 9.02941 15.5901 8.71967 15.2803C8.40993 14.9706 7.88439 14.75 7 14.75H5C4.11561 14.75 3.59007 14.9706 3.28033 15.2803ZM14.2197 14.2197C14.9099 13.5294 15.8844 13.25 17 13.25H19C20.1156 13.25 21.0901 13.5294 21.7803 14.2197C22.4706 14.9099 22.75 15.8844 22.75 17V19C22.75 20.1156 22.4706 21.0901 21.7803 21.7803C21.0901 22.4706 20.1156 22.75 19 22.75H17C15.8844 22.75 14.9099 22.4706 14.2197 21.7803C13.5294 21.0901 13.25 20.1156 13.25 19V17C13.25 15.8844 13.5294 14.9099 14.2197 14.2197ZM15.2803 15.2803C14.9706 15.5901 14.75 16.1156 14.75 17V19C14.75 19.8844 14.9706 20.4099 15.2803 20.7197C15.5901 21.0294 16.1156 21.25 17 21.25H19C19.8844 21.25 20.4099 21.0294 20.7197 20.7197C21.0294 20.4099 21.25 19.8844 21.25 19V17C21.25 16.1156 21.0294 15.5901 20.7197 15.2803C20.4099 14.9706 19.8844 14.75 19 14.75H17C16.1156 14.75 15.5901 14.9706 15.2803 15.2803Z" fill="black"/>
</svg>
