<svg width="24" height="24" viewBox="0 0 24 24" fill="none" xmlns="http://www.w3.org/2000/svg">
<path fill-rule="evenodd" clip-rule="evenodd" d="M11.2524 1.43431C11.5648 1.70627 11.5976 2.18001 11.3257 2.49244L9.92124 4.10581C10.5698 3.97659 11.262 3.90001 12 3.90001C17.2042 3.90001 21.42 8.1158 21.42 13.32C21.42 18.5242 17.2042 22.74 12 22.74C6.79574 22.74 2.57996 18.5242 2.57996 13.32C2.57996 11.3864 3.16692 9.58248 4.16592 8.08399C4.39568 7.73934 4.86133 7.64621 5.20598 7.87597C5.55063 8.10574 5.64376 8.57139 5.41399 8.91604C4.57299 10.1775 4.07996 11.6936 4.07996 13.32C4.07996 17.6958 7.62417 21.24 12 21.24C16.3757 21.24 19.92 17.6958 19.92 13.32C19.92 8.94422 16.3757 5.40001 12 5.40001C11.1577 5.40001 10.3826 5.51615 9.66657 5.70293L11.6822 7.17424C12.0167 7.41846 12.0899 7.88765 11.8457 8.22221C11.6015 8.55677 11.1323 8.63 10.7978 8.38579L7.42776 5.92579C7.25808 5.80193 7.14813 5.61258 7.12465 5.40383C7.10118 5.19507 7.16633 4.98603 7.30426 4.82758L10.1943 1.50758C10.4662 1.19516 10.94 1.16235 11.2524 1.43431Z" fill="#292D32"/>
</svg>
