<svg width="24" height="24" viewBox="0 0 24 24" fill="none" xmlns="http://www.w3.org/2000/svg">
<path d="M12 22.75C6.07 22.75 1.25 17.93 1.25 12C1.25 6.07 6.07 1.25 12 1.25C17.93 1.25 22.75 6.07 22.75 12C22.75 17.93 17.93 22.75 12 22.75ZM12 2.75C6.9 2.75 2.75 6.9 2.75 12C2.75 17.1 6.9 21.25 12 21.25C17.1 21.25 21.25 17.1 21.25 12C21.25 6.9 17.1 2.75 12 2.75Z" fill="black"/>
<path fill-rule="evenodd" clip-rule="evenodd" d="M8.99817 9.71338C8.99817 8.06038 10.35 6.75 12 6.75C13.65 6.75 15.0018 8.06038 15.0018 9.71338C15.0018 10.9925 14.155 11.6682 13.5592 12.0683C13.0223 12.4328 12.75 12.7168 12.75 13.2201V13.5C12.75 13.9142 12.4142 14.25 12 14.25C11.5858 14.25 11.25 13.9142 11.25 13.5V13.2201C11.25 11.9105 12.1167 11.2344 12.7184 10.8261L12.7215 10.824C13.238 10.4773 13.5018 10.1931 13.5018 9.71338C13.5018 8.91304 12.846 8.25 12 8.25C11.154 8.25 10.4982 8.91304 10.4982 9.71338C10.4982 10.1276 10.1624 10.4634 9.74817 10.4634C9.33396 10.4634 8.99817 10.1276 8.99817 9.71338Z" fill="black"/>
<path fill-rule="evenodd" clip-rule="evenodd" d="M10.991 16C10.991 15.4477 11.4387 15 11.991 15H12.009C12.5613 15 13.009 15.4477 13.009 16C13.009 16.5523 12.5613 17 12.009 17H11.991C11.4387 17 10.991 16.5523 10.991 16Z" fill="black"/>
</svg>
