<svg width="24" height="24" viewBox="0 0 24 24" fill="none" xmlns="http://www.w3.org/2000/svg">
<g clip-path="url(#clip0_348_11808)">
<path d="M23.119 0.871791C22.8064 0.55998 22.4286 0.321381 22.0127 0.173187C21.5969 0.0249938 21.1533 -0.0291044 20.714 0.014791C17.921 0.284791 8.528 1.44779 4.90001 5.07179C3.16578 6.81075 2.1374 9.13062 2.01348 11.5834C1.88956 14.0362 2.67888 16.4479 4.22901 18.3528L0.289012 22.2928C0.106854 22.4814 0.00606017 22.734 0.00833858 22.9962C0.010617 23.2584 0.115786 23.5092 0.301194 23.6946C0.486602 23.88 0.737414 23.9852 0.99961 23.9875C1.26181 23.9897 1.51441 23.8889 1.70301 23.7068L5.64301 19.7668C7.54751 21.319 9.95987 22.11 12.4137 21.9868C14.8675 21.8636 17.1885 20.8349 18.928 19.0998C22.604 15.4228 23.728 6.05879 23.987 3.27679C24.0293 2.83666 23.9734 2.39262 23.8233 1.97672C23.6732 1.56082 23.4327 1.18343 23.119 0.871791ZM17.519 17.6818C16.1555 19.0403 14.3442 19.8561 12.4233 19.977C10.5023 20.0979 8.60306 19.5156 7.08 18.3388L16.712 8.70679C16.8942 8.51819 16.9949 8.26559 16.9927 8.00339C16.9904 7.74119 16.8852 7.49038 16.6998 7.30497C16.5144 7.11956 16.2636 7.0144 16.0014 7.01212C15.7392 7.00984 15.4866 7.11063 15.298 7.29279L5.66101 16.9248C4.48398 15.4018 3.90154 13.5025 4.02244 11.5815C4.14334 9.66049 4.95932 7.84918 6.318 6.48579C8.827 3.97779 15.745 2.49979 20.907 2.00479C21.0532 1.99056 21.2007 2.00872 21.3391 2.05797C21.4775 2.10722 21.6033 2.18635 21.7077 2.28974C21.812 2.39313 21.8923 2.51824 21.9428 2.65617C21.9934 2.7941 22.0129 2.94147 22 3.08779C21.5 8.47479 20.059 15.1368 17.514 17.6818H17.519Z" fill="black"/>
</g>
<defs>
<clipPath id="clip0_348_11808">
<rect width="24" height="24" fill="white"/>
</clipPath>
</defs>
</svg>
