<svg width="24" height="24" viewBox="0 0 24 24" fill="none" xmlns="http://www.w3.org/2000/svg">
<path d="M15.26 22.2499H8.73998C3.82998 22.2499 1.72998 20.1499 1.72998 15.2399V15.1099C1.72998 10.6699 3.47998 8.52994 7.39998 8.15994C7.79998 8.12994 8.17998 8.42994 8.21998 8.83994C8.25998 9.24994 7.95998 9.61994 7.53998 9.65994C4.39998 9.94994 3.22998 11.4299 3.22998 15.1199V15.2499C3.22998 19.3199 4.66998 20.7599 8.73998 20.7599H15.26C19.33 20.7599 20.77 19.3199 20.77 15.2499V15.1199C20.77 11.4099 19.58 9.92994 16.38 9.65994C15.97 9.61994 15.66 9.25994 15.7 8.84994C15.74 8.43994 16.09 8.12994 16.51 8.16994C20.49 8.50994 22.27 10.6599 22.27 15.1299V15.2599C22.27 20.1499 20.17 22.2499 15.26 22.2499Z" fill="black"/>
<path d="M12 15.7499C11.59 15.7499 11.25 15.4099 11.25 14.9999V4.30994L9.17998 6.37994C8.88998 6.66994 8.40998 6.66994 8.11998 6.37994C7.82998 6.08994 7.82998 5.60994 8.11998 5.31994L11.47 1.96994C11.76 1.67994 12.24 1.67994 12.53 1.96994L15.88 5.31994C16.17 5.60994 16.17 6.08994 15.88 6.37994C15.74 6.52994 15.54 6.59994 15.35 6.59994C15.16 6.59994 14.97 6.52994 14.82 6.37994L12.75 4.30994V14.9999C12.75 15.4099 12.41 15.7499 12 15.7499Z" fill="black"/>
</svg>
