<svg width="24" height="24" viewBox="0 0 24 24" fill="none" xmlns="http://www.w3.org/2000/svg">
<path fill-rule="evenodd" clip-rule="evenodd" d="M6.19965 2.46967C6.49254 2.17678 6.96741 2.17678 7.26031 2.46967L10.9803 6.18964C11.2732 6.48253 11.2732 6.9574 10.9803 7.2503C10.6875 7.54319 10.2126 7.5432 9.91969 7.25031L7.47998 4.81064V21C7.47998 21.4142 7.14419 21.75 6.72998 21.75C6.31577 21.75 5.97998 21.4142 5.97998 21V4.81066L3.54034 7.2503C3.24745 7.54319 2.77257 7.54319 2.47968 7.2503C2.18679 6.95741 2.18679 6.48253 2.47968 6.18964L6.19965 2.46967ZM17.27 2.25C17.6842 2.25 18.02 2.58579 18.02 3V19.1893L20.4597 16.7497C20.7526 16.4568 21.2274 16.4568 21.5203 16.7497C21.8132 17.0426 21.8132 17.5175 21.5203 17.8104L17.8003 21.5303C17.5075 21.8232 17.0326 21.8232 16.7397 21.5303L13.0197 17.8104C12.7268 17.5175 12.7268 17.0426 13.0197 16.7497C13.3125 16.4568 13.7874 16.4568 14.0803 16.7497L16.52 19.1894V3C16.52 2.58579 16.8558 2.25 17.27 2.25Z" fill="black"/>
</svg>
