<svg width="24" height="24" viewBox="0 0 24 24" fill="none" xmlns="http://www.w3.org/2000/svg">
<path fill-rule="evenodd" clip-rule="evenodd" d="M24 12.0002C24 18.6269 18.6269 24 11.9998 24C5.37315 24 0 18.6269 0 12.0002C0 5.37315 5.37315 0 11.9998 0C18.6269 0 24 5.37315 24 12.0002Z" fill="#FB3F1C"/>
<path fill-rule="evenodd" clip-rule="evenodd" d="M13.8642 19.3606H16.4897V4.36835H12.6849C8.85708 4.36835 6.8483 6.32839 6.8483 9.22319C6.84656 11.5057 7.96496 12.907 9.91543 14.29L6.49493 19.3606H9.33142L13.1379 13.6798L11.8124 12.7995C10.214 11.722 9.43108 10.8847 9.43108 9.0687C9.43108 7.47203 10.5556 6.39497 12.6945 6.39497H13.8642V19.3606Z" fill="white"/>
</svg>
