<svg width="44" height="44" viewBox="0 0 44 44" fill="none" xmlns="http://www.w3.org/2000/svg">
<path d="M0 22C0 9.84974 9.84974 0 22 0C34.1503 0 44 9.84974 44 22C44 34.1503 34.1503 44 22 44C9.84974 44 0 34.1503 0 22Z" fill="#BFB1AC" fill-opacity="0.16"/>
<path fill-rule="evenodd" clip-rule="evenodd" d="M22 31.25C21.9476 31.25 21.8952 31.2496 21.8428 31.2487C21.7598 31.2473 21.6769 31.2447 21.5941 31.2411C21.7291 31.247 21.8644 31.25 22 31.25Z" fill="#362F3C" fill-opacity="0.45"/>
<path fill-rule="evenodd" clip-rule="evenodd" d="M22 32.75C16.07 32.75 11.25 27.93 11.25 22C11.25 16.07 16.07 11.25 22 11.25C27.93 11.25 32.75 16.07 32.75 22C32.75 27.93 27.93 32.75 22 32.75ZM27.92 29.1C27.74 28.49 27.26 27.9 26.55 27.42C24.09 25.78 19.92 25.78 17.44 27.42C16.73 27.9 16.26 28.49 16.08 29.1C17.6362 30.4031 19.5704 31.1525 21.5941 31.2411C21.6769 31.2447 21.7598 31.2473 21.8428 31.2487C21.8952 31.2496 21.9476 31.25 22 31.25C22.0509 31.25 22.1017 31.2496 22.1524 31.2487C24.2677 31.214 26.2989 30.4574 27.92 29.1ZM27.39 26.18C24.42 24.2 19.59 24.2 16.61 26.18C15.8585 26.681 15.2899 27.2903 14.9316 27.9599C13.5711 26.349 12.75 24.2685 12.75 22C12.75 16.9 16.9 12.75 22 12.75C27.1 12.75 31.25 16.9 31.25 22C31.25 24.269 30.4286 26.3499 29.0675 27.961C28.7092 27.294 28.1409 26.6867 27.39 26.18Z" fill="#362F3C" fill-opacity="0.45"/>
<path fill-rule="evenodd" clip-rule="evenodd" d="M22.12 23.53H22.05H21.95C19.68 23.46 17.98 21.69 17.98 19.51C17.98 17.29 19.79 15.48 22.01 15.48C24.23 15.48 26.04 17.29 26.04 19.51C26.03 21.7 24.32 23.46 22.15 23.53H22.12ZM19.47 19.5C19.47 18.11 20.6 16.97 22 16.97C23.4 16.97 24.53 18.11 24.53 19.5C24.52 20.86 23.47 21.96 22.13 22.03C22.03 22.02 21.93 22.02 21.9 22.03C20.54 21.98 19.47 20.87 19.47 19.5Z" fill="#362F3C" fill-opacity="0.45"/>
</svg>
