<svg width="40" height="36" viewBox="0 0 40 36" fill="none" xmlns="http://www.w3.org/2000/svg">
<g id="checkIcon" clip-path="url(#clip0_2300_14936)">
<path id="Vector" d="M18.7139 1.14238C30.5871 0.8919 37.4964 6.6644 38.1779 17.4052C38.5135 22.695 37.0348 27.1378 33.9099 30.2568C30.6218 33.5288 25.6328 35.2193 19.8711 35.023C8.69332 34.628 2.38978 29.3222 1.12899 19.2386C0.808048 17.0582 0.968842 14.836 1.60068 12.7197C2.23251 10.6034 3.3209 8.64154 4.79345 6.96464C8.04516 3.32176 12.9902 1.24222 18.7139 1.14238Z" fill="white"/>
<path id="Vector_2" d="M19.7775 6.70938C27.6926 7.02639 32.0486 11.1809 32.0486 18.4138C32.0486 21.976 30.8765 24.8958 28.6643 26.8604C26.3372 28.921 22.9444 29.8512 19.1169 29.4841C11.692 28.7625 7.71963 24.9459 7.30619 18.1301C7.18462 16.6544 7.38553 15.1703 7.89556 13.7765C8.40558 12.3826 9.21303 11.1111 10.2642 10.0463C12.5829 7.7355 15.9628 6.54254 19.7775 6.70938Z" fill="#AD93BE"/>
<g id="Union">
<path d="M26.6359 12.7709C26.6976 12.7336 26.7289 12.6919 26.6998 12.6062C26.6874 12.5696 26.664 12.525 26.6271 12.4693C26.5039 12.2829 26.3367 12.0256 26.2751 11.9103C26.2373 11.8265 26.2024 11.7414 26.1704 11.6552C26.1377 11.5668 26.108 11.4773 26.0816 11.3868C26.0201 11.1827 25.7296 11.094 25.624 11.1827C25.4826 11.3472 25.3328 11.5041 25.1753 11.653L25.1751 11.651C24.8172 11.9852 24.4766 12.3376 24.1544 12.7068C24.0136 12.8311 23.864 12.9641 23.732 13.1061L23.5208 13.3279C23.0305 13.8838 22.5833 14.4771 22.1835 15.1024L22.0338 15.342C21.9594 15.4994 21.8977 15.6626 21.8491 15.83C21.7285 16.0264 21.6103 16.2253 21.4959 16.4267C21.3933 16.6073 21.2937 16.79 21.198 16.9745L21.154 17.0455C20.802 17.6666 20.4677 18.2965 20.151 18.9354L19.7813 19.7162L19.6054 20.1066C19.6054 20.1532 19.5756 20.1998 19.546 20.2464C19.5361 20.2619 19.5262 20.2774 19.5174 20.2929C19.4981 20.3161 19.4833 20.3429 19.4743 20.3719C19.4653 20.4008 19.462 20.4312 19.4647 20.4615V20.6389C19.4647 20.6513 19.4589 20.6744 19.4494 20.7043C19.4408 20.7312 19.4292 20.7637 19.416 20.7989C19.3812 20.8918 19.3356 21.0036 19.3062 21.0825L19.1126 21.5705L18.7255 22.511L18.6112 22.7683V22.8304C18.6112 22.8482 18.5319 22.8304 18.5143 22.8304H18.4527C18.3191 22.6632 18.204 22.4817 18.1096 22.2892C18.0467 22.1883 17.9806 22.0894 17.9117 21.9927C17.8213 21.8659 17.7259 21.7429 17.6256 21.6238L17.0889 20.8785C17.0292 20.8026 16.9726 20.7251 16.9172 20.6469C16.8723 20.5834 16.8282 20.5195 16.7841 20.4553C16.6981 20.33 16.6114 20.204 16.517 20.0799L15.8835 19.2725C15.8835 19.2586 15.8819 19.2529 15.8819 19.2529C15.8819 19.2529 15.8794 19.2538 15.8769 19.2559C15.8703 19.2614 15.8571 19.2725 15.8306 19.2725C15.7779 19.2725 15.6899 19.1572 15.6195 19.0951L15.5667 19.0241L15.3644 18.7136C15.3282 18.5912 15.281 18.4724 15.2236 18.3587C15.1761 18.2935 15.1254 18.2308 15.0718 18.1709C15.0196 18.1125 14.9645 18.0568 14.9068 18.0038L14.8101 17.8973L14.1854 17.01C14.1634 16.9697 14.1403 16.9299 14.1162 16.8908C14.0722 16.8189 14.0248 16.7492 13.9742 16.6817L13.8158 16.4805L13.0679 17.0306L12.32 17.5807L13.0767 18.6869L13.2967 19.0596C13.6397 19.6452 14.0005 20.2308 14.3789 20.8341C14.5901 21.1535 14.8101 21.4641 15.0388 21.7746C15.1342 21.902 15.2309 22.0256 15.3289 22.1478C15.4513 22.3002 15.5759 22.4507 15.7031 22.6043L15.7048 22.6063C15.8516 22.7836 16.002 22.9651 16.1563 23.1587C16.6063 23.8057 17.1256 24.4008 17.7049 24.9333C17.8891 25.0998 18.1089 25.2212 18.3472 25.2882C18.4538 25.3174 18.5628 25.3382 18.6726 25.3503C18.7916 25.3462 18.9098 25.3283 19.0247 25.297C19.2579 25.2191 19.4723 25.0928 19.6541 24.9262C19.836 24.7596 19.9812 24.5565 20.0805 24.3299C20.3866 23.7572 20.6541 23.1643 20.8811 22.5554L21.6908 20.5502C22.3044 19.026 23.0555 17.5618 23.9344 16.176C23.9989 16.0785 24.0633 15.9786 24.1302 15.8789C24.1913 15.7879 24.2545 15.697 24.3216 15.6082L24.4007 15.5194C24.4775 15.4335 24.5582 15.3558 24.6392 15.2785L24.646 15.272C24.73 15.1918 24.814 15.1117 24.8935 15.0226C24.9626 14.9451 25.0552 14.8202 25.1589 14.6805C25.2927 14.5002 25.4448 14.2952 25.5886 14.1353C25.8438 13.8514 25.8613 13.8248 25.9845 13.6651C26.0133 13.6277 26.0407 13.5953 26.0669 13.5658C26.1009 13.5277 26.1332 13.4946 26.1642 13.4627C26.2117 13.4138 26.2565 13.3677 26.3014 13.3102L26.3629 13.2392L26.4685 13.1061L26.6359 12.7709Z" fill="white"/>
<path d="M13.5958 16.0901C13.6603 16.2251 13.7337 16.3555 13.8158 16.4805L13.0679 17.0306L12.32 17.5807C12.2606 17.4822 12.2012 17.3838 12.1428 17.2904C12.0801 17.1901 12.0184 17.0955 11.9592 17.0128C11.8546 16.8667 11.9413 16.8172 12.0847 16.7352L12.1264 16.7111L12.5927 16.4805C12.7071 16.4184 13.0942 16.1344 13.2879 16.0102C13.3127 15.9931 13.3408 15.9814 13.3706 15.9762C13.384 15.9738 13.3975 15.9727 13.4111 15.9729C13.4211 15.9731 13.431 15.974 13.441 15.9756C13.4474 15.9767 13.4536 15.978 13.4598 15.9796C13.4889 15.9872 13.5162 16.0009 13.5396 16.02C13.5528 16.0308 13.5648 16.0431 13.5751 16.0567C13.5829 16.0671 13.5899 16.0783 13.5958 16.0901Z" fill="white"/>
</g>
<path id="Vector_3" d="M36.0259 16.8831C36.0003 16.466 35.9364 16.0488 35.8938 15.6317C35.8512 15.2146 35.8171 14.6765 35.7403 14.1927C35.6662 13.6888 35.5435 13.193 35.3738 12.7119C35.1776 12.1025 34.9251 11.512 34.6194 10.9475C34.3082 10.3426 34.0184 9.7545 33.6859 9.15385C33.3529 8.61185 32.9551 8.11056 32.501 7.66056C32.0301 7.14331 31.5138 6.66737 30.9581 6.23818C30.3784 5.78167 29.7563 5.37948 29.0997 5.03688C28.4269 4.68253 27.7255 4.38259 27.0027 4.14007C26.9516 4.07333 27.0283 4.19012 26.943 4.16509C26.7532 4.1114 26.5594 4.07235 26.3634 4.0483L26.1801 3.99408L25.4044 3.75632C25.1644 3.6336 24.9115 3.53708 24.65 3.4685C24.315 3.39983 23.9763 3.3497 23.6355 3.31834C23.5382 3.301 23.4401 3.28847 23.3414 3.2808C22.5614 3.18069 21.7815 3.02219 20.9972 2.99299C20.7543 2.96796 20.6051 2.93459 20.1789 2.91373L19.7995 2.8762C18.8032 2.84946 17.8062 2.89127 16.8159 3.00133C16.4147 3.01731 16.0148 3.05631 15.6182 3.11813C15.4094 3.14315 15.192 3.17235 14.9874 3.21406C13.455 3.49521 11.9776 4.01187 10.6101 4.74489C10.4312 4.8325 10.2576 4.92999 10.0901 5.03688C9.78979 5.23271 9.50485 5.45021 9.23765 5.68759C8.47108 6.2137 7.75748 6.81009 7.10652 7.46869L6.98718 7.58548C5.9002 8.66674 5.01071 9.92238 4.35737 11.2978C4.08986 11.8508 3.86061 12.4208 3.67115 13.0039C3.5859 13.2917 3.48787 13.5795 3.41968 13.8756C3.38558 14.0175 3.36001 14.1718 3.31312 14.2928C3.26919 14.4116 3.25034 14.5379 3.25771 14.664L3.3046 15.0102C3.30365 15.342 3.27083 15.673 3.20657 15.9988C3.18099 16.37 3.15968 16.7413 3.15968 17.1125C3.15881 17.847 3.2015 18.581 3.28755 19.3107C3.32127 19.7303 3.37675 20.148 3.45378 20.5621C3.52197 21.0334 3.53902 21.5131 3.6541 21.9928C3.74496 22.4929 3.88045 22.9842 4.05902 23.4611C4.27005 24.0634 4.53684 24.6456 4.85606 25.2004C5.17572 25.8011 5.47409 26.3809 5.81933 26.9732C6.15759 27.5111 6.56117 28.0069 7.02128 28.4498C7.49715 28.9587 8.0146 29.4288 8.56848 29.8555C9.1613 30.3015 9.79151 30.6978 10.4524 31.0401C11.1245 31.3895 11.821 31.6919 12.5366 31.9453C12.5878 32.0037 12.5111 31.8952 12.5963 31.9161L13.1802 32.0287L13.3507 32.0871C13.6065 32.1705 13.8579 32.279 14.1179 32.3374C14.3618 32.4494 14.6123 32.5469 14.8681 32.6294C15.1965 32.7186 15.5337 32.7731 15.874 32.792C15.9891 32.792 16.0871 32.8171 16.1681 32.8296C16.9438 32.9964 17.7195 33.0882 18.4995 33.1841C18.7686 33.242 19.0425 33.2755 19.3179 33.2842L19.7015 33.3218C20.6964 33.3659 21.6932 33.3436 22.6851 33.255C23.0857 33.2454 23.4855 33.2147 23.8828 33.1633C24.0959 33.1424 24.309 33.1174 24.5178 33.0798C26.0625 32.828 27.5543 32.3291 28.9335 31.6032C29.104 31.5031 29.2745 31.4072 29.4535 31.3071C29.7528 31.1068 30.0376 30.8866 30.306 30.648C31.084 30.1143 31.7988 29.4973 32.4371 28.8085L32.5564 28.6876C33.5868 27.5608 34.4154 26.2719 35.0072 24.8751C35.2405 24.3124 35.4412 23.7372 35.6082 23.1524C35.6892 22.8646 35.7744 22.5768 35.8341 22.2848C35.8639 22.1388 35.8895 21.9886 35.9321 21.8677C35.9699 21.749 35.9844 21.6245 35.9748 21.5006L35.9236 21.1586C35.9225 20.8322 35.9553 20.5065 36.0216 20.1867C36.0216 19.8196 36.0771 19.4525 36.0813 19.0896C36.0984 18.3388 36.0259 17.613 36.0259 16.8831ZM33.4686 22.7228C33.0703 24.2309 32.3738 25.648 31.4184 26.894C30.1284 28.4944 28.4157 29.719 26.4657 30.4353L26.2227 30.4854C25.7752 30.6105 25.3191 30.6897 24.8673 30.7773C24.126 30.9649 23.3728 31.1042 22.6126 31.1945C22.1864 31.2278 21.8028 31.2612 21.3339 31.3029C21.0015 31.3279 20.6861 31.3029 20.3579 31.3279C20.2854 31.3279 20.2215 31.3279 20.1618 31.3279L19.8038 31.3279C18.9513 31.2695 18.0989 31.1361 17.2464 31.0068L16.394 30.8149C15.1055 30.5264 13.8512 30.107 12.6517 29.5635C11.999 29.2738 11.368 28.9393 10.7635 28.5624C9.84296 27.9894 8.99954 27.3056 8.25307 26.5269C6.83055 24.7719 5.89533 22.6871 5.53802 20.4745C5.30786 19.0354 4.88589 16.3575 5.78523 13.5127C6.34347 11.7933 7.28831 10.2181 8.55032 8.90289C9.81233 7.58772 11.3594 6.566 13.0779 5.91283L13.3209 5.83357C13.7471 5.70427 14.2202 5.6125 14.6763 5.51656C15.4159 5.31965 16.1676 5.16918 16.9268 5.06607C17.353 5.02019 17.7323 4.97848 18.2054 4.92842C18.5379 4.89923 18.849 4.89923 19.1772 4.88672C19.2497 4.88672 19.3136 4.88672 19.3733 4.88672L19.7271 4.86586C20.5795 4.94511 21.432 4.97848 22.2844 5.13698L23.1369 5.29132C24.4201 5.5716 25.671 5.97827 26.8706 6.50514C27.5245 6.78866 28.1532 7.1249 28.7502 7.51039C29.6696 8.07812 30.5068 8.76416 31.2394 9.55011C32.6445 11.3253 33.5418 13.4344 33.8394 15.6609C34.1737 18.0111 34.0479 20.402 33.4686 22.7061L33.4686 22.7228Z" fill="#AD93BE"/>
<path id="Vector_4" d="M5.34265 11.9434L5.36394 11.8516L5.34691 11.9393L5.34265 11.9434Z" fill="#AD93BE"/>
</g>
<defs>
<clipPath id="clip0_2300_14936">
<rect width="40" height="36" fill="white"/>
</clipPath>
</defs>
</svg>
