<svg width="72" height="72" viewBox="0 0 72 72" fill="none" xmlns="http://www.w3.org/2000/svg">
<path d="M36.9131 13.2868C51.9005 13.8931 60.1616 21.9457 60.1616 35.9478C60.1616 42.8447 57.9447 48.5099 53.7574 52.2994C49.3426 56.2973 42.9195 58.0973 35.6816 57.3773C21.6226 55.9941 14.0816 48.6047 13.3047 35.3983C12.9447 29.3731 14.9342 23.8404 18.9131 19.7857C23.3089 15.2952 29.7131 13.0025 36.9321 13.2868H36.9131Z" fill="#C6B3D2"/>
<path d="M50.65 43.2046C50.5742 43.053 50.0626 41.9541 47.5995 39.6615C45.0226 37.2551 45.3637 37.653 48.471 33.5036C50.3658 30.9646 51.1237 29.4299 50.8774 28.7667C50.65 28.1415 49.2668 28.312 49.2668 28.312H44.6247C44.6247 28.312 44.2837 28.312 44.0374 28.4446C43.791 28.5962 43.6205 28.9373 43.6205 28.9373C43.6205 28.9373 42.8816 30.8888 41.8963 32.5562C39.831 36.0615 39.0163 36.2509 38.6753 36.0236C37.8984 35.512 38.0879 33.9773 38.0879 32.8973C38.0879 29.5057 38.5995 28.0846 37.0837 27.7246C36.591 27.592 36.2121 27.5162 34.9237 27.4973C33.2753 27.4973 31.8731 27.4973 31.0774 27.8951C30.5468 28.1415 30.13 28.7288 30.3953 28.7667C30.6984 28.8046 31.3995 28.9562 31.7595 29.4488C32.2331 30.093 32.2142 31.552 32.2142 31.552C32.2142 31.552 32.4795 35.5499 31.57 36.0425C30.9447 36.3836 30.0921 35.7015 28.2353 32.5183C27.2879 30.8888 26.5868 29.0888 26.5868 29.0888C26.5868 29.0888 26.4353 28.7478 26.2079 28.5773C25.9047 28.3499 25.4879 28.293 25.4879 28.293L21.0732 28.3309C21.0732 28.3309 20.41 28.3309 20.1637 28.6341C19.9553 28.8804 20.1637 29.4109 20.1637 29.4109C20.1637 29.4109 23.6121 37.4825 27.5153 41.5562C31.0963 45.2888 35.17 45.0425 35.17 45.0425H37.0079C37.0079 45.0425 37.5763 44.9857 37.8416 44.6825C38.1068 44.3983 38.0879 43.8678 38.0879 43.8678C38.0879 43.8678 38.05 41.4046 39.2058 41.0257C40.3426 40.6657 41.7826 43.413 43.3363 44.4741C44.4921 45.2699 45.3826 45.0994 45.3826 45.0994L49.4942 45.0425C49.4942 45.0425 51.6542 44.9099 50.631 43.2236L50.65 43.2046ZM50.65 43.2046C50.5742 43.053 50.0626 41.9541 47.5995 39.6615C45.0226 37.2551 45.3637 37.653 48.471 33.5036C50.3658 30.9646 51.1237 29.4299 50.8774 28.7667C50.65 28.1415 49.2668 28.312 49.2668 28.312H44.6247C44.6247 28.312 44.2837 28.312 44.0374 28.4446C43.791 28.5962 43.6205 28.9373 43.6205 28.9373C43.6205 28.9373 42.8816 30.8888 41.8963 32.5562C39.831 36.0615 39.0163 36.2509 38.6753 36.0236C37.8984 35.512 38.0879 33.9773 38.0879 32.8973C38.0879 29.5057 38.5995 28.0846 37.0837 27.7246C36.591 27.592 36.2121 27.5162 34.9237 27.4973C33.2753 27.4973 31.8731 27.4973 31.0774 27.8951C30.5468 28.1415 30.13 28.7288 30.3953 28.7667C30.6984 28.8046 31.3995 28.9562 31.7595 29.4488C32.2331 30.093 32.2142 31.552 32.2142 31.552C32.2142 31.552 32.4795 35.5499 31.57 36.0425C30.9447 36.3836 30.0921 35.7015 28.2353 32.5183C27.2879 30.8888 26.5868 29.0888 26.5868 29.0888C26.5868 29.0888 26.4353 28.7478 26.2079 28.5773C25.9047 28.3499 25.4879 28.293 25.4879 28.293L21.0732 28.3309C21.0732 28.3309 20.41 28.3309 20.1637 28.6341C19.9553 28.8804 20.1637 29.4109 20.1637 29.4109C20.1637 29.4109 23.6121 37.4825 27.5153 41.5562C31.0963 45.2888 35.17 45.0425 35.17 45.0425H37.0079C37.0079 45.0425 37.5763 44.9857 37.8416 44.6825C38.1068 44.3983 38.0879 43.8678 38.0879 43.8678C38.0879 43.8678 38.05 41.4046 39.2058 41.0257C40.3426 40.6657 41.7826 43.413 43.3363 44.4741C44.4921 45.2699 45.3826 45.0994 45.3826 45.0994L49.4942 45.0425C49.4942 45.0425 51.6542 44.9099 50.631 43.2236L50.65 43.2046ZM50.65 43.2046C50.5742 43.053 50.0626 41.9541 47.5995 39.6615C45.0226 37.2551 45.3637 37.653 48.471 33.5036C50.3658 30.9646 51.1237 29.4299 50.8774 28.7667C50.65 28.1415 49.2668 28.312 49.2668 28.312H44.6247C44.6247 28.312 44.2837 28.312 44.0374 28.4446C43.791 28.5962 43.6205 28.9373 43.6205 28.9373C43.6205 28.9373 42.8816 30.8888 41.8963 32.5562C39.831 36.0615 39.0163 36.2509 38.6753 36.0236C37.8984 35.512 38.0879 33.9773 38.0879 32.8973C38.0879 29.5057 38.5995 28.0846 37.0837 27.7246C36.591 27.592 36.2121 27.5162 34.9237 27.4973C33.2753 27.4973 31.8731 27.4973 31.0774 27.8951C30.5468 28.1415 30.13 28.7288 30.3953 28.7667C30.6984 28.8046 31.3995 28.9562 31.7595 29.4488C32.2331 30.093 32.2142 31.552 32.2142 31.552C32.2142 31.552 32.4795 35.5499 31.57 36.0425C30.9447 36.3836 30.0921 35.7015 28.2353 32.5183C27.2879 30.8888 26.5868 29.0888 26.5868 29.0888C26.5868 29.0888 26.4353 28.7478 26.2079 28.5773C25.9047 28.3499 25.4879 28.293 25.4879 28.293L21.0732 28.3309C21.0732 28.3309 20.41 28.3309 20.1637 28.6341C19.9553 28.8804 20.1637 29.4109 20.1637 29.4109C20.1637 29.4109 23.6121 37.4825 27.5153 41.5562C31.0963 45.2888 35.17 45.0425 35.17 45.0425H37.0079C37.0079 45.0425 37.5763 44.9857 37.8416 44.6825C38.1068 44.3983 38.0879 43.8678 38.0879 43.8678C38.0879 43.8678 38.05 41.4046 39.2058 41.0257C40.3426 40.6657 41.7826 43.413 43.3363 44.4741C44.4921 45.2699 45.3826 45.0994 45.3826 45.0994L49.4942 45.0425C49.4942 45.0425 51.6542 44.9099 50.631 43.2236L50.65 43.2046Z" fill="white"/>
<path d="M37.0292 64.6674C38.905 64.7621 40.8187 64.7242 42.6945 64.5347C43.4524 64.5158 44.2103 64.4589 44.9681 64.3642C45.366 64.3263 45.7639 64.2695 46.1618 64.1937C49.0608 63.7389 51.8839 62.7158 54.5176 61.3326C54.8397 61.1432 55.1618 60.9537 55.5029 60.7453C56.0903 60.3853 56.6018 59.9116 57.1324 59.4758C58.5913 58.4526 59.9366 57.24 61.1303 55.9137L61.3576 55.6863C63.3281 53.5263 64.8818 50.9874 65.9997 48.2968C66.4355 47.1979 66.8334 46.0989 67.1366 44.9621C67.2881 44.4126 67.4397 43.8442 67.5534 43.2758C67.6103 42.9916 67.6671 42.7074 67.7429 42.4232C67.7997 42.1768 67.8566 41.9684 67.8376 41.7032C67.7997 41.4947 67.7618 41.2295 67.7429 41.04C67.686 40.4147 67.8566 39.7705 67.9324 39.1453C67.9703 38.4442 68.046 37.7242 68.046 37.0232C68.1218 35.6021 67.9892 34.2 67.9703 32.7789C67.9324 31.9832 67.7997 31.1684 67.7239 30.3726C67.6481 29.4442 67.5724 28.5158 67.4208 27.5874C67.3071 26.621 67.0418 25.6547 66.7197 24.7074C66.4166 23.5137 65.8103 22.4147 65.2987 21.2968C64.7113 20.1221 64.1618 18.9853 63.5366 17.8295C62.9113 16.8063 62.1534 15.7832 61.2818 14.9305C60.4103 13.9074 59.3871 13.0358 58.3639 12.1832C57.2081 11.3684 56.1281 10.4589 54.8397 9.85262C53.5513 9.15157 52.225 8.6021 50.8608 8.10947C50.766 7.97684 50.8987 8.2042 50.7471 8.16631C50.3871 8.05262 50.0271 7.99578 49.6481 7.93894L49.3071 7.82526L47.8481 7.37052C47.3934 7.14315 46.9197 6.93473 46.4081 6.82105C45.7829 6.66947 45.1197 6.61263 44.4945 6.53684C44.286 6.49894 44.0966 6.47999 43.945 6.46105C42.4671 6.27157 40.9892 5.96841 39.4924 5.91157C39.0376 5.85473 38.7534 5.79789 37.9387 5.75999L37.2187 5.6842L37.0671 9.51157C38.6776 9.66315 40.326 9.73894 41.8987 10.0421L43.4903 10.3453C45.9345 10.9705 48.3597 11.6337 50.5576 12.6947C51.7892 13.2632 53.0018 13.8884 54.1197 14.6274C55.9008 15.6695 57.3976 17.1095 58.8376 18.5874C61.4713 21.941 63.1576 26.0337 63.7639 30.4105C64.1429 33.1768 64.5597 38.4442 63.1008 44.0716C62.3618 46.8758 61.0924 49.7179 59.2166 52.1621C57.3597 54.6063 54.8776 56.5768 52.206 57.96C51.4292 58.3579 50.6334 58.6989 49.8187 59.021L49.3639 59.1726C48.5113 59.4189 47.6587 59.5705 46.806 59.741C45.4039 60.0253 44.0018 60.4231 42.5429 60.5179C41.7471 60.5937 41.0081 60.6505 40.1366 60.7263C39.5113 60.7831 38.905 60.7453 38.2797 60.7831C38.1471 60.7831 38.0334 60.7831 37.9008 60.7831H37.2376L37.0103 64.6295L37.0292 64.6674Z" fill="#C6B3D2"/>
<path d="M37.2376 5.72213C35.3429 5.66529 33.4481 5.74108 31.5723 5.96844C30.8144 6.00634 30.0566 6.08213 29.2987 6.19581C28.9008 6.25266 28.5029 6.3095 28.105 6.38529C25.206 6.89687 22.4208 7.95792 19.806 9.34108C19.465 9.5116 19.1429 9.70108 18.8208 9.9095C18.2334 10.2695 17.7218 10.7242 17.2102 11.16C15.7513 12.1832 14.406 13.339 13.1555 14.6084L12.9281 14.8358C10.9008 16.9011 9.1955 19.3453 7.96392 21.979C7.45234 23.04 7.0355 24.1579 6.65655 25.2758C6.50498 25.8442 6.3155 26.3937 6.18287 26.9621C6.10708 27.2463 6.06919 27.5305 5.97445 27.8148C5.89866 28.0611 5.84182 28.2695 5.87971 28.5348C5.89866 28.7432 5.93655 29.0084 5.97445 29.1979C6.03129 29.8232 5.84182 30.4863 5.78498 31.1116C5.72813 31.8316 5.69024 32.5516 5.69024 33.2716C5.65234 34.7305 5.80392 36.1327 5.93655 37.5348C5.97445 38.3306 6.12603 39.1263 6.25866 39.9411C6.39129 40.8505 6.42919 41.779 6.63761 42.7074C6.80813 43.6737 7.05445 44.6211 7.41445 45.5495C7.77445 46.7242 8.36182 47.8232 8.93024 48.9221C9.53655 50.0779 10.105 51.2148 10.7492 52.3516C11.3744 53.3748 12.1702 54.36 13.0229 55.2127C13.8944 56.2358 14.9555 57.0695 15.9597 57.9411C17.1155 58.7558 18.2144 59.6274 19.4839 60.2337C20.7534 60.9727 22.1176 61.4463 23.4439 61.9769C23.5387 62.0905 23.406 61.8821 23.5576 61.92C23.8797 61.9769 24.2966 62.0716 24.6566 62.1474L24.9976 62.2611L24.8271 62.2232L25.0166 62.2611C25.4902 62.4316 25.9829 62.6211 26.4755 62.7348C26.9492 62.9432 27.4039 63.1516 27.8966 63.3032C28.5218 63.4927 29.166 63.5684 29.8102 63.6253C30.0376 63.6442 30.2081 63.6821 30.3597 63.7011C31.8187 64.0232 33.2966 64.2127 34.7745 64.3832C35.2292 64.459 35.5134 64.5348 36.3281 64.5727L37.0481 64.6484L37.2755 60.8211C35.6839 60.7074 34.0544 60.4421 32.4439 60.1958L30.8523 59.8169C28.3892 59.2295 26.0018 58.4527 23.766 57.3916C22.4966 56.8421 21.3408 56.16 20.185 55.459C18.4418 54.3411 16.8502 53.0337 15.4292 51.5179C12.7197 48.2211 10.9576 44.1284 10.2187 39.7705C9.78287 36.9853 8.98708 31.7937 10.6734 26.28C12.2271 20.7474 16.6608 15.3663 22.0987 12.6569C22.8755 12.24 23.6713 11.88 24.486 11.5769L24.9408 11.4253C25.7934 11.179 26.646 11.0084 27.5176 10.819C28.9197 10.4969 30.3218 10.08 31.7808 9.94739C32.5766 9.85266 33.3155 9.77687 34.1871 9.68213C34.8123 9.62529 35.4187 9.62529 36.025 9.58739C36.1576 9.58739 36.2713 9.58739 36.4039 9.58739L37.0671 9.5495L37.2187 5.72213H37.2376Z" fill="#C6B3D2"/>
</svg>
