<svg width="118" height="210" viewBox="0 0 118 210" fill="none" xmlns="http://www.w3.org/2000/svg">
<g clip-path="url(#clip0_2201_5071)">
<mask id="mask0_2201_5071" style="mask-type:luminance" maskUnits="userSpaceOnUse" x="-6" y="0" width="111" height="210">
<path d="M104.182 0H-5.50635V210H104.182V0Z" fill="white"/>
</mask>
<g mask="url(#mask0_2201_5071)">
<path d="M11.0876 42.6081C10.9507 42.4522 10.7944 42.2768 10.6185 42.1209L9.26985 40.8929C6.96352 38.9048 4.48127 37.1895 1.86221 35.7277C-0.111862 34.3828 -2.26184 33.3108 -4.47045 32.3557C-5.64317 31.8489 -6.81588 31.4006 -8.02769 30.9913C-12.3863 29.5099 -17.1553 28.7888 -21.8266 28.8862C-26.322 28.9447 -30.837 29.6269 -35.1956 30.6989C-36.3292 30.9133 -37.4237 31.2642 -38.5183 31.6735C-39.5151 32.0438 -40.4728 32.4531 -41.4109 32.8819C-42.3296 33.3692 -43.2091 33.8955 -44.1082 34.4023C-49.014 36.5463 -53.6658 39.2946 -57.7508 42.6861L-58.513 43.2514C-65.2366 48.7284 -70.9047 55.375 -75.1656 62.8012C-76.9637 65.7834 -78.4492 68.9215 -79.8173 72.1181C-80.4623 73.7164 -81.0682 75.3342 -81.635 76.9714C-81.8891 77.7901 -82.1041 78.6477 -82.4168 79.4468C-82.71 80.168 -82.9055 80.7528 -82.8468 81.5714C-82.7882 82.2536 -82.6514 82.9163 -82.6123 83.5985C-82.5537 84.5536 -82.7296 85.4892 -82.9446 86.4442L-83.2964 87.8476C-83.3746 88.3154 -83.4332 88.8027 -83.4723 89.2705C-83.6482 91.4145 -83.8632 93.5586 -83.9805 95.7026L-83.8437 102.135C-83.7459 104.279 -83.355 106.384 -83.1205 108.508C-82.925 110.945 -82.1823 113.264 -81.6937 115.642C-81.1855 118.371 -80.5601 121.022 -79.8369 123.731L-79.2114 125.817L-78.3905 127.824L-76.6901 131.801C-76.0256 133.477 -75.0483 134.958 -74.1297 136.498C-73.1915 138.018 -72.2924 139.558 -71.3347 141.02C-70.2597 142.56 -69.302 144.119 -68.3834 145.698C-67.9338 146.497 -67.4843 147.296 -67.0152 148.095C-66.5266 148.875 -66.0379 149.635 -65.5298 150.434C-64.6307 151.857 -63.6143 153.241 -62.5393 154.606C-61.4644 155.97 -60.233 157.178 -59.1385 158.465C-57.8876 159.849 -56.6953 161.311 -55.4053 162.655L-51.4572 166.593C-50.7536 167.294 -50.0499 167.996 -49.3659 168.678C-48.6622 169.361 -47.9195 170.004 -47.1963 170.647C-45.75 171.953 -44.2841 173.259 -42.74 174.506C-39.5346 177.021 -36.2315 179.418 -32.9479 181.777C-32.7915 182.186 -32.987 181.465 -32.5765 181.679C-31.6383 182.186 -30.6611 182.615 -29.6838 183.082L-28.8629 183.667L-29.332 183.414L-28.8434 183.667L-25.2861 186.201C-24.2307 187.234 -23.1557 188.209 -21.9439 189.047C-20.4194 190.099 -18.6994 190.801 -17.0576 191.639C-16.5103 191.932 -16.0608 192.185 -15.6308 192.399C-11.4676 194.914 -6.81588 196.707 -2.00775 197.584C-0.522316 197.896 0.396317 198.227 3.05447 198.305C3.83627 198.383 4.63763 198.403 5.41943 198.442V186.143C1.39312 186.084 -2.61366 185.149 -6.22952 183.453C-6.83543 183.141 -7.42178 182.81 -7.98859 182.478C-8.57495 182.127 -9.08312 181.796 -9.78675 181.289C-16.0021 177.079 -22.1198 172.752 -27.9052 168.074L-32.7329 164.195L-37.3846 160.141C-39.8473 158.153 -41.9973 155.872 -44.3427 153.767C-46.6686 151.643 -48.7013 149.265 -50.9099 147.023C-59.1385 137.083 -65.6666 125.817 -69.1065 113.849C-69.9665 109.97 -71.3347 104.552 -71.2565 98.0416C-71.2761 91.551 -70.3184 84.0663 -67.2302 76.4257C-64.2593 68.7656 -59.373 61.1834 -53.099 55.0826C-49.9913 52.003 -46.395 49.4691 -42.6423 47.3835C-40.7855 46.2725 -38.7919 45.5124 -36.8374 44.6742C-34.8242 44.031 -32.8501 43.2903 -30.7783 42.9005C-28.4329 42.2963 -26.0679 41.9844 -23.6639 41.8285H-22.3348C-21.0839 41.887 -19.9698 42.0429 -18.8948 42.2183C-17.8003 42.4132 -16.6862 42.6666 -15.5917 42.9005C-11.9954 43.7192 -8.24268 44.5768 -4.95908 46.4479C-3.16093 47.4615 -1.44094 48.592 0.259499 49.742C1.45175 50.4437 3.79718 53.0945 6.3576 55.8428C6.86578 56.2131 7.37396 56.3106 7.86259 56.6029C8.74213 56.9733 9.71939 57.519 10.3839 57.4606L11.1266 42.5107L11.0876 42.6081Z" fill="#E7DEEC"/>
<path d="M5.38037 198.461C11.5371 198.403 17.6548 196.941 23.147 194.193C23.7138 193.959 24.2611 193.705 24.8279 193.452L26.2938 192.711L29.1474 191.21L32.1573 189.612C35.8514 187.76 39.2523 185.382 42.7313 183.18C46.1713 180.919 49.4744 178.385 52.8753 176.007C53.7157 175.344 54.5562 174.701 55.3575 173.999C56.8234 172.733 58.133 171.329 59.462 169.965C61.397 168.405 63.2147 166.671 65.0911 165.033C66.0097 164.195 66.9674 163.396 67.8665 162.519L70.5246 159.849L71.1696 159.225C74.1991 156.477 76.8964 153.358 79.6914 150.337C81.0791 148.817 82.3104 147.121 83.62 145.523C84.9295 143.905 86.2195 142.287 87.3531 140.533L90.2067 136.323C91.1449 134.919 91.9267 133.379 92.7867 131.918C93.588 130.436 94.5262 129.033 95.1907 127.454C95.5425 126.694 95.8553 125.875 96.2462 125.135C96.6175 124.472 96.9303 123.946 97.0084 123.166C97.0866 122.503 97.0671 121.86 97.1648 121.197C97.3407 119.326 98.2593 117.572 98.8457 115.798C99.5689 113.81 99.9793 111.705 100.429 109.619L101.093 106.481C101.308 105.429 101.347 104.357 101.484 103.285L101.817 100.088L101.992 98.4899V96.8721V93.1883C101.992 91.9603 101.992 90.7323 101.817 89.5044C101.445 86.7171 101.719 83.8519 101.172 81.0061C100.663 78.0824 99.8816 75.2367 98.9043 72.4689C97.673 69.019 96.0116 65.7444 94.1548 62.5868C92.2003 59.2148 90.4608 55.9013 88.2326 52.6072C86.2977 49.5861 83.444 46.9937 80.7077 44.5573C79.1832 43.2319 77.5414 42.0039 75.9191 40.7955C74.1991 39.7234 72.5573 38.515 70.7396 37.6184C66.9479 35.5718 63.0779 33.7591 58.8561 32.7065C54.5366 31.5955 50.0999 31.0108 45.7022 30.8938C45.3113 30.621 45.9172 31.1472 45.4286 31.1667C44.2949 31.2447 43.1613 31.4396 42.0277 31.5955H40.8941L41.4804 31.5371L40.8745 31.615C39.2327 31.654 37.6496 31.8099 36.0468 32.0048C34.4441 32.0048 32.8219 32.0048 31.2192 32.2972C29.206 32.7065 27.3492 33.5642 25.512 34.4023C24.8865 34.6752 24.3783 34.9091 23.8897 35.1235C21.6811 36.0006 19.5311 37.0141 17.4398 38.2226C16.4039 38.8463 15.368 39.47 14.3712 40.1912L12.9053 41.2438L12.2408 41.809C11.8694 42.0624 11.8889 42.0234 11.7717 42.0819C11.6739 42.1404 11.5762 42.2183 11.4394 42.4132C11.3417 42.4327 11.283 42.6276 11.1853 42.5302L10.4426 57.4801C10.5794 57.4996 10.8726 57.5385 11.0485 57.519L11.5371 57.4606C11.8303 57.4606 12.2408 57.2851 12.6512 57.1097C13.4721 56.7199 14.2735 56.5445 15.0944 55.9792L17.5961 53.4454C18.3975 52.6462 19.023 52.1784 19.7461 51.5352C20.567 50.775 20.8211 50.6776 21.2706 50.3657C21.6811 50.0733 22.0915 49.8005 22.5411 49.5471C23.3815 49.0013 24.3002 48.5335 25.2188 48.0462C26.4892 47.481 27.7988 46.9742 29.1474 46.5454C32.2746 45.5319 35.5778 44.8886 38.8223 44.6353C41.93 44.4208 45.3895 44.6158 48.6926 45.103C52.3671 45.6488 55.9439 46.5844 59.3839 47.9293C64.622 50.0733 69.606 52.9386 73.8864 56.8368C78.0691 61.0665 81.5482 66.1342 84.1086 71.7088C85.4181 74.4765 86.4931 77.3808 87.3726 80.3434C87.8026 81.8248 88.174 83.3061 88.4867 84.7875C88.819 86.2493 88.8972 87.7891 89.1122 89.2705C89.6594 93.1298 89.5422 98.5679 88.5453 105C87.5095 111.432 84.8708 118.761 80.8836 126.148C76.8768 133.555 71.4042 140.962 65.0715 147.842C58.6607 154.684 51.3703 160.921 44.0604 166.495L37.5714 171.134C37.1609 171.407 36.7309 171.66 36.3009 171.894C33.936 173.2 31.5319 174.35 29.2256 175.715C27.3492 176.865 25.4338 177.937 23.577 179.145L20.782 180.899C19.8634 181.465 18.8275 182.108 18.0848 182.459C16.2866 183.316 14.4494 184.096 12.573 184.798C11.0876 185.343 9.60214 185.46 8.07762 185.792C7.76489 185.85 7.47171 185.909 7.15899 185.928C6.61172 186.026 6.04491 186.084 5.49765 186.143V198.442L5.38037 198.461Z" fill="#E7DEEC"/>
<path d="M9.4457 76.8155C9.28934 76.5816 9.13297 76.3282 8.95707 76.0748C8.85934 75.9384 8.8007 75.8799 8.64434 75.6655L7.9798 74.8274L7.02208 73.7359C4.46166 70.8316 1.52987 68.2003 -1.77327 65.9978C-4.27506 64.0876 -7.14821 62.5088 -10.2168 61.3393C-11.0182 61.008 -11.8586 60.7156 -12.7186 60.5012C-13.559 60.2478 -14.419 59.9944 -15.2986 59.8385C-18.4844 59.1758 -21.8658 58.9809 -25.2276 59.5266C-28.5893 60.0529 -31.8534 61.2029 -34.7461 62.8402C-40.5901 66.1537 -44.7532 71.046 -47.9196 76.1723C-48.7405 77.4977 -49.4636 78.8621 -50.0891 80.2655C-51.2227 82.8383 -51.9459 85.5086 -52.3759 88.3544C-54.174 95.6831 -53.4704 103.226 -51.4573 109.912L-51.1054 111.12C-50.3627 113.908 -49.1509 116.441 -48.0759 119.053C-46.7859 121.509 -45.5937 124.063 -44.0692 126.363C-41.2546 131.138 -37.8342 135.368 -34.3356 139.539L-29.8793 144.353L-25.1885 148.914C-23.6053 150.376 -21.983 151.76 -20.3803 153.183C-19.5985 153.904 -18.6994 154.528 -17.9176 155.229C-17.214 155.872 -16.6472 156.399 -15.7677 156.789C-15.0249 157.139 -14.2431 157.373 -13.5004 157.724C-11.3895 158.699 -9.57182 160.375 -7.67593 161.7C-6.60094 162.48 -5.46732 163.162 -4.35324 163.864L-0.639645 166.222C2.60486 168.561 7.10027 168.854 10.5793 166.827L15.0747 164.254C16.3647 163.513 17.6547 162.811 18.9056 162.012C21.4465 160.394 24.046 158.933 26.5087 157.198C27.9355 156.243 29.4209 155.366 30.9064 154.489C32.3723 153.592 33.8382 152.656 35.2845 151.662L37.5126 150.103L39.6626 148.407C41.0699 147.257 42.5162 146.146 43.8844 144.938C45.5653 143.398 47.2462 141.858 48.8293 140.221C50.3734 138.525 51.937 136.868 53.4616 135.153C56.6279 131.43 59.8724 128.039 62.9019 124.024C63.586 123.127 64.2505 122.172 64.8955 121.217C65.521 120.242 66.0682 119.151 66.6351 118.118C67.8078 116.071 68.6873 113.771 69.6059 111.569C71.4236 106.598 72.9482 101.238 72.7918 95.5077C72.9091 94.0069 72.6159 92.4865 72.4791 90.9857L72.2054 88.7247C72.0491 87.9256 71.8927 87.2239 71.7168 86.5027C70.9936 83.6764 70.0164 80.9866 68.6678 78.3163C67.28 75.5875 65.5601 72.9367 63.371 70.5198C61.2015 68.1028 58.5238 65.9393 55.4747 64.38C55.0252 63.8537 55.6897 64.7698 54.9861 64.458C54.1847 64.0876 53.3638 63.7952 52.5038 63.5808C51.6634 63.3664 50.823 63.0936 49.963 62.9961L48.3603 62.5868L49.2007 62.7232L48.3407 62.5673C47.2071 62.2749 46.0539 62.197 44.9007 62.0215C43.7671 61.9241 42.6335 61.9241 41.4999 61.8851C40.3858 61.8266 39.2717 61.7876 38.1381 61.7681C37.0436 61.8266 35.9295 61.9241 34.8154 62.0995C32.0986 62.6648 29.5577 63.7563 27.1928 64.9647C26.411 65.3741 25.7073 65.6664 25.121 65.9978C22.3651 67.3622 19.6874 68.8435 17.2638 70.5977C15.9934 71.4164 14.8597 72.3909 13.6675 73.2875C13.0616 73.7358 12.5143 74.2426 11.967 74.7299L10.638 75.8994C10.462 76.0163 10.3252 76.0748 10.1493 76.1918C10.0711 76.2502 9.95387 76.3477 9.81705 76.5621C9.69978 76.6206 9.62161 76.835 9.48479 76.718L7.62799 92.3111C7.82344 92.3696 8.29252 92.4281 8.48798 92.3891L9.26979 92.0967L10.853 91.5315L12.4361 90.9662L12.827 90.8298C12.9638 90.7908 13.0811 90.7323 13.2375 90.5569L14.1366 89.7188C15.7197 88.1205 17.127 86.5222 18.886 84.9044C19.6874 84.2417 20.4497 83.5205 21.2706 82.8773C22.8928 81.5909 24.5737 80.4019 26.3132 79.3494C27.9355 78.4138 29.6164 77.5951 31.2973 76.9129C35.2259 75.3341 39.2913 74.457 42.8681 74.7494C46.5035 75.0028 49.2789 76.3087 51.7025 78.6867C54.3802 81.3375 56.5302 85.5086 57.7615 89.8747C57.9961 90.7323 58.172 91.4145 58.2306 92.2526L58.5629 94.6696C58.4651 96.3458 58.6801 98.0026 58.3088 99.7178C57.9765 103.148 56.7061 106.657 55.2597 110.126C51.722 117.124 46.5425 123.653 40.6203 129.54C34.6981 135.446 28.0332 140.767 21.0165 145.62C19.6483 146.497 18.202 147.589 15.7393 149.07C14.5275 149.83 13.1007 150.707 11.3611 151.799C9.77797 152.715 7.92117 153.767 5.71255 155.054C5.61483 155.112 5.49756 155.151 5.36074 155.112C5.14574 155.015 5.61483 155.268 3.73848 154.079C0.963058 152.384 -1.96872 150.298 -5.1546 148.076C-11.3895 143.495 -18.2695 137.784 -24.6217 130.865C-27.6903 127.357 -30.7979 123.653 -33.3193 119.56C-34.707 117.572 -35.7233 115.428 -36.8961 113.323C-37.8342 111.159 -38.8506 108.996 -39.476 106.754C-40.8442 102.33 -41.411 97.8077 -40.8246 93.617C-40.3556 89.5433 -38.4206 85.1578 -36.0361 81.5324C-34.4138 79.057 -32.4593 76.9129 -30.3093 75.3341C-29.8989 75.0613 -29.508 74.7689 -29.0584 74.574C-26.7325 73.3265 -24.348 72.8977 -21.9635 72.7808C-18.0545 72.6248 -13.5395 73.5604 -9.57182 76.1918C-7.40229 77.6146 -5.3305 79.3104 -3.33689 81.1426C-2.96553 81.5324 -2.61371 81.9222 -2.24236 82.2926L-1.71464 82.8773L-1.06964 83.7154C-0.385559 84.5341 0.27898 85.5671 0.963062 86.5612C1.64715 87.4773 2.35077 88.3739 3.03485 89.3094L3.8753 90.3815L4.28575 90.9272C4.42257 91.0442 4.55939 91.0637 4.6962 91.1416L7.5889 92.3696L9.4457 76.7765V76.8155Z" fill="#E7DEEC"/>
</g>
</g>
<defs>
<clipPath id="clip0_2201_5071">
<rect width="118" height="210" fill="white"/>
</clipPath>
</defs>
</svg>
