<svg width="25" height="24" viewBox="0 0 25 24" fill="none" xmlns="http://www.w3.org/2000/svg">
<path d="M15.8452 6.17871H9.35547V17.8409H15.8452V6.17871Z" fill="#FF5F00"/>
<path d="M9.76747 12.0105C9.76644 10.8874 10.021 9.77873 10.5117 8.76848C11.0025 7.75824 11.7167 6.87289 12.6002 6.17946C11.5061 5.31945 10.1921 4.78462 8.80839 4.63611C7.42467 4.48759 6.02708 4.73138 4.77537 5.33961C3.52366 5.94784 2.46832 6.89597 1.72998 8.07562C0.991643 9.25528 0.600098 10.6189 0.600098 12.0105C0.600098 13.4022 0.991643 14.7658 1.72998 15.9455C2.46832 17.1251 3.52366 18.0732 4.77537 18.6815C6.02708 19.2897 7.42467 19.5335 8.80839 19.385C10.1921 19.2365 11.5061 18.7016 12.6002 17.8416C11.7167 17.1482 11.0025 16.2628 10.5118 15.2526C10.021 14.2423 9.76645 13.1337 9.76747 12.0105Z" fill="#EB001B"/>
<path d="M24.6001 12.0105C24.6002 13.4022 24.2087 14.7658 23.4704 15.9454C22.7321 17.1251 21.6768 18.0732 20.4251 18.6814C19.1734 19.2897 17.7758 19.5335 16.3921 19.385C15.0084 19.2365 13.6944 18.7016 12.6003 17.8416C13.4831 17.1475 14.1967 16.262 14.6874 15.2519C15.1781 14.2418 15.4331 13.1335 15.4331 12.0105C15.4331 10.8876 15.1781 9.77925 14.6874 8.76917C14.1967 7.75908 13.4831 6.87359 12.6003 6.17946C13.6944 5.31945 15.0084 4.78462 16.3921 4.63611C17.7758 4.48759 19.1734 4.73139 20.4251 5.33962C21.6768 5.94786 22.7321 6.89599 23.4704 8.07565C24.2087 9.25531 24.6002 10.6189 24.6001 12.0105Z" fill="#F79E1B"/>
<path d="M23.8926 16.6062V16.3675H23.9888V16.3188H23.7437V16.3675H23.84V16.6062H23.8926ZM24.3686 16.6062V16.3184H24.2934L24.207 16.5164L24.1205 16.3184H24.0453V16.6062H24.0984V16.3891L24.1795 16.5763H24.2345L24.3155 16.3886V16.6062H24.3686Z" fill="#F79E1B"/>
</svg>
