<svg width="152" height="40" viewBox="0 0 152 40" fill="none" xmlns="http://www.w3.org/2000/svg">
<path d="M25.4084 10.2988H14.5923V29.7357H25.4084V10.2988Z" fill="#FF5F00"/>
<path d="M15.279 20.0176C15.2772 18.1456 15.7014 16.2979 16.5194 14.6141C17.3374 12.9304 18.5277 11.4548 20.0002 10.2991C18.1767 8.86575 15.9867 7.97437 13.6805 7.72685C11.3743 7.47932 9.04498 7.88564 6.95879 8.89935C4.8726 9.91307 3.1137 11.4933 1.88314 13.4594C0.652576 15.4255 0 17.6981 0 20.0176C0 22.337 0.652576 24.6097 1.88314 26.5758C3.1137 28.5418 4.8726 30.1221 6.95879 31.1358C9.04498 32.1495 11.3743 32.5558 13.6805 32.3083C15.9867 32.0608 18.1767 31.1694 20.0002 29.736C18.5277 28.5803 17.3374 27.1047 16.5194 25.421C15.7014 23.7372 15.2773 21.8895 15.279 20.0176Z" fill="#EB001B"/>
<path d="M40.0001 20.0176C40.0002 22.337 39.3477 24.6096 38.1172 26.5757C36.8867 28.5418 35.1279 30.122 33.0417 31.1357C30.9556 32.1495 28.6263 32.5558 26.3201 32.3083C24.014 32.0608 21.824 31.1694 20.0005 29.736C21.4717 28.5791 22.6611 27.1033 23.479 25.4198C24.2968 23.7364 24.7217 21.8892 24.7217 20.0176C24.7217 18.1459 24.2968 16.2988 23.479 14.6153C22.6611 12.9318 21.4717 11.456 20.0005 10.2991C21.824 8.86575 24.014 7.97437 26.3201 7.72685C28.6263 7.47932 30.9556 7.88565 33.0417 8.89937C35.1279 9.9131 36.8867 11.4933 38.1172 13.4594C39.3477 15.4255 40.0002 17.6981 40.0001 20.0176Z" fill="#F79E1B"/>
<path d="M38.8207 27.6771V27.2791H38.9812V27.1981H38.5725V27.2791H38.733V27.6771H38.8207ZM39.6141 27.6771V27.1973H39.4888L39.3447 27.5273L39.2006 27.1973H39.0753V27.6771H39.1637V27.3152L39.2988 27.6272H39.3906L39.5257 27.3144V27.6771H39.6141Z" fill="#F79E1B"/>
<path d="M75.8054 13.7438L73.1331 26.2375H69.9007L72.5733 13.7438H75.8054ZM89.4037 21.8111L91.1049 17.1195L92.0839 21.8111H89.4037ZM93.0112 26.2375H96L93.3889 13.7438H90.632C90.0107 13.7438 89.4869 14.104 89.2551 14.6596L84.4052 26.2375H87.7998L88.4736 24.3716H92.6198L93.0112 26.2375ZM84.5736 22.1587C84.5876 18.8614 80.0154 18.6788 80.046 17.2055C80.0559 16.7578 80.483 16.281 81.4165 16.159C81.8793 16.0995 83.1565 16.0511 84.6042 16.7182L85.1704 14.0678C84.3929 13.7865 83.3922 13.5156 82.1471 13.5156C78.9518 13.5156 76.7041 15.2129 76.6861 17.6453C76.6656 19.444 78.2917 20.4469 79.5144 21.046C80.775 21.6583 81.1973 22.0508 81.1911 22.5979C81.1824 23.4362 80.186 23.8074 79.2581 23.8214C77.6322 23.8467 76.6897 23.3819 75.9386 23.0318L75.3519 25.7707C76.1083 26.1169 77.5021 26.4182 78.9453 26.4336C82.3424 26.4336 84.5634 24.7563 84.5736 22.1587ZM71.1868 13.7438L65.9498 26.2375H62.5336L59.9562 16.2666C59.8 15.6535 59.6637 15.4281 59.1885 15.169C58.4113 14.747 57.1282 14.3522 56 14.1066L56.0764 13.7438H61.5762C62.2768 13.7438 62.9071 14.21 63.0675 15.017L64.429 22.2472L67.7912 13.7438H71.1868Z" fill="#1434CB"/>
<path fill-rule="evenodd" clip-rule="evenodd" d="M115.699 14.5331C116.056 14.531 117.118 14.4353 117.568 15.9536C117.871 16.9763 118.354 18.6516 119.016 20.9794H119.286C119.996 18.5253 120.484 16.85 120.75 15.9536C121.205 14.4195 122.341 14.5331 122.795 14.5331L126.302 14.5331V25.4422H122.728V19.0133H122.488L120.496 25.4422H117.807L115.814 19.0086H115.574V25.4422H112V14.5331L115.699 14.5331ZM131.435 14.5331V20.9668H131.72L134.144 15.6765C134.614 14.6237 135.617 14.5331 135.617 14.5331H139.076V25.4422H135.427V19.0086H135.142L132.766 24.2989C132.295 25.347 131.245 25.4422 131.245 25.4422H127.786V14.5331H131.435ZM151.689 19.7172C151.18 21.1596 149.581 22.1926 147.812 22.1926H143.985V25.4422H140.515V19.7172H151.689Z" fill="#0F754E"/>
<path fill-rule="evenodd" clip-rule="evenodd" d="M147.979 14.5332H140.333C140.515 16.9619 142.606 19.0411 144.771 19.0411H151.93C152.343 17.0225 150.921 14.5332 147.979 14.5332Z" fill="url(#paint0_linear_1186_124338)"/>
<defs>
<linearGradient id="paint0_linear_1186_124338" x1="152" y1="17.3689" x2="140.333" y2="17.3689" gradientUnits="userSpaceOnUse">
<stop stop-color="#1F5CD7"/>
<stop offset="1" stop-color="#02AEFF"/>
</linearGradient>
</defs>
</svg>
