<svg width="27" height="323" viewBox="0 0 27 323" fill="none" xmlns="http://www.w3.org/2000/svg">
<path d="M1.32295 -2.00024H24.5517C24.9383 -0.81073 25.5053 6.9169 24.629 12.8474C23.3662 21.3366 24.9383 29.4408 24.9469 38.1269C24.9641 57.6898 23.77 69.6192 24.3455 89.1822C25.0328 112.767 27.9364 136.301 26.6993 159.835C25.9176 174.597 23.5123 189.162 23.2545 203.95C22.9882 219.61 25.1359 235.168 25.2132 250.829C25.2819 265.659 23.5037 280.344 23.4693 295.166C23.4693 297.169 25.5224 325.991 25.2132 325.991H1.97583C2.29368 326 0.240546 297.169 0.240546 295.175C0.266317 280.361 2.05315 265.668 1.97583 250.837C1.90711 235.177 -0.240523 219.619 0.0257828 203.958C0.274908 189.17 2.68025 174.605 3.46199 159.843C4.70762 136.309 1.79543 112.767 1.10819 89.1907C0.541214 69.6278 1.7353 57.6984 1.71811 38.1354C1.70952 29.4493 0.13746 21.3452 1.39168 12.8559C2.2765 6.91687 1.70952 -0.81073 1.32295 -1.99167V-2.00024Z" fill="#7F658F"/>
</svg>
