<svg width="464" height="27" viewBox="0 0 464 27" fill="none" xmlns="http://www.w3.org/2000/svg">
<g clip-path="url(#clip0_2201_2957)">
<path d="M466.874 1.32295V24.5517C465.165 24.9383 454.064 25.5053 445.544 24.629C433.349 23.3662 421.707 24.9383 409.23 24.9469C381.127 24.9641 363.99 23.77 335.887 24.3455C302.006 25.0328 268.199 27.9364 234.392 26.6993C213.186 25.9176 192.263 23.5123 171.02 23.2545C148.523 22.9882 126.173 25.1359 103.676 25.2132C82.3718 25.2819 61.2763 23.5037 39.9841 23.4693C37.1074 23.4693 -4.29687 25.5224 -4.29687 25.2132L-4.29687 1.97583C-4.30917 2.29368 37.1074 0.240546 39.9718 0.240546C61.2517 0.266317 82.3595 2.05315 103.664 1.97583C126.161 1.90711 148.511 -0.240523 171.007 0.0257828C192.251 0.274908 213.174 2.68025 234.38 3.46199C268.187 4.70762 302.006 1.79543 335.875 1.10819C363.977 0.541214 381.115 1.7353 409.217 1.71811C421.695 1.70952 433.337 0.13746 445.532 1.39168C454.064 2.2765 465.165 1.70952 466.861 1.32295H466.874Z" fill="#7F658F"/>
</g>
<defs>
<clipPath id="clip0_2201_2957">
<rect width="464" height="27" fill="white"/>
</clipPath>
</defs>
</svg>
