<svg width="20" height="20" viewBox="0 0 20 20" fill="none" xmlns="http://www.w3.org/2000/svg">
<path d="M10.0001 1.66406C5.40841 1.66406 1.66675 5.40573 1.66675 9.9974C1.66675 14.5891 5.40841 18.3307 10.0001 18.3307C14.5917 18.3307 18.3334 14.5891 18.3334 9.9974C18.3334 5.40573 14.5917 1.66406 10.0001 1.66406ZM12.8001 11.9141C13.0417 12.1557 13.0417 12.5557 12.8001 12.7974C12.6751 12.9224 12.5167 12.9807 12.3584 12.9807C12.2001 12.9807 12.0417 12.9224 11.9167 12.7974L10.0001 10.8807L8.08342 12.7974C7.95842 12.9224 7.80008 12.9807 7.64175 12.9807C7.48342 12.9807 7.32508 12.9224 7.20008 12.7974C6.95842 12.5557 6.95842 12.1557 7.20008 11.9141L9.11675 9.9974L7.20008 8.08073C6.95842 7.83906 6.95842 7.43906 7.20008 7.1974C7.44175 6.95573 7.84175 6.95573 8.08342 7.1974L10.0001 9.11406L11.9167 7.1974C12.1584 6.95573 12.5584 6.95573 12.8001 7.1974C13.0417 7.43906 13.0417 7.83906 12.8001 8.08073L10.8834 9.9974L12.8001 11.9141Z" fill="#C03042"/>
</svg>
