<svg width="20" height="20" viewBox="0 0 20 20" fill="none" xmlns="http://www.w3.org/2000/svg">
<path d="M14.6667 4.42474L9.95841 1.89141C9.45841 1.62474 8.86675 1.62474 8.36675 1.89141L3.66675 4.42474C3.32508 4.61641 3.10841 4.98307 3.10841 5.38307C3.10841 5.79141 3.31675 6.15807 3.66675 6.34141L8.37508 8.87474C8.62508 9.00807 8.90008 9.07474 9.16675 9.07474C9.43341 9.07474 9.71675 9.00807 9.95841 8.87474L14.6667 6.34141C15.0084 6.15807 15.2251 5.79141 15.2251 5.38307C15.2251 4.98307 15.0084 4.61641 14.6667 4.42474Z" fill="#FCC400"/>
<path d="M7.60008 9.75807L3.22508 7.57474C2.88341 7.39974 2.50008 7.42474 2.17508 7.61641C1.85841 7.81641 1.66675 8.15807 1.66675 8.53307V12.6664C1.66675 13.3831 2.06675 14.0247 2.70841 14.3497L7.08341 16.5331C7.23341 16.6081 7.40008 16.6497 7.56675 16.6497C7.75841 16.6497 7.95841 16.5914 8.13341 16.4914C8.45008 16.2914 8.64175 15.9497 8.64175 15.5747V11.4414C8.63341 10.7247 8.23341 10.0831 7.60008 9.75807Z" fill="#FCC400"/>
<path d="M16.6667 8.53307V10.5831C16.2667 10.4664 15.8417 10.4164 15.4167 10.4164C14.2834 10.4164 13.1751 10.8081 12.3001 11.5081C11.1001 12.4497 10.4167 13.8747 10.4167 15.4164C10.4167 15.8247 10.4667 16.2331 10.5751 16.6247C10.4501 16.6081 10.3251 16.5581 10.2084 16.4831C9.89175 16.2914 9.70008 15.9497 9.70008 15.5747V11.4414C9.70008 10.7247 10.1001 10.0831 10.7334 9.75807L15.1084 7.57474C15.4501 7.39974 15.8334 7.42474 16.1584 7.61641C16.4751 7.81641 16.6667 8.15807 16.6667 8.53307Z" fill="#FCC400"/>
<path d="M18.3167 13.0414C17.6334 12.1997 16.5917 11.6664 15.4167 11.6664C14.5334 11.6664 13.7167 11.9747 13.0751 12.4914C12.2084 13.1747 11.6667 14.2331 11.6667 15.4164C11.6667 16.5914 12.2001 17.6331 13.0417 18.3164C13.6834 18.8497 14.5167 19.1664 15.4167 19.1664C16.3667 19.1664 17.2251 18.8081 17.8917 18.2331C18.6667 17.5414 19.1667 16.5414 19.1667 15.4164C19.1667 14.5164 18.8501 13.6831 18.3167 13.0414ZM16.2751 15.6497C16.2751 15.8664 16.1584 16.0747 15.9751 16.1831L14.8001 16.8831C14.7001 16.9414 14.5917 16.9747 14.4751 16.9747C14.2667 16.9747 14.0584 16.8664 13.9417 16.6747C13.7667 16.3747 13.8584 15.9914 14.1584 15.8164L15.0251 15.2997V14.2497C15.0251 13.9081 15.3084 13.6247 15.6501 13.6247C15.9917 13.6247 16.2751 13.9081 16.2751 14.2497V15.6497Z" fill="#FCC400"/>
</svg>
