<svg width="20" height="20" viewBox="0 0 20 20" fill="none" xmlns="http://www.w3.org/2000/svg">
<path d="M10.0001 1.66406C5.40841 1.66406 1.66675 5.40573 1.66675 9.9974C1.66675 14.5891 5.40841 18.3307 10.0001 18.3307C14.5917 18.3307 18.3334 14.5891 18.3334 9.9974C18.3334 5.40573 14.5917 1.66406 10.0001 1.66406ZM13.6251 12.9724C13.5084 13.1724 13.3001 13.2807 13.0834 13.2807C12.9751 13.2807 12.8667 13.2557 12.7667 13.1891L10.1834 11.6474C9.54175 11.2641 9.06675 10.4224 9.06675 9.68073V6.26406C9.06675 5.9224 9.35008 5.63906 9.69175 5.63906C10.0334 5.63906 10.3167 5.9224 10.3167 6.26406V9.68073C10.3167 9.98073 10.5667 10.4224 10.8251 10.5724L13.4084 12.1141C13.7084 12.2891 13.8084 12.6724 13.6251 12.9724Z" fill="#F07F3C"/>
</svg>
