<svg width="20" height="20" viewBox="0 0 20 20" fill="none" xmlns="http://www.w3.org/2000/svg">
<path d="M18.6333 6.89102L18.3916 4.58268C18.0416 2.06602 16.9 1.04102 14.4583 1.04102H5.49162C3.04162 1.04102 1.90829 2.06602 1.54995 4.60768L1.32495 6.89935C1.24162 7.79102 1.48329 8.65768 2.00829 9.33268C2.64162 10.1577 3.61662 10.6243 4.69995 10.6243C5.74995 10.6243 6.75829 10.0993 7.39162 9.25768C7.95829 10.0993 8.92495 10.6243 9.99995 10.6243C11.075 10.6243 12.0166 10.1243 12.5916 9.29102C13.2333 10.116 14.225 10.6243 15.2583 10.6243C16.3666 10.6243 17.3666 10.1327 17.9916 9.26602C18.4916 8.59935 18.7166 7.75768 18.6333 6.89102Z" fill="#FCC400"/>
<path d="M9.45829 13.8827C8.39995 13.991 7.59995 14.891 7.59995 15.9577V18.241C7.59995 18.466 7.78329 18.6493 8.00829 18.6493H11.9833C12.2083 18.6493 12.3916 18.466 12.3916 18.241V16.2493C12.4 14.5077 11.375 13.6827 9.45829 13.8827Z" fill="#FCC400"/>
<path d="M17.8083 11.9993V14.4827C17.8083 16.7827 15.9416 18.6493 13.6416 18.6493C13.4166 18.6493 13.2333 18.466 13.2333 18.241V16.2493C13.2333 15.1827 12.9083 14.3493 12.275 13.7827C11.7166 13.2744 10.9583 13.0243 10.0166 13.0243C9.80829 13.0243 9.59995 13.0327 9.37495 13.0577C7.89162 13.2077 6.76662 14.4577 6.76662 15.9577V18.241C6.76662 18.466 6.58329 18.6493 6.35829 18.6493C4.05829 18.6493 2.19162 16.7827 2.19162 14.4827V12.016C2.19162 11.4327 2.76662 11.041 3.30829 11.2327C3.53329 11.3077 3.75829 11.366 3.99162 11.3994C4.09162 11.416 4.19995 11.4327 4.29995 11.4327C4.43329 11.4493 4.56662 11.4577 4.69995 11.4577C5.66662 11.4577 6.61662 11.0993 7.36662 10.4827C8.08329 11.0993 9.01662 11.4577 9.99995 11.4577C10.9916 11.4577 11.9083 11.116 12.625 10.4993C13.375 11.1077 14.3083 11.4577 15.2583 11.4577C15.4083 11.4577 15.5583 11.4493 15.7 11.4327C15.8 11.4243 15.8916 11.416 15.9833 11.3994C16.2416 11.366 16.475 11.291 16.7083 11.216C17.25 11.0327 17.8083 11.4327 17.8083 11.9993Z" fill="#FCC400"/>
</svg>
