<svg width="64" height="64" viewBox="0 0 64 64" fill="none" xmlns="http://www.w3.org/2000/svg">
<path d="M32.8116 11.81C46.1337 12.349 53.4769 19.5069 53.4769 31.9532C53.4769 38.0837 51.5063 43.1195 47.7842 46.4879C43.86 50.0416 38.1506 51.6416 31.7169 51.0016C19.22 49.7721 12.5169 43.2037 11.8263 31.4648C11.5063 26.109 13.2748 21.1911 16.8116 17.5869C20.719 13.5953 26.4116 11.5574 32.8285 11.81H32.8116Z" fill="#C6B3D2"/>
<path fill-rule="evenodd" clip-rule="evenodd" d="M44.4832 23.0099L41.0474 44.0793C40.8959 45.0899 39.5653 45.4099 38.639 44.6857C35.8264 42.4625 33.1485 40.3404 30.5885 38.3025C29.4432 37.393 29.258 35.8604 30.1843 34.8835C32.3232 32.593 34.479 30.3025 36.6517 27.9951C37.0222 27.5909 36.4159 27.0351 35.9274 27.3551C32.5422 29.5614 29.2243 31.7341 25.9738 33.8562C25.2664 34.3109 24.3738 34.3783 23.5822 34.0414C21.7632 33.233 19.9948 32.4414 18.2769 31.6667C17.3338 31.2457 17.4348 29.932 18.4117 29.612L42.479 21.7299C43.5232 21.393 44.6517 22.1004 44.5001 23.0267L44.4832 23.0099Z" fill="white"/>
<path d="M32.9147 57.4803C34.582 57.5645 36.2831 57.5308 37.9505 57.3624C38.6241 57.3455 39.2978 57.295 39.9715 57.2108C40.3252 57.1771 40.6789 57.1266 41.0326 57.0592C43.6094 56.655 46.1189 55.7455 48.4599 54.516C48.7462 54.3476 49.0326 54.1792 49.3357 53.9939C49.8578 53.6739 50.3126 53.2529 50.7841 52.8655C52.081 51.956 53.2768 50.8781 54.3378 49.6992L54.5399 49.4971C56.2915 47.5771 57.6726 45.3203 58.6662 42.9287C59.0536 41.9518 59.4073 40.975 59.6768 39.9645C59.8115 39.476 59.9462 38.9708 60.0473 38.4655C60.0978 38.2129 60.1484 37.9603 60.2157 37.7076C60.2662 37.4887 60.3168 37.3034 60.2999 37.0676C60.2662 36.8824 60.2326 36.6466 60.2157 36.4782C60.1652 35.9224 60.3168 35.3497 60.3841 34.7939C60.4178 34.1708 60.4852 33.5308 60.4852 32.9076C60.5526 31.6445 60.4347 30.3981 60.4178 29.135C60.3841 28.4276 60.2662 27.7034 60.1989 26.996C60.1315 26.1708 60.0641 25.3455 59.9294 24.5203C59.8284 23.6613 59.5926 22.8024 59.3062 21.9603C59.0368 20.8992 58.4978 19.9224 58.0431 18.9287C57.521 17.8845 57.0326 16.8739 56.4768 15.8466C55.921 14.9371 55.2473 14.0276 54.4726 13.2697C53.6978 12.3603 52.7884 11.5855 51.8789 10.8276C50.8515 10.1034 49.8915 9.29499 48.7462 8.75604C47.601 8.13288 46.422 7.64447 45.2094 7.20657C45.1252 7.08868 45.2431 7.29078 45.1084 7.2571C44.7884 7.15604 44.4684 7.10552 44.1315 7.05499L43.8284 6.95394L42.5315 6.54973C42.1273 6.34762 41.7062 6.16236 41.2515 6.06131C40.6957 5.92657 40.1062 5.87605 39.5505 5.80868C39.3652 5.77499 39.1968 5.75815 39.062 5.74131C37.7484 5.57289 36.4347 5.30341 35.1041 5.25289C34.6999 5.20236 34.4473 5.15183 33.7231 5.11815L33.0831 5.05078L32.9484 8.45289C34.3799 8.58762 35.8452 8.65499 37.2431 8.92447L38.6578 9.19394C40.8305 9.74973 42.9862 10.3392 44.9399 11.2824C46.0347 11.7876 47.1126 12.3434 48.1062 13.0003C49.6894 13.9266 51.0199 15.2066 52.2999 16.5203C54.641 19.5013 56.1399 23.1392 56.6789 27.0297C57.0157 29.4887 57.3862 34.1708 56.0894 39.1729C55.4326 41.6655 54.3041 44.1918 52.6368 46.3645C50.9862 48.5371 48.7799 50.2887 46.4052 51.5181C45.7147 51.8718 45.0073 52.175 44.2831 52.4613L43.8789 52.596C43.121 52.815 42.3631 52.9497 41.6052 53.1013C40.3589 53.3539 39.1126 53.7076 37.8157 53.7918C37.1084 53.8592 36.4515 53.9097 35.6768 53.9771C35.121 54.0276 34.582 53.9939 34.0262 54.0276C33.9084 54.0276 33.8073 54.0276 33.6894 54.0276H33.0999L32.8978 57.4466L32.9147 57.4803Z" fill="#C6B3D2"/>
<path d="M33.1 5.10202C31.4158 5.05149 29.7316 5.11886 28.0642 5.32096C27.3905 5.35465 26.7168 5.42202 26.0431 5.52307C25.6894 5.5736 25.3358 5.62412 24.9821 5.69149C22.4052 6.14622 19.9294 7.08938 17.6052 8.31886C17.3021 8.47044 17.0158 8.63886 16.7294 8.82412C16.2073 9.14412 15.7526 9.54833 15.2979 9.9357C14.001 10.8452 12.8052 11.8725 11.6937 13.001L11.4916 13.2031C9.68945 15.0389 8.17366 17.2115 7.07892 19.5525C6.62418 20.4957 6.25366 21.4894 5.91681 22.4831C5.78208 22.9883 5.61366 23.4768 5.49576 23.982C5.42839 24.2346 5.39471 24.4873 5.3105 24.7399C5.24313 24.9589 5.1926 25.1441 5.22629 25.3799C5.24313 25.5652 5.27681 25.801 5.3105 25.9694C5.36103 26.5252 5.1926 27.1146 5.14208 27.6704C5.09155 28.3104 5.05787 28.9504 5.05787 29.5904C5.02418 30.8873 5.15892 32.1336 5.27681 33.3799C5.3105 34.0873 5.44524 34.7946 5.56313 35.5189C5.68103 36.3273 5.71471 37.1525 5.89997 37.9778C6.05155 38.8368 6.2705 39.6789 6.5905 40.5041C6.9105 41.5483 7.4326 42.5252 7.93787 43.502C8.47681 44.5294 8.98208 45.5399 9.55471 46.5504C10.1105 47.4599 10.8179 48.3357 11.5758 49.0936C12.3505 50.0031 13.2937 50.7441 14.1863 51.5189C15.2137 52.2431 16.1905 53.0178 17.3189 53.5568C18.4473 54.2136 19.66 54.6346 20.8389 55.1062C20.9231 55.2073 20.8052 55.022 20.94 55.0557C21.2263 55.1062 21.5968 55.1904 21.9168 55.2578L22.22 55.3589L22.0684 55.3252L22.2368 55.3589C22.6579 55.5104 23.0958 55.6789 23.5337 55.7799C23.9547 55.9652 24.3589 56.1504 24.7968 56.2852C25.3526 56.4536 25.9252 56.521 26.4979 56.5715C26.7 56.5883 26.8516 56.622 26.9863 56.6389C28.2831 56.9252 29.5968 57.0936 30.9105 57.2452C31.3147 57.3125 31.5673 57.3799 32.2916 57.4136L32.9316 57.481L33.1337 54.0789C31.7189 53.9778 30.2705 53.742 28.8389 53.5231L27.4242 53.1862C25.2347 52.6641 23.1126 51.9736 21.1252 51.0304C19.9968 50.542 18.9694 49.9357 17.9421 49.3125C16.3926 48.3189 14.9779 47.1567 13.7147 45.8094C11.3063 42.8789 9.73997 39.241 9.08313 35.3673C8.69576 32.8915 7.98839 28.2768 9.48734 23.3757C10.8684 18.4578 14.8094 13.6746 19.6431 11.2662C20.3337 10.8957 21.041 10.5757 21.7652 10.3062L22.1694 10.1715C22.9273 9.95254 23.6852 9.80096 24.46 9.63254C25.7063 9.34622 26.9526 8.9757 28.2494 8.85781C28.9568 8.77359 29.6137 8.70623 30.3884 8.62202C30.9442 8.57149 31.4831 8.57149 32.0221 8.5378C32.14 8.5378 32.241 8.5378 32.3589 8.5378L32.9484 8.50412L33.0831 5.10202H33.1Z" fill="#C6B3D2"/>
</svg>
