<svg width="72" height="72" viewBox="0 0 72 72" fill="none" xmlns="http://www.w3.org/2000/svg">
<path d="M36.9131 13.2868C51.9005 13.8931 60.1616 21.9457 60.1616 35.9478C60.1616 42.8447 57.9447 48.5099 53.7574 52.2994C49.3426 56.2973 42.9195 58.0973 35.6816 57.3773C21.6226 55.9941 14.0816 48.6047 13.3047 35.3983C12.9447 29.3731 14.9342 23.8404 18.9131 19.7857C23.3089 15.2952 29.7131 13.0025 36.9321 13.2868H36.9131Z" fill="#C6B3D2"/>
<path fill-rule="evenodd" clip-rule="evenodd" d="M50.0436 25.8868L46.1783 49.5899C46.0078 50.7268 44.511 51.0868 43.4688 50.272C40.3046 47.771 37.292 45.3836 34.412 43.091C33.1236 42.0678 32.9152 40.3436 33.9573 39.2447C36.3636 36.6678 38.7888 34.091 41.2331 31.4952C41.6499 31.0405 40.9678 30.4152 40.4183 30.7752C36.6099 33.2573 32.8773 35.7015 29.2204 38.0889C28.4246 38.6005 27.4204 38.6762 26.5299 38.2973C24.4836 37.3878 22.4941 36.4973 20.5615 35.6257C19.5004 35.152 19.6141 33.6741 20.7131 33.3141L47.7888 24.4468C48.9636 24.0678 50.2331 24.8636 50.0625 25.9057L50.0436 25.8868Z" fill="white"/>
<path d="M37.0292 64.6674C38.905 64.7621 40.8187 64.7242 42.6945 64.5347C43.4524 64.5158 44.2103 64.4589 44.9681 64.3642C45.366 64.3263 45.7639 64.2695 46.1618 64.1937C49.0608 63.7389 51.8839 62.7158 54.5176 61.3326C54.8397 61.1432 55.1618 60.9537 55.5029 60.7453C56.0903 60.3853 56.6018 59.9116 57.1324 59.4758C58.5913 58.4526 59.9366 57.24 61.1303 55.9137L61.3576 55.6863C63.3281 53.5263 64.8818 50.9874 65.9997 48.2968C66.4355 47.1979 66.8334 46.0989 67.1366 44.9621C67.2881 44.4126 67.4397 43.8442 67.5534 43.2758C67.6103 42.9916 67.6671 42.7074 67.7429 42.4232C67.7997 42.1768 67.8566 41.9684 67.8376 41.7032C67.7997 41.4947 67.7618 41.2295 67.7429 41.04C67.686 40.4147 67.8566 39.7705 67.9324 39.1453C67.9703 38.4442 68.046 37.7242 68.046 37.0231C68.1218 35.6021 67.9892 34.2 67.9703 32.7789C67.9324 31.9832 67.7997 31.1684 67.7239 30.3726C67.6481 29.4442 67.5724 28.5158 67.4208 27.5874C67.3071 26.621 67.0418 25.6547 66.7197 24.7074C66.4166 23.5137 65.8103 22.4147 65.2987 21.2968C64.7113 20.1221 64.1618 18.9853 63.5366 17.8295C62.9113 16.8063 62.1534 15.7831 61.2818 14.9305C60.4103 13.9074 59.3871 13.0358 58.3639 12.1831C57.2081 11.3684 56.1281 10.4589 54.8397 9.85262C53.5513 9.15157 52.225 8.6021 50.8608 8.10947C50.766 7.97684 50.8987 8.2042 50.7471 8.16631C50.3871 8.05262 50.0271 7.99578 49.6481 7.93894L49.3071 7.82526L47.8481 7.37052C47.3934 7.14315 46.9197 6.93473 46.4081 6.82105C45.7829 6.66947 45.1197 6.61263 44.4945 6.53684C44.286 6.49894 44.0966 6.47999 43.945 6.46105C42.4671 6.27157 40.9892 5.96842 39.4924 5.91157C39.0376 5.85473 38.7534 5.79789 37.9387 5.75999L37.2187 5.6842L37.0671 9.51157C38.6776 9.66315 40.326 9.73894 41.8987 10.0421L43.4903 10.3453C45.9345 10.9705 48.3597 11.6337 50.5576 12.6947C51.7892 13.2631 53.0018 13.8884 54.1197 14.6274C55.9008 15.6695 57.3976 17.1095 58.8376 18.5874C61.4713 21.941 63.1576 26.0337 63.7639 30.4105C64.1429 33.1768 64.5597 38.4442 63.1008 44.0716C62.3618 46.8758 61.0924 49.7179 59.2166 52.1621C57.3597 54.6063 54.8776 56.5768 52.206 57.96C51.4292 58.3579 50.6334 58.6989 49.8187 59.021L49.3639 59.1726C48.5113 59.4189 47.6587 59.5705 46.806 59.741C45.4039 60.0253 44.0018 60.4231 42.5429 60.5179C41.7471 60.5937 41.0081 60.6505 40.1366 60.7263C39.5113 60.7831 38.905 60.7453 38.2797 60.7831C38.1471 60.7831 38.0334 60.7831 37.9008 60.7831H37.2376L37.0103 64.6295L37.0292 64.6674Z" fill="#C6B3D2"/>
<path d="M37.2376 5.74105C35.3429 5.68421 33.4481 5.76 31.5723 5.98736C30.8144 6.02526 30.0566 6.10105 29.2987 6.21473C28.9008 6.27158 28.5029 6.32842 28.105 6.40421C25.206 6.91578 22.4208 7.97684 19.806 9.36C19.465 9.53052 19.1429 9.72 18.8208 9.92842C18.2334 10.2884 17.7218 10.7432 17.2102 11.1789C15.7513 12.2021 14.406 13.3579 13.1555 14.6274L12.9281 14.8547C10.9008 16.92 9.1955 19.3642 7.96392 21.9979C7.45234 23.0589 7.0355 24.1768 6.65655 25.2947C6.50498 25.8632 6.3155 26.4126 6.18287 26.981C6.10708 27.2653 6.06919 27.5495 5.97445 27.8337C5.89866 28.08 5.84182 28.2884 5.87971 28.5537C5.89866 28.7621 5.93655 29.0274 5.97445 29.2168C6.03129 29.8421 5.84182 30.5053 5.78498 31.1305C5.72813 31.8505 5.69024 32.5705 5.69024 33.2905C5.65234 34.7495 5.80392 36.1516 5.93655 37.5537C5.97445 38.3495 6.12603 39.1453 6.25866 39.96C6.39129 40.8695 6.42919 41.7979 6.63761 42.7263C6.80813 43.6926 7.05445 44.64 7.41445 45.5684C7.77445 46.7432 8.36182 47.8421 8.93024 48.941C9.53655 50.0968 10.105 51.2337 10.7492 52.3705C11.3744 53.3937 12.1702 54.3789 13.0229 55.2316C13.8944 56.2547 14.9555 57.0884 15.9597 57.96C17.1155 58.7747 18.2144 59.6463 19.4839 60.2526C20.7534 60.9916 22.1176 61.4653 23.4439 61.9958C23.5387 62.1095 23.406 61.9011 23.5576 61.9389C23.8797 61.9958 24.2966 62.0905 24.6566 62.1663L24.9976 62.28L24.8271 62.2421L25.0166 62.28C25.4902 62.4505 25.9829 62.64 26.4755 62.7537C26.9492 62.9621 27.4039 63.1705 27.8966 63.3221C28.5218 63.5116 29.166 63.5874 29.8102 63.6442C30.0376 63.6632 30.2081 63.701 30.3597 63.72C31.8187 64.0421 33.2966 64.2316 34.7745 64.4021C35.2292 64.4779 35.5134 64.5537 36.3281 64.5916L37.0481 64.6674L37.2755 60.84C35.6839 60.7263 34.0544 60.4611 32.4439 60.2147L30.8523 59.8358C28.3892 59.2484 26.0018 58.4716 23.766 57.4105C22.4966 56.861 21.3408 56.1789 20.185 55.4779C18.4418 54.36 16.8502 53.0526 15.4292 51.5368C12.7197 48.24 10.9576 44.1474 10.2187 39.7895C9.78287 37.0042 8.98708 31.8126 10.6734 26.2989C12.2271 20.7663 16.6608 15.3853 22.0987 12.6758C22.8755 12.2589 23.6713 11.8989 24.486 11.5958L24.9408 11.4442C25.7934 11.1979 26.646 11.0274 27.5176 10.8379C28.9197 10.5158 30.3218 10.0989 31.7808 9.96631C32.5766 9.87158 33.3155 9.79579 34.1871 9.70105C34.8123 9.64421 35.4187 9.64421 36.025 9.60631C36.1576 9.60631 36.2713 9.60631 36.4039 9.60631L37.0671 9.56842L37.2187 5.74105H37.2376Z" fill="#C6B3D2"/>
</svg>
