<svg width="238" height="86" viewBox="0 0 238 86" fill="none" xmlns="http://www.w3.org/2000/svg">
<g clip-path="url(#clip0_2201_5080)">
<path d="M342.512 60.6582C339.242 61.6756 335.877 62.2672 332.583 63.0717C329.242 63.8052 325.948 64.7044 322.583 65.2486C319.882 65.5325 317.18 65.8875 314.479 66.2424C313.057 66.4317 311.635 66.6446 310.19 66.7866C304.976 67.2125 299.81 67.946 294.621 68.4903C289.408 68.8925 284.242 69.5314 279.005 69.697C277.654 69.7443 276.327 69.7917 275 69.91C272.559 70.1229 270.19 70.5725 267.796 70.9511L258.365 70.9984C255.213 70.9984 252.062 71.0221 248.934 70.8801L247.796 70.8091C242.654 70.5252 237.536 70.2649 232.417 69.697L224.739 68.9635L217.085 67.9697L210.9 67.1652L204.739 66.1477L198.673 65.1539C197.678 64.9883 196.635 64.8937 195.64 64.6097C194.763 64.3731 194.052 64.1365 193.104 64.2548C192.299 64.3494 191.517 64.5387 190.711 64.6097C188.436 64.799 186.161 63.9235 183.957 63.5213L176.422 61.9359C171.374 60.9185 166.398 59.6644 161.422 58.3866C158.578 57.7004 155.758 56.9196 152.938 56.0914C149.716 55.145 146.659 53.8199 143.507 52.6368C140.237 51.4064 136.896 50.3416 133.578 49.2768C129.479 47.8571 125.284 46.745 121.114 45.4673C116.754 43.9529 112.725 42.1309 108.649 40.0487C105 38.1084 100.829 36.7833 97.0142 35.0797C92.7962 33.1867 88.5545 31.3411 84.4313 29.3299C79.9526 27.2949 75.7583 24.9287 71.327 22.7992C69.0047 21.7344 66.8246 20.504 64.5498 19.3445C62.2986 18.1851 60.0474 17.0257 57.8673 15.7479C57.6066 15.251 57.9384 16.1502 57.4171 15.9136C56.2085 15.3693 54.9526 14.8961 53.6967 14.3992L52.6066 13.7367L53.199 13.997L52.5829 13.713C51.019 12.7665 49.5261 11.7017 48.0095 10.7079C46.6588 9.45387 45.3317 8.22345 43.8862 7.08768C42.0616 5.69163 40 4.67417 38.0095 3.46741C37.346 3.08882 36.8246 2.71023 36.327 2.3553C32.109 -0.933697 28.0095 -4.34101 24.2891 -7.98494C23.2227 -9.1917 22.5355 -9.97254 20.5924 -11.9365L19.0284 -13.8294L7.70142 -4.08073C12.2986 1.45615 17.4171 6.11754 22.654 10.5896L27.9147 15.0854C36.2796 21.829 45.1185 27.8155 54.2654 33.2104C56.8246 34.6774 59.3602 36.1681 61.9668 37.5405L69.8104 41.5394C73.8625 43.5033 77.9621 45.3253 82.0853 47.1236C86.2559 48.8036 90.3791 50.5546 94.5735 52.1399C111.611 59.3095 129.1 65.3669 146.896 70.3122C158.246 73.6959 178.815 78.8542 203.246 82.2141C227.63 85.7871 255.924 86.8992 281.777 85.3375C285.498 85.1009 289.218 84.746 292.938 84.4384L295 84.3674C298.768 84.3674 302.512 84.1308 306.28 83.8232C312.464 83.3499 318.483 81.6936 324.597 80.7234C327.986 80.2502 331.28 79.3984 334.55 78.4283C337.109 77.6711 339.597 77.2925 342.085 76.5116C342.583 76.346 343.081 76.204 343.602 76.1094L346.256 75.1866L342.559 60.7055L342.512 60.6582Z" fill="#E7DEEC"/>
<path d="M365.711 22.4916C362.441 23.4854 359.076 24.1006 355.782 24.9051C352.441 25.6386 349.147 26.5377 345.782 27.082C343.081 27.3659 340.379 27.7208 337.678 28.0758C336.256 28.2651 334.834 28.478 333.389 28.62C328.175 29.0459 323.009 29.7794 317.82 30.3236C312.607 30.7259 307.441 31.3648 302.204 31.5304C300.853 31.5777 299.526 31.625 298.199 31.7433C295.758 31.9563 293.389 32.4059 290.995 32.7845L281.564 32.8318C278.412 32.8318 275.261 32.8555 272.133 32.7135L270.995 32.6425C265.853 32.3586 260.735 32.0983 255.616 31.5304L247.938 30.7969L240.284 29.8031L234.099 28.9986L227.938 27.9811L221.872 26.9873C220.877 26.8217 219.834 26.727 218.839 26.4431C217.962 26.2065 217.251 25.9698 216.303 26.0882C215.498 26.1828 214.716 26.3721 213.91 26.4431C211.635 26.6324 209.36 25.7569 207.156 25.3546L199.621 23.7693C194.573 22.7518 189.597 21.4978 184.621 20.22C181.777 19.5338 178.957 18.753 176.137 17.9248C172.915 16.9783 169.858 15.6533 166.706 14.4702C163.436 13.2398 160.095 12.175 156.777 11.1102C152.678 9.69047 148.483 8.57837 144.313 7.30063C139.953 5.78627 135.924 3.9643 131.848 1.88205C128.199 -0.0582199 124.028 -1.38329 120.213 -3.08694C115.995 -4.9799 111.753 -6.82552 107.63 -8.83677C103.152 -10.8717 98.9573 -13.2379 94.526 -15.3675C92.2037 -16.4322 90.0236 -17.6627 87.7487 -18.8221C85.4975 -19.9815 83.2464 -21.141 81.0663 -22.4187C80.8056 -22.9156 81.1374 -22.0164 80.616 -22.2531C79.4075 -22.7973 78.1516 -23.2705 76.8957 -23.7674L75.8056 -24.43L76.398 -24.1697L75.7819 -24.4536C74.2179 -25.4001 72.725 -26.4649 71.2084 -27.4587C69.8577 -28.7128 68.5307 -29.9432 67.0852 -31.0789C65.2606 -32.475 63.199 -33.4925 61.2084 -34.6992C60.5449 -35.0778 60.0236 -35.4564 59.526 -35.8113C55.308 -39.1003 51.2085 -42.5076 47.4881 -46.1516C46.4217 -47.3583 45.7345 -48.1392 43.7914 -50.1031L42.2274 -51.996L30.9004 -42.2474C35.4975 -36.7105 40.616 -32.0491 45.853 -27.577L51.1137 -23.0812C59.4786 -16.3376 68.3174 -10.3511 77.4644 -4.95623C80.0236 -3.48919 82.5592 -1.9985 85.1658 -0.626106L93.0094 3.37276C97.0615 5.33669 101.161 7.15865 105.284 8.95695C109.455 10.6369 113.578 12.3879 117.772 13.9733C134.81 21.1428 152.298 27.2003 170.095 32.1456C181.445 35.5293 202.014 40.6875 226.445 44.0475C250.829 47.6205 279.123 48.7326 304.976 47.1709C308.697 46.9343 312.417 46.5794 316.137 46.2718L318.199 46.2008C321.967 46.2008 325.711 45.9641 329.479 45.6565C335.663 45.1833 341.682 43.527 347.796 42.5568C351.185 42.0836 354.479 41.2318 357.749 40.2616C360.308 39.5044 362.796 39.1259 365.284 38.345C365.782 38.1794 366.28 38.0374 366.801 37.9428L369.455 37.02L365.758 22.5389L365.711 22.4916Z" fill="#E7DEEC"/>
</g>
<defs>
<clipPath id="clip0_2201_5080">
<rect width="238" height="86" fill="white"/>
</clipPath>
</defs>
</svg>
