<svg width="184" height="56" viewBox="0 0 184 56" fill="none" xmlns="http://www.w3.org/2000/svg">
<g clip-path="url(#clip0_2201_16539)">
<path d="M18.1902 19.6869C18.1296 19.6869 18.069 19.6869 18.0084 19.6869C13.7668 19.6869 10.3735 21.9495 9.12116 25.6162C8.71719 26.7879 9.35344 28.0707 10.5249 28.4647C11.6964 28.8586 12.9689 28.2424 13.3729 27.0606C14.2818 24.4041 16.9379 24.1212 18.1296 24.1717C20.5837 24.2121 23.4721 25.5758 24.2295 28.0505C24.3507 28.495 24.4416 28.9394 24.5123 29.3839C22.4824 29.4849 20.4928 29.6263 18.3518 29.7879C17.1096 29.8788 16.1906 30.9596 16.2815 32.1919C16.3724 33.3738 17.352 34.2727 18.5134 34.2727C18.5639 34.2727 18.6245 34.2727 18.6851 34.2727C20.7352 34.1212 22.6339 33.9798 24.5628 33.8889C24.2194 35.7778 23.4115 37.3536 22.1794 38.3233C20.311 39.7778 17.5944 39.6162 14.5141 37.8788C13.4335 37.2727 12.0701 37.6465 11.4541 38.7273C10.8481 39.8081 11.2218 41.1717 12.3024 41.7879C14.6656 43.1212 17.0086 43.798 19.1799 43.7879C21.3109 43.7879 23.2701 43.1414 24.9264 41.8586C28.7843 38.8485 30.2082 32.9697 28.5318 26.8081C27.2694 22.6869 23.0075 19.7576 18.1801 19.6869H18.1902Z" fill="#AD93BE"/>
<path d="M48.3464 17.1212C49.5886 17.0707 50.548 16.0202 50.4975 14.7879C50.447 13.5455 49.3664 12.596 48.1646 12.6364C43.2766 12.8384 38.3987 12.8081 33.6824 12.7778C29.0166 12.7475 24.1992 12.7172 19.3516 12.9192C18.1094 12.9697 17.15 14.0202 17.2005 15.2525C17.251 16.4647 18.2407 17.4041 19.4425 17.4041C19.4728 17.4041 19.5031 17.4041 19.5334 17.4041C23.6337 17.2323 27.7441 17.2323 31.7736 17.2626C31.814 18.7677 31.8544 20.2727 31.8948 21.7879C32.0766 28.4647 32.2584 35.3738 32.218 42.0606C32.218 43.303 33.2077 44.3131 34.4499 44.3232H34.46C35.6921 44.3232 36.6919 43.3232 36.702 42.0909C36.7424 35.3333 36.5606 28.3839 36.3789 21.6667C36.3385 20.202 36.2981 18.7475 36.2678 17.2929C40.2266 17.3131 44.2663 17.303 48.3565 17.1313L48.3464 17.1212Z" fill="#AD93BE"/>
<path d="M89.0561 27.3435C89.9953 26.5354 90.7427 25.596 91.2275 24.5354C92.3687 22.0606 91.9748 19.293 90.1569 17.1415C87.622 14.1213 83.0976 12.9899 77.846 13.9394C77.4017 13.4445 76.7654 13.1415 76.0585 13.1718C74.8163 13.2324 73.867 14.293 73.9377 15.5253C74.18 20.2425 74.3012 39.8384 74.1901 42.2324C74.1295 43.4748 75.089 44.5253 76.3312 44.5859C76.3716 44.5859 76.4019 44.5859 76.4423 44.5859C76.8967 44.5859 77.3209 44.4445 77.6744 44.2122H78.0076C79.1387 44.2627 80.3405 44.3132 81.5423 44.3132C85.9052 44.3132 90.4195 43.7475 92.7322 40.4445C94.7824 37.5253 94.8733 33.5758 92.9443 30.6162C92.2576 29.5657 91.0659 28.2728 89.0662 27.3233L89.0561 27.3435ZM86.7232 20.0303C87.1171 20.5051 87.7028 21.4647 87.1474 22.6566C86.4101 24.2425 83.8046 25.9394 78.654 26.2021C78.6237 23.293 78.5732 20.5152 78.5227 18.3839C82.8148 17.5758 85.6022 18.697 86.7232 20.0303ZM89.0561 37.8788C87.5715 39.9899 82.6028 39.9091 78.7247 39.7778C78.7348 37.5354 78.7247 34.293 78.7045 30.8687C83.9055 30.0404 87.6927 30.8182 89.1773 33.1011C90.2478 34.7475 89.8641 36.7273 89.0561 37.8889V37.8788Z" fill="#AD93BE"/>
<path d="M107.8 32.909C107.901 33.8585 107.972 34.7272 108.033 35.4343L108.134 36.5959C108.245 37.8282 109.325 38.7373 110.567 38.6363C111.8 38.5252 112.719 37.4343 112.608 36.202L112.517 35.0707C112.113 30.1212 111.487 22.6363 107.81 19.606C106.538 18.5555 104.983 18.0909 103.306 18.2828C98.0041 18.8686 97.0245 26.5252 95.9843 34.6262C95.6914 36.9191 95.3884 39.2929 94.9946 41.3333C94.7623 42.5555 95.5601 43.7272 96.772 43.9595C96.9134 43.9898 97.0548 44 97.1962 44C98.2465 44 99.1958 43.2525 99.3978 42.1818C99.8119 39.9999 100.125 37.5656 100.428 35.202C100.539 34.3737 100.67 33.3434 100.822 32.2525C102.246 32.606 104.306 33 106.346 33C106.831 33 107.316 32.9696 107.8 32.9191V32.909ZM103.791 22.7474C104.266 22.6868 104.599 22.7878 104.952 23.0808C106.033 23.9696 106.72 26.1111 107.174 28.4646C105.508 28.6161 103.276 28.2424 101.579 27.808C102.135 25.101 102.872 22.8484 103.791 22.7474Z" fill="#AD93BE"/>
<path d="M150.883 12.3434C150.883 12.3434 150.843 12.3434 150.813 12.3434C149.57 12.3838 148.601 13.4141 148.641 14.6565C148.732 17.7373 148.843 20.7171 148.964 23.6161C147.843 24.4141 145.985 25.202 144.39 25.5151C144.359 23.7979 144.329 22.0707 144.258 20.4141C144.208 19.1717 143.137 18.2323 141.925 18.2626C140.683 18.3131 139.724 19.3535 139.774 20.5959C139.865 22.7272 139.895 25.0202 139.936 27.2424C139.986 30.3838 140.037 33.6363 140.229 36.5454C140.309 37.7272 141.299 38.6363 142.471 38.6363C142.521 38.6363 142.572 38.6363 142.622 38.6363C143.854 38.5555 144.794 37.4848 144.713 36.2424C144.581 34.3131 144.521 32.1919 144.48 30.0505C146.096 29.8383 147.763 29.2828 149.197 28.6262C149.429 33.4444 149.712 38.0505 150.045 42.5151C150.136 43.6969 151.116 44.5959 152.277 44.5959C152.328 44.5959 152.388 44.5959 152.449 44.5959C153.681 44.505 154.61 43.4242 154.519 42.1919C153.893 33.6868 153.438 24.6363 153.135 14.5454C153.095 13.3333 152.105 12.3636 150.893 12.3636L150.883 12.3434Z" fill="#AD93BE"/>
<path d="M173.798 18.7878C171.698 15.3636 167.82 13.7171 163.931 14.606C160.003 15.4949 157.185 18.7373 156.761 22.8687C155.832 31.7373 157.014 37.808 160.255 40.9091C161.891 42.4747 163.972 43.2626 166.436 43.2626C167.062 43.2626 167.709 43.2121 168.375 43.1111C170.203 42.8383 172.728 41.7676 174.384 38.2121C177.182 32.2222 175.96 22.2929 173.808 18.7777L173.798 18.7878ZM170.314 36.3232C169.324 38.4343 168.112 38.6161 167.709 38.6767C165.8 38.9596 164.366 38.6363 163.356 37.6666C161.225 35.6262 160.467 30.5353 161.225 23.3333C161.457 21.0808 162.841 19.4545 164.921 18.9798C166.507 18.6262 168.668 19 169.971 21.1313C171.395 23.4545 172.435 31.7777 170.314 36.3232Z" fill="#AD93BE"/>
<path d="M56.9408 19.1515C55.1835 19.303 53.2445 20.1818 51.8306 22.0707C50.9014 21.1313 49.7703 20.4545 48.4776 20.0707C45.862 19.2929 43.0847 19.9697 41.2163 21.8283C39.1258 23.899 38.4997 27.0909 39.4995 30.5656C39.5298 30.6666 39.5601 30.7676 39.6106 30.8586C41.9435 36.0909 46.6497 40.0202 50.9418 43.1717C51.1943 43.3535 51.4771 43.4848 51.7599 43.5454C51.9619 43.606 52.1739 43.6363 52.386 43.6363C52.8001 43.6363 53.2243 43.5151 53.608 43.2727C66.7572 34.7474 65.9593 27.3737 65.01 24.606C63.8183 21.1515 60.4452 18.8586 56.9408 19.1616V19.1515ZM52.4163 38.6565C48.9927 36.0606 45.5186 32.9394 43.7815 29.1717C43.2968 27.3636 43.5088 25.8889 44.3875 25.0101C45.0944 24.303 46.175 24.0606 47.2051 24.3737C48.5786 24.7778 49.5886 26.0808 49.9925 27.9394C50.2248 29.0303 51.2347 29.7879 52.3355 29.707C53.4464 29.6363 54.3352 28.7575 54.4261 27.6565L54.4564 27.2828C54.83 25.0909 55.8702 23.7575 57.3245 23.6262C58.5869 23.5151 60.1624 24.3131 60.7582 26.0505C61.6874 28.7575 59.9301 33.4242 52.4062 38.6565H52.4163Z" fill="#AD93BE"/>
<path d="M144.339 40.3434C139.683 41.1414 138.764 39.1515 137.159 34.5555C136.401 32.3939 135.492 29.798 133.654 27.8788C134.664 27.0909 135.553 25.9899 136.159 24.4848C139.158 17.0808 139.825 16.3333 143.349 16.505C144.582 16.5252 145.642 15.606 145.703 14.3636C145.763 13.1212 144.804 12.0707 143.562 12.0101C136.482 11.6666 134.806 15.8586 131.998 22.7879C131.14 24.899 129.15 25.2121 128.1 25.2121C128.14 21.9091 128.12 18.5757 127.928 15.2525C127.857 14.0101 126.746 13.0808 125.555 13.1414C124.312 13.2121 123.373 14.2727 123.444 15.5151C123.626 18.7576 123.646 22.0505 123.606 25.3131C123.555 25.3131 123.505 25.2929 123.444 25.2929H123.414C123.202 25.2929 121.303 25.2525 119.97 23.1313C113.042 12.1414 105.831 11.697 100.327 12.5353C99.1049 12.7172 98.2566 13.8687 98.4485 15.0909C98.6303 16.3131 99.7715 17.1616 101.004 16.9697C105.316 16.3131 110.406 16.3838 116.193 25.5454C116.708 26.3636 117.283 27.0303 117.889 27.5757C115.799 29.5757 115.213 32.4747 114.759 34.6768C113.941 38.697 113.426 40.303 109.204 40.0909C107.992 40.0404 106.912 40.9697 106.841 42.2121C106.77 43.4545 107.73 44.505 108.962 44.5757C109.265 44.5959 109.568 44.5959 109.85 44.5959C117.314 44.5959 118.415 39.1919 119.152 35.5757C119.879 31.9798 120.404 30.202 123.525 29.8283C123.515 30.3737 123.505 30.9293 123.484 31.4646C123.404 34.7071 123.323 38.0505 123.343 41.3838C123.343 42.6161 124.353 43.6161 125.585 43.6161H125.595C126.837 43.6161 127.837 42.5959 127.827 41.3636C127.807 38.101 127.888 34.7778 127.968 31.5757C127.978 30.9798 127.999 30.3737 128.009 29.7778C130.725 30.2828 131.644 32.4646 132.907 36.0505C134.25 39.899 136.048 45.0101 142.531 45.0101C143.309 45.0101 144.157 44.9394 145.086 44.7778C146.308 44.5656 147.127 43.404 146.914 42.1818C146.702 40.9596 145.541 40.1414 144.319 40.3535L144.339 40.3434Z" fill="#AD93BE"/>
</g>
<defs>
<clipPath id="clip0_2201_16539">
<rect width="167" height="33" fill="white" transform="translate(9 12)"/>
</clipPath>
</defs>
</svg>
