<svg width="64" height="64" viewBox="0 0 64 64" fill="none" xmlns="http://www.w3.org/2000/svg">
<path fill-rule="evenodd" clip-rule="evenodd" d="M52.368 24.3417C49.8533 16.6101 43.1237 12.2272 32.8117 11.81H32.8286C26.4117 11.5574 20.7191 13.5953 16.8117 17.5869C13.2841 21.1817 11.5157 26.0834 11.824 31.423C11.9275 31.1605 12.0526 30.9075 12.1984 30.6669C12.4933 30.1794 12.8696 29.7522 13.3095 29.4055C13.8035 29.0122 14.3694 28.7288 14.9732 28.5724C15.0286 28.5578 15.0853 28.5499 15.142 28.5419L15.1421 28.5419C15.1999 28.5338 15.2577 28.5256 15.3143 28.5106L15.8602 28.4458C15.9088 28.4467 15.9573 28.4473 16.0059 28.4479L16.0066 28.4479C16.1236 28.4493 16.2406 28.4507 16.3574 28.4573C17.2052 28.4964 18.0284 28.7835 18.7337 29.2861C19.5908 29.8912 20.1993 30.7049 20.5503 31.7225C21.4037 34.1926 20.2615 36.9274 17.9451 37.8768C16.3261 38.5403 14.7814 38.3091 13.365 37.2192C13.0509 36.9776 12.7778 36.7041 12.5433 36.4019C14.6604 45.0557 21.0964 49.9567 31.717 51.0016C38.1507 51.6416 43.8602 50.0416 47.7844 46.4879C51.2572 43.3451 53.2052 38.7507 53.4505 33.17C53.0745 32.9246 52.6983 32.6795 52.322 32.4348C50.7509 31.4106 49.1797 30.3868 47.6086 29.3634C47.6047 29.3609 47.601 29.3581 47.5972 29.3553C47.5831 29.3445 47.5678 29.333 47.5406 29.3362L47.5524 29.4362L47.9897 33.1219C48.0495 33.6326 47.7929 34.0989 47.3472 34.3036C46.7248 34.589 45.9714 34.1671 45.8494 33.4624C45.8394 33.4053 45.8322 33.3472 45.8253 33.289L44.9155 25.6219L44.9121 25.5945C44.9061 25.5489 44.9002 25.5031 44.9076 25.457C44.9456 25.2233 45.1876 25.1154 45.3911 25.2457C45.5801 25.3668 45.7681 25.4898 45.9562 25.6128L46.1876 25.764L51.7253 29.3735C51.7367 29.3823 51.7493 29.3892 51.7679 29.3995L51.7895 29.4116L51.7775 29.3097C51.736 28.9599 51.6946 28.6102 51.6533 28.2605L51.6533 28.26L51.6532 28.2596L51.6532 28.2592L51.6531 28.2587C51.5514 27.3975 51.4497 26.5365 51.3453 25.6762C51.2938 25.2518 51.4034 24.8923 51.7092 24.6117C51.9029 24.434 52.1356 24.3484 52.368 24.3417ZM25.0221 29.8794L26.0182 29.7615L25.9985 29.7979C25.9859 29.8211 25.976 29.8394 25.966 29.8576C24.6892 32.163 23.4115 34.4676 22.1329 36.7717C22.0601 36.9026 22.0358 37.0318 22.1206 37.1638C22.203 37.2922 22.3234 37.3208 22.4649 37.304L29.7105 36.4443C29.7904 36.4351 29.8694 36.4198 29.9471 36.3986C30.6938 36.1928 30.9982 35.26 30.5234 34.6146C30.2676 34.267 29.9214 34.1196 29.5099 34.167C28.6252 34.2691 27.7409 34.3744 26.8566 34.4796L26.8552 34.4798L25.9696 34.5851C25.9629 34.5859 25.9561 34.5872 25.9493 34.5885L25.9492 34.5885C25.9266 34.5927 25.9029 34.5972 25.8752 34.5857L25.8895 34.558C25.8992 34.5389 25.9087 34.5205 25.9187 34.5025L29.6591 27.7519C29.6709 27.7306 29.683 27.7094 29.6952 27.6882L29.6952 27.6881C29.7272 27.6324 29.7592 27.5765 29.7848 27.5175C29.8047 27.4719 29.8141 27.422 29.8125 27.3716C29.8108 27.3213 29.7981 27.2719 29.7753 27.2273C29.7526 27.1827 29.7203 27.1441 29.6812 27.1145C29.642 27.0849 29.597 27.0652 29.5496 27.0567C29.5044 27.0487 29.4597 27.0548 29.4151 27.0608C29.4046 27.0623 29.3942 27.0637 29.3837 27.0649L22.7751 27.8491L22.775 27.8491L22.775 27.8491L22.7749 27.8491L22.7749 27.8491L22.7748 27.8491C22.7391 27.8533 22.7033 27.8576 22.6678 27.863C22.1756 27.9359 21.7946 28.3554 21.7514 28.8709C21.7072 29.397 22.0007 29.8732 22.4781 30.0527C22.6712 30.1253 22.8674 30.1353 23.0692 30.1114C23.717 30.0337 24.3649 29.9571 25.019 29.8798L25.0221 29.8794ZM37.4262 25.9125C37.341 25.9198 37.2558 25.9271 37.17 25.9174L36.4917 25.9979C36.4771 26.0138 36.4579 26.0156 36.4391 26.0174L36.4298 26.0184C36.1666 26.0598 35.9058 26.1152 35.6483 26.1845C34.7885 26.4104 33.9808 26.7614 33.2399 27.2694C32.517 27.7653 31.9012 28.375 31.4572 29.1604C31.0848 29.8202 30.8852 30.5326 30.9192 31.3071C30.9521 32.0571 31.1943 32.7346 31.6206 33.3415C32.1488 34.0935 32.8452 34.6235 33.6446 35.0107C34.8925 35.6151 36.2068 35.8091 37.5618 35.7189C38.1603 35.6797 38.7527 35.5766 39.3299 35.411C40.1823 35.1664 40.9813 34.8013 41.708 34.277C42.4067 33.7732 42.9968 33.1606 43.4131 32.3786C43.7568 31.7321 43.9356 31.04 43.8947 30.294C43.8491 29.4609 43.5489 28.7289 43.0395 28.0873C42.473 27.3744 41.7568 26.8793 40.9476 26.5242C39.862 26.047 38.7272 25.8662 37.5591 25.9035C37.5148 25.9049 37.4705 25.9087 37.4262 25.9125ZM34.9014 33.0971C35.8175 33.4459 36.7599 33.5175 37.7417 33.41C38.1254 33.3584 38.5276 33.2785 38.9189 33.1525C39.6178 32.9256 40.2646 32.5963 40.8237 32.0979C41.1506 31.8065 41.4296 31.4724 41.6007 31.0528C41.7197 30.7608 41.7691 30.4589 41.6857 30.1435C41.5832 29.7565 41.3507 29.4617 41.0622 29.2117C40.5106 28.734 39.8641 28.4738 39.1758 28.3222C38.2675 28.1219 37.3603 28.14 36.4571 28.3383C35.7308 28.4982 35.0482 28.7714 34.4275 29.1994C33.987 29.5032 33.599 29.8647 33.329 30.3472C33.1549 30.6582 33.0502 30.9899 33.1011 31.3594C33.1422 31.6574 33.2792 31.9098 33.4656 32.1335C33.8549 32.6007 34.3564 32.889 34.9014 33.0971ZM13.6958 33.6372C13.5257 32.2034 14.4958 30.9121 15.8662 30.7496C16.1904 30.7111 16.5194 30.7401 16.8344 30.8351C17.1494 30.93 17.4442 31.0889 17.7019 31.3028C17.9595 31.5166 18.1751 31.7812 18.3361 32.0813C18.4971 32.3814 18.6005 32.7113 18.6404 33.0519C18.8092 34.4878 17.8398 35.7759 16.4686 35.9374C15.114 36.0971 13.8654 35.0608 13.6958 33.6372Z" fill="#C6B3D2"/>
<path d="M32.9148 57.4803C34.5822 57.5645 36.2832 57.5308 37.9506 57.3624C38.6243 57.3455 39.2979 57.295 39.9716 57.2108C40.3253 57.1771 40.679 57.1266 41.0327 57.0592C43.6095 56.655 46.119 55.7455 48.4601 54.516C48.7464 54.3476 49.0327 54.1792 49.3358 53.9939C49.8579 53.6739 50.3127 53.2529 50.7843 52.8655C52.0811 51.956 53.2769 50.8781 54.3379 49.6992L54.5401 49.4971C56.2916 47.5771 57.6727 45.3203 58.6664 42.9287C59.0537 41.9518 59.4074 40.975 59.6769 39.9645C59.8116 39.476 59.9464 38.9708 60.0474 38.4655C60.0979 38.2129 60.1485 37.9603 60.2158 37.7076C60.2664 37.4887 60.3169 37.3034 60.3001 37.0676C60.2664 36.8824 60.2327 36.6466 60.2158 36.4781C60.1653 35.9224 60.3169 35.3497 60.3843 34.7939C60.4179 34.1708 60.4853 33.5308 60.4853 32.9076C60.5527 31.6445 60.4348 30.3981 60.4179 29.135C60.3843 28.4276 60.2664 27.7034 60.199 26.996C60.1316 26.1708 60.0643 25.3455 59.9295 24.5203C59.8285 23.6613 59.5927 22.8024 59.3064 21.9603C59.0369 20.8992 58.4979 19.9224 58.0432 18.9287C57.5211 17.8845 57.0327 16.8739 56.4769 15.8466C55.9211 14.9371 55.2474 14.0276 54.4727 13.2697C53.6979 12.3603 52.7885 11.5855 51.879 10.8276C50.8516 10.1034 49.8916 9.29499 48.7464 8.75604C47.6011 8.13289 46.4222 7.64447 45.2095 7.20657C45.1253 7.08868 45.2432 7.29078 45.1085 7.2571C44.7885 7.15604 44.4685 7.10552 44.1316 7.05499L43.8285 6.95394L42.5316 6.54973C42.1274 6.34762 41.7064 6.16236 41.2516 6.06131C40.6958 5.92657 40.1064 5.87604 39.5506 5.80868C39.3653 5.77499 39.1969 5.75815 39.0622 5.74131C37.7485 5.57289 36.4348 5.30341 35.1043 5.25289C34.7001 5.20236 34.4474 5.15183 33.7232 5.11815L33.0832 5.05078L32.9485 8.45289C34.3801 8.58762 35.8453 8.65499 37.2432 8.92447L38.6579 9.19394C40.8306 9.74973 42.9864 10.3392 44.9401 11.2824C46.0348 11.7876 47.1127 12.3434 48.1064 13.0003C49.6895 13.9266 51.0201 15.2066 52.3001 16.5203C54.6411 19.5013 56.1401 23.1392 56.679 27.0297C57.0158 29.4887 57.3864 34.1708 56.0895 39.1729C55.4327 41.6655 54.3043 44.1918 52.6369 46.3645C50.9864 48.5371 48.7801 50.2887 46.4053 51.5181C45.7148 51.8718 45.0074 52.175 44.2832 52.4613L43.879 52.596C43.1211 52.815 42.3632 52.9497 41.6053 53.1013C40.359 53.3539 39.1127 53.7076 37.8158 53.7918C37.1085 53.8592 36.4516 53.9097 35.6769 53.9771C35.1211 54.0276 34.5822 53.9939 34.0264 54.0276C33.9085 54.0276 33.8074 54.0276 33.6895 54.0276H33.1001L32.8979 57.4466L32.9148 57.4803Z" fill="#C6B3D2"/>
<path d="M33.1001 5.08639C31.4159 5.03586 29.7317 5.10323 28.0643 5.30534C27.3906 5.33902 26.7169 5.40639 26.0433 5.50744C25.6896 5.55797 25.3359 5.6085 24.9822 5.67586C22.4054 6.1306 19.9296 7.07376 17.6054 8.30323C17.3022 8.45481 17.0159 8.62323 16.7296 8.8085C16.2075 9.1285 15.7527 9.53271 15.298 9.92007C14.0011 10.8295 12.8054 11.8569 11.6938 12.9853L11.4917 13.1874C9.68957 15.0232 8.17378 17.1959 7.07904 19.5369C6.62431 20.4801 6.25378 21.4738 5.91694 22.4674C5.7822 22.9727 5.61378 23.4611 5.49588 23.9664C5.42852 24.219 5.39483 24.4717 5.31062 24.7243C5.24325 24.9432 5.19273 25.1285 5.22641 25.3643C5.24325 25.5495 5.27694 25.7853 5.31062 25.9538C5.36115 26.5095 5.19273 27.099 5.1422 27.6548C5.09167 28.2948 5.05799 28.9348 5.05799 29.5748C5.02431 30.8717 5.15904 32.118 5.27694 33.3643C5.31062 34.0717 5.44536 34.779 5.56325 35.5032C5.68115 36.3117 5.71483 37.1369 5.90009 37.9622C6.05167 38.8211 6.27062 39.6632 6.59062 40.4885C6.91062 41.5327 7.43273 42.5095 7.93799 43.4864C8.47694 44.5138 8.9822 45.5243 9.55483 46.5348C10.1106 47.4443 10.818 48.3201 11.5759 49.078C12.3506 49.9874 13.2938 50.7285 14.1864 51.5032C15.2138 52.2274 16.1906 53.0022 17.319 53.5411C18.4475 54.198 19.6601 54.619 20.839 55.0906C20.9233 55.1917 20.8054 55.0064 20.9401 55.0401C21.2264 55.0906 21.5969 55.1748 21.9169 55.2422L22.2201 55.3432L22.0685 55.3095L22.2369 55.3432C22.658 55.4948 23.0959 55.6632 23.5338 55.7643C23.9548 55.9495 24.359 56.1348 24.7969 56.2695C25.3527 56.438 25.9254 56.5053 26.498 56.5559C26.7001 56.5727 26.8517 56.6064 26.9864 56.6232C28.2833 56.9095 29.5969 57.078 30.9106 57.2295C31.3148 57.2969 31.5675 57.3643 32.2917 57.398L32.9317 57.4653L33.1338 54.0632C31.719 53.9622 30.2706 53.7264 28.839 53.5074L27.4243 53.1706C25.2348 52.6485 23.1127 51.958 21.1254 51.0148C19.9969 50.5264 18.9696 49.9201 17.9422 49.2969C16.3927 48.3032 14.978 47.1411 13.7148 45.7938C11.3064 42.8632 9.7401 39.2253 9.08325 35.3517C8.69588 32.8759 7.98852 28.2611 9.48746 23.3601C10.8685 18.4422 14.8096 13.659 19.6433 11.2506C20.3338 10.8801 21.0411 10.5601 21.7654 10.2906L22.1696 10.1559C22.9275 9.93692 23.6854 9.78534 24.4601 9.61692C25.7064 9.3306 26.9527 8.96008 28.2496 8.84218C28.9569 8.75797 29.6138 8.6906 30.3885 8.60639C30.9443 8.55586 31.4833 8.55586 32.0222 8.52218C32.1401 8.52218 32.2412 8.52218 32.359 8.52218L32.9485 8.4885L33.0833 5.08639H33.1001Z" fill="#C6B3D2"/>
</svg>
