<svg width="20" height="20" viewBox="0 0 20 20" fill="none" xmlns="http://www.w3.org/2000/svg">
<path d="M10.0001 1.66406C5.40841 1.66406 1.66675 5.40573 1.66675 9.9974C1.66675 14.5891 5.40841 18.3307 10.0001 18.3307C14.5917 18.3307 18.3334 14.5891 18.3334 9.9974C18.3334 5.40573 14.5917 1.66406 10.0001 1.66406ZM13.9834 8.08073L9.25841 12.8057C9.14175 12.9224 8.98342 12.9891 8.81675 12.9891C8.65008 12.9891 8.49175 12.9224 8.37508 12.8057L6.01675 10.4474C5.77508 10.2057 5.77508 9.80573 6.01675 9.56406C6.25841 9.3224 6.65841 9.3224 6.90008 9.56406L8.81675 11.4807L13.1001 7.1974C13.3417 6.95573 13.7417 6.95573 13.9834 7.1974C14.2251 7.43906 14.2251 7.83073 13.9834 8.08073Z" fill="#30C066"/>
</svg>
