<svg width="20" height="20" viewBox="0 0 20 20" fill="none" xmlns="http://www.w3.org/2000/svg">
<path d="M11.6667 2.43073V9.35573C11.6667 10.2057 10.9751 10.8974 10.1251 10.8974H2.50008C2.04175 10.8974 1.66675 10.5224 1.66675 10.0641V4.73906C1.66675 3.03906 3.04175 1.66406 4.74175 1.66406H10.8917C11.3251 1.66406 11.6667 2.00573 11.6667 2.43073Z" fill="#FCC400"/>
<path d="M17.9167 12.9141C18.1501 12.9141 18.3334 13.0974 18.3334 13.3307V14.1641C18.3334 15.5474 17.2167 16.6641 15.8334 16.6641C15.8334 15.2891 14.7084 14.1641 13.3334 14.1641C11.9584 14.1641 10.8334 15.2891 10.8334 16.6641H9.16675C9.16675 15.2891 8.04175 14.1641 6.66675 14.1641C5.29175 14.1641 4.16675 15.2891 4.16675 16.6641C2.78341 16.6641 1.66675 15.5474 1.66675 14.1641V12.4974C1.66675 12.0391 2.04175 11.6641 2.50008 11.6641H10.4167C11.5667 11.6641 12.5001 10.7307 12.5001 9.58073V4.9974C12.5001 4.53906 12.8751 4.16406 13.3334 4.16406H14.0334C14.6334 4.16406 15.1834 4.48906 15.4834 5.00573L16.0167 5.93906C16.0917 6.0724 15.9917 6.2474 15.8334 6.2474C14.6834 6.2474 13.7501 7.18073 13.7501 8.33073V10.8307C13.7501 11.9807 14.6834 12.9141 15.8334 12.9141H17.9167Z" fill="#FCC400"/>
<path d="M6.66675 18.3307C7.58722 18.3307 8.33342 17.5845 8.33342 16.6641C8.33342 15.7436 7.58722 14.9974 6.66675 14.9974C5.74627 14.9974 5.00008 15.7436 5.00008 16.6641C5.00008 17.5845 5.74627 18.3307 6.66675 18.3307Z" fill="#FCC400"/>
<path d="M13.3334 18.3307C14.2539 18.3307 15.0001 17.5845 15.0001 16.6641C15.0001 15.7436 14.2539 14.9974 13.3334 14.9974C12.4129 14.9974 11.6667 15.7436 11.6667 16.6641C11.6667 17.5845 12.4129 18.3307 13.3334 18.3307Z" fill="#FCC400"/>
<path d="M18.3334 10.4391V11.6641H15.8334C15.3751 11.6641 15.0001 11.2891 15.0001 10.8307V8.33073C15.0001 7.8724 15.3751 7.4974 15.8334 7.4974H16.9084L18.1167 9.61406C18.2584 9.86406 18.3334 10.1474 18.3334 10.4391Z" fill="#FCC400"/>
</svg>
