<svg width="64" height="64" viewBox="0 0 64 64" fill="none" xmlns="http://www.w3.org/2000/svg">
<path d="M32.8116 11.81C46.1337 12.349 53.4769 19.5069 53.4769 31.9532C53.4769 38.0837 51.5063 43.1195 47.7842 46.4879C43.86 50.0416 38.1506 51.6416 31.7169 51.0016C19.22 49.7721 12.5169 43.2037 11.8263 31.4648C11.5063 26.109 13.2748 21.1911 16.8116 17.5869C20.719 13.5953 26.4116 11.5574 32.8285 11.81H32.8116Z" fill="#C6B3D2"/>
<path d="M45.0221 38.4035C44.9547 38.2688 44.5 37.2919 42.3105 35.254C40.02 33.1151 40.3232 33.4688 43.0853 29.7804C44.7695 27.5235 45.4432 26.1593 45.2242 25.5698C45.0221 25.014 43.7926 25.1656 43.7926 25.1656H39.6663C39.6663 25.1656 39.3632 25.1656 39.1442 25.2835C38.9253 25.4182 38.7737 25.7214 38.7737 25.7214C38.7737 25.7214 38.1168 27.4561 37.2411 28.9382C35.4053 32.054 34.6811 32.2225 34.3779 32.0204C33.6874 31.5656 33.8558 30.2014 33.8558 29.2414C33.8558 26.2267 34.3105 24.9635 32.9632 24.6435C32.5253 24.5256 32.1884 24.4582 31.0432 24.4414C29.5779 24.4414 28.3316 24.4414 27.6242 24.7951C27.1526 25.014 26.7821 25.5361 27.0179 25.5698C27.2874 25.6035 27.9105 25.7382 28.2305 26.1761C28.6516 26.7488 28.6347 28.0456 28.6347 28.0456C28.6347 28.0456 28.8705 31.5993 28.0621 32.0372C27.5063 32.3404 26.7484 31.734 25.0979 28.9046C24.2558 27.4561 23.6326 25.8561 23.6326 25.8561C23.6326 25.8561 23.4979 25.553 23.2958 25.4014C23.0263 25.1993 22.6558 25.1488 22.6558 25.1488L18.7316 25.1825C18.7316 25.1825 18.1421 25.1825 17.9232 25.4519C17.7379 25.6709 17.9232 26.1425 17.9232 26.1425C17.9232 26.1425 20.9884 33.3172 24.4579 36.9382C27.6411 40.2561 31.2621 40.0372 31.2621 40.0372H32.8958C32.8958 40.0372 33.4011 39.9867 33.6368 39.7172C33.8726 39.4646 33.8558 38.993 33.8558 38.993C33.8558 38.993 33.8221 36.8035 34.8495 36.4667C35.86 36.1467 37.14 38.5888 38.5211 39.5319C39.5484 40.2393 40.34 40.0877 40.34 40.0877L43.9947 40.0372C43.9947 40.0372 45.9147 39.9193 45.0053 38.4204L45.0221 38.4035ZM45.0221 38.4035C44.9547 38.2688 44.5 37.2919 42.3105 35.254C40.02 33.1151 40.3232 33.4688 43.0853 29.7804C44.7695 27.5235 45.4432 26.1593 45.2242 25.5698C45.0221 25.014 43.7926 25.1656 43.7926 25.1656H39.6663C39.6663 25.1656 39.3632 25.1656 39.1442 25.2835C38.9253 25.4182 38.7737 25.7214 38.7737 25.7214C38.7737 25.7214 38.1168 27.4561 37.2411 28.9382C35.4053 32.054 34.6811 32.2225 34.3779 32.0204C33.6874 31.5656 33.8558 30.2014 33.8558 29.2414C33.8558 26.2267 34.3105 24.9635 32.9632 24.6435C32.5253 24.5256 32.1884 24.4582 31.0432 24.4414C29.5779 24.4414 28.3316 24.4414 27.6242 24.7951C27.1526 25.014 26.7821 25.5361 27.0179 25.5698C27.2874 25.6035 27.9105 25.7382 28.2305 26.1761C28.6516 26.7488 28.6347 28.0456 28.6347 28.0456C28.6347 28.0456 28.8705 31.5993 28.0621 32.0372C27.5063 32.3404 26.7484 31.734 25.0979 28.9046C24.2558 27.4561 23.6326 25.8561 23.6326 25.8561C23.6326 25.8561 23.4979 25.553 23.2958 25.4014C23.0263 25.1993 22.6558 25.1488 22.6558 25.1488L18.7316 25.1825C18.7316 25.1825 18.1421 25.1825 17.9232 25.4519C17.7379 25.6709 17.9232 26.1425 17.9232 26.1425C17.9232 26.1425 20.9884 33.3172 24.4579 36.9382C27.6411 40.2561 31.2621 40.0372 31.2621 40.0372H32.8958C32.8958 40.0372 33.4011 39.9867 33.6368 39.7172C33.8726 39.4646 33.8558 38.993 33.8558 38.993C33.8558 38.993 33.8221 36.8035 34.8495 36.4667C35.86 36.1467 37.14 38.5888 38.5211 39.5319C39.5484 40.2393 40.34 40.0877 40.34 40.0877L43.9947 40.0372C43.9947 40.0372 45.9147 39.9193 45.0053 38.4204L45.0221 38.4035ZM45.0221 38.4035C44.9547 38.2688 44.5 37.2919 42.3105 35.254C40.02 33.1151 40.3232 33.4688 43.0853 29.7804C44.7695 27.5235 45.4432 26.1593 45.2242 25.5698C45.0221 25.014 43.7926 25.1656 43.7926 25.1656H39.6663C39.6663 25.1656 39.3632 25.1656 39.1442 25.2835C38.9253 25.4182 38.7737 25.7214 38.7737 25.7214C38.7737 25.7214 38.1168 27.4561 37.2411 28.9382C35.4053 32.054 34.6811 32.2225 34.3779 32.0204C33.6874 31.5656 33.8558 30.2014 33.8558 29.2414C33.8558 26.2267 34.3105 24.9635 32.9632 24.6435C32.5253 24.5256 32.1884 24.4582 31.0432 24.4414C29.5779 24.4414 28.3316 24.4414 27.6242 24.7951C27.1526 25.014 26.7821 25.5361 27.0179 25.5698C27.2874 25.6035 27.9105 25.7382 28.2305 26.1761C28.6516 26.7488 28.6347 28.0456 28.6347 28.0456C28.6347 28.0456 28.8705 31.5993 28.0621 32.0372C27.5063 32.3404 26.7484 31.734 25.0979 28.9046C24.2558 27.4561 23.6326 25.8561 23.6326 25.8561C23.6326 25.8561 23.4979 25.553 23.2958 25.4014C23.0263 25.1993 22.6558 25.1488 22.6558 25.1488L18.7316 25.1825C18.7316 25.1825 18.1421 25.1825 17.9232 25.4519C17.7379 25.6709 17.9232 26.1425 17.9232 26.1425C17.9232 26.1425 20.9884 33.3172 24.4579 36.9382C27.6411 40.2561 31.2621 40.0372 31.2621 40.0372H32.8958C32.8958 40.0372 33.4011 39.9867 33.6368 39.7172C33.8726 39.4646 33.8558 38.993 33.8558 38.993C33.8558 38.993 33.8221 36.8035 34.8495 36.4667C35.86 36.1467 37.14 38.5888 38.5211 39.5319C39.5484 40.2393 40.34 40.0877 40.34 40.0877L43.9947 40.0372C43.9947 40.0372 45.9147 39.9193 45.0053 38.4204L45.0221 38.4035Z" fill="white"/>
<path d="M32.9147 57.4803C34.582 57.5645 36.2831 57.5308 37.9505 57.3624C38.6241 57.3455 39.2978 57.295 39.9715 57.2108C40.3252 57.1771 40.6789 57.1266 41.0326 57.0592C43.6094 56.655 46.1189 55.7455 48.4599 54.516C48.7462 54.3476 49.0326 54.1792 49.3357 53.9939C49.8578 53.6739 50.3126 53.2529 50.7841 52.8655C52.081 51.956 53.2768 50.8781 54.3378 49.6992L54.5399 49.4971C56.2915 47.5771 57.6726 45.3203 58.6662 42.9287C59.0536 41.9518 59.4073 40.975 59.6768 39.9645C59.8115 39.476 59.9462 38.9708 60.0473 38.4655C60.0978 38.2129 60.1484 37.9603 60.2157 37.7076C60.2662 37.4887 60.3168 37.3034 60.2999 37.0676C60.2662 36.8824 60.2326 36.6466 60.2157 36.4781C60.1652 35.9224 60.3168 35.3497 60.3841 34.7939C60.4178 34.1708 60.4852 33.5308 60.4852 32.9076C60.5526 31.6445 60.4347 30.3981 60.4178 29.135C60.3841 28.4276 60.2662 27.7034 60.1989 26.996C60.1315 26.1708 60.0641 25.3455 59.9294 24.5203C59.8284 23.6613 59.5926 22.8024 59.3062 21.9603C59.0368 20.8992 58.4978 19.9224 58.0431 18.9287C57.521 17.8845 57.0326 16.8739 56.4768 15.8466C55.921 14.9371 55.2473 14.0276 54.4726 13.2697C53.6978 12.3603 52.7884 11.5855 51.8789 10.8276C50.8515 10.1034 49.8915 9.29499 48.7462 8.75604C47.601 8.13289 46.422 7.64447 45.2094 7.20657C45.1252 7.08868 45.2431 7.29078 45.1084 7.2571C44.7884 7.15604 44.4684 7.10552 44.1315 7.05499L43.8284 6.95394L42.5315 6.54973C42.1273 6.34762 41.7062 6.16236 41.2515 6.06131C40.6957 5.92657 40.1062 5.87604 39.5505 5.80868C39.3652 5.77499 39.1968 5.75815 39.062 5.74131C37.7484 5.57289 36.4347 5.30341 35.1041 5.25289C34.6999 5.20236 34.4473 5.15183 33.7231 5.11815L33.0831 5.05078L32.9484 8.45289C34.3799 8.58762 35.8452 8.65499 37.2431 8.92447L38.6578 9.19394C40.8305 9.74973 42.9862 10.3392 44.9399 11.2824C46.0347 11.7876 47.1126 12.3434 48.1062 13.0003C49.6894 13.9266 51.0199 15.2066 52.2999 16.5203C54.641 19.5013 56.1399 23.1392 56.6789 27.0297C57.0157 29.4887 57.3862 34.1708 56.0894 39.1729C55.4326 41.6655 54.3041 44.1918 52.6368 46.3645C50.9862 48.5371 48.7799 50.2887 46.4052 51.5181C45.7147 51.8718 45.0073 52.175 44.2831 52.4613L43.8789 52.596C43.121 52.815 42.3631 52.9497 41.6052 53.1013C40.3589 53.3539 39.1126 53.7076 37.8157 53.7918C37.1084 53.8592 36.4515 53.9097 35.6768 53.9771C35.121 54.0276 34.582 53.9939 34.0262 54.0276C33.9084 54.0276 33.8073 54.0276 33.6894 54.0276H33.0999L32.8978 57.4466L32.9147 57.4803Z" fill="#C6B3D2"/>
<path d="M33.1 5.08639C31.4158 5.03586 29.7316 5.10323 28.0642 5.30534C27.3905 5.33902 26.7168 5.40639 26.0431 5.50744C25.6894 5.55797 25.3358 5.6085 24.9821 5.67586C22.4052 6.1306 19.9294 7.07376 17.6052 8.30323C17.3021 8.45481 17.0158 8.62323 16.7294 8.8085C16.2073 9.1285 15.7526 9.53271 15.2979 9.92007C14.001 10.8295 12.8052 11.8569 11.6937 12.9853L11.4916 13.1874C9.68945 15.0232 8.17366 17.1959 7.07892 19.5369C6.62418 20.4801 6.25366 21.4738 5.91681 22.4674C5.78208 22.9727 5.61366 23.4611 5.49576 23.9664C5.42839 24.219 5.39471 24.4717 5.3105 24.7243C5.24313 24.9432 5.1926 25.1285 5.22629 25.3643C5.24313 25.5495 5.27681 25.7853 5.3105 25.9538C5.36103 26.5095 5.1926 27.099 5.14208 27.6548C5.09155 28.2948 5.05787 28.9348 5.05787 29.5748C5.02418 30.8717 5.15892 32.118 5.27681 33.3643C5.3105 34.0717 5.44524 34.779 5.56313 35.5032C5.68103 36.3117 5.71471 37.1369 5.89997 37.9622C6.05155 38.8211 6.2705 39.6632 6.5905 40.4885C6.9105 41.5327 7.4326 42.5095 7.93787 43.4864C8.47681 44.5138 8.98208 45.5243 9.55471 46.5348C10.1105 47.4443 10.8179 48.3201 11.5758 49.078C12.3505 49.9874 13.2937 50.7285 14.1863 51.5032C15.2137 52.2274 16.1905 53.0022 17.3189 53.5411C18.4473 54.198 19.66 54.619 20.8389 55.0906C20.9231 55.1917 20.8052 55.0064 20.94 55.0401C21.2263 55.0906 21.5968 55.1748 21.9168 55.2422L22.22 55.3432L22.0684 55.3095L22.2368 55.3432C22.6579 55.4948 23.0958 55.6632 23.5337 55.7643C23.9547 55.9495 24.3589 56.1348 24.7968 56.2695C25.3526 56.438 25.9252 56.5053 26.4979 56.5559C26.7 56.5727 26.8516 56.6064 26.9863 56.6232C28.2831 56.9095 29.5968 57.078 30.9105 57.2295C31.3147 57.2969 31.5673 57.3643 32.2916 57.398L32.9316 57.4653L33.1337 54.0632C31.7189 53.9622 30.2705 53.7264 28.8389 53.5074L27.4242 53.1706C25.2347 52.6485 23.1126 51.958 21.1252 51.0148C19.9968 50.5264 18.9694 49.9201 17.9421 49.2969C16.3926 48.3032 14.9779 47.1411 13.7147 45.7938C11.3063 42.8632 9.73997 39.2253 9.08313 35.3517C8.69576 32.8759 7.98839 28.2611 9.48734 23.3601C10.8684 18.4422 14.8094 13.659 19.6431 11.2506C20.3337 10.8801 21.041 10.5601 21.7652 10.2906L22.1694 10.1559C22.9273 9.93692 23.6852 9.78534 24.46 9.61692C25.7063 9.3306 26.9526 8.96008 28.2494 8.84218C28.9568 8.75797 29.6137 8.6906 30.3884 8.60639C30.9442 8.55586 31.4831 8.55586 32.0221 8.52218C32.14 8.52218 32.241 8.52218 32.3589 8.52218L32.9484 8.4885L33.0831 5.08639H33.1Z" fill="#C6B3D2"/>
</svg>
