<svg width="64" height="64" viewBox="0 0 64 64" fill="none" xmlns="http://www.w3.org/2000/svg">
<path fill-rule="evenodd" clip-rule="evenodd" d="M53.4769 31.9532C53.4769 19.5069 46.1337 12.349 32.8116 11.81H32.8285C26.4116 11.5574 20.719 13.5953 16.8116 17.5869C13.2748 21.1911 11.5063 26.109 11.8263 31.4648C12.5169 43.2037 19.22 49.7721 31.7169 51.0016C38.1506 51.6416 43.86 50.0416 47.7842 46.4879C51.5063 43.1195 53.4769 38.0837 53.4769 31.9532ZM30.9878 45.3329H31.4106C31.4414 45.3278 31.4722 45.3223 31.5029 45.3168C31.5701 45.3047 31.6374 45.2926 31.705 45.2854C32.2294 45.2299 32.7429 45.1217 33.2391 44.9349C34.0462 44.6323 34.7822 44.1562 35.3987 43.5378C35.7852 43.1525 36.1128 42.7183 36.3903 42.2437C36.45 42.1406 36.5031 42.0334 36.5562 41.9265L36.5562 41.9265C36.5724 41.8939 36.5885 41.8614 36.6048 41.829C36.6582 41.7231 36.6796 41.716 36.7686 41.7966C37.0251 42.0302 37.2939 42.2447 37.5954 42.4148C38.0293 42.6596 38.4898 42.8188 38.9793 42.8834C39.7374 42.9841 40.4605 42.8467 41.1508 42.5149C41.9075 42.1512 42.4835 41.584 42.9012 40.84L42.9195 40.8073C42.9412 40.7684 42.9629 40.7296 42.9862 40.6917C43.0271 40.6254 43.0398 40.6215 43.114 40.6476C43.1455 40.6587 43.1765 40.6713 43.2073 40.6843C43.6372 40.8656 44.0847 40.9624 44.5484 40.9533C45.6846 40.931 46.6516 40.5017 47.4343 39.6426C47.9808 39.0424 48.3283 38.339 48.4766 37.5325C48.6616 36.5253 48.5198 35.5647 48.0667 34.6535C47.7746 34.0662 47.3644 33.5849 46.8473 33.1995C46.8137 33.1757 46.7817 33.1496 46.7514 33.1215C46.6998 33.0711 46.6838 33.0079 46.6861 32.934C46.6896 32.8245 46.6936 32.715 46.6977 32.6055L46.6977 32.6053C46.7095 32.2899 46.7213 31.9745 46.7176 31.6592C46.7108 31.2452 46.6708 30.8324 46.5979 30.4252C46.4134 29.3686 46.0574 28.3812 45.5012 27.4727C44.8678 26.437 44.0668 25.5717 43.0677 24.908C43.0034 24.8654 42.9621 24.8136 42.9453 24.7395C42.9343 24.6913 42.9242 24.6428 42.914 24.5944C42.8991 24.5231 42.8841 24.4519 42.8666 24.3814C42.365 22.3641 41.2683 20.7976 39.5522 19.7015C38.8323 19.2419 38.0499 18.9501 37.2223 18.7813C36.7628 18.6876 36.299 18.6596 35.8308 18.6675C34.766 18.6855 33.7558 18.94 32.808 19.4372C31.7177 20.0093 30.8223 20.8192 30.1194 21.8586C29.6377 22.5702 29.3066 23.3507 29.0841 24.1848C29.071 24.234 29.0594 24.2836 29.0479 24.3332L29.0478 24.3333L29.0478 24.3333L29.0478 24.3333L29.0478 24.3333L29.0478 24.3335L29.0478 24.3336C29.036 24.3842 29.0242 24.4348 29.0108 24.4849C29.0053 24.5054 28.9947 24.5244 28.9816 24.548L28.9816 24.548C28.9753 24.5595 28.9683 24.572 28.961 24.5863C28.9385 24.5574 28.917 24.5304 28.8963 24.5044L28.896 24.5041C28.8531 24.4501 28.8139 24.4006 28.7764 24.3497C28.0565 23.37 27.1601 22.6155 26.087 22.086C25.5086 21.8008 24.8974 21.6275 24.2673 21.5163C23.7681 21.4282 23.2652 21.4051 22.762 21.4337C21.7198 21.4936 20.7407 21.7895 19.8186 22.2974C19.0801 22.7039 18.4374 23.2335 17.8828 23.8773C17.0747 24.8156 16.5288 25.8939 16.2449 27.1123C16.1799 27.392 16.1361 27.6771 16.0924 27.9619L16.0924 27.9621C16.0809 28.0367 16.0695 28.1113 16.0577 28.1857C16.0467 28.2549 16.0441 28.3253 16.0414 28.3959C16.0396 28.4445 16.0378 28.493 16.0333 28.5412C16.0308 28.5707 16.0217 28.5997 16.0127 28.6286C16.0082 28.643 16.0036 28.6574 15.9999 28.6719V29.1556C16.005 29.1896 16.0107 29.2237 16.0165 29.2578C16.0293 29.3326 16.042 29.4077 16.0468 29.483C16.1123 30.522 16.3795 31.5035 16.8373 32.4287C16.9425 32.6413 17.0646 32.845 17.1865 33.0484L17.2425 33.142C17.2856 33.2142 17.287 33.2664 17.2425 33.3384L17.1986 33.4094C17.0853 33.5921 16.9717 33.7754 16.8754 33.9676C16.6602 34.3931 16.5287 34.8585 16.4886 35.337C16.4317 36.0123 16.4969 36.6704 16.7595 37.2954C17.1391 38.1991 17.745 38.891 18.6009 39.3357C18.9755 39.5301 19.3811 39.6522 19.798 39.6961C20.2658 39.7465 20.7299 39.7328 21.1842 39.5968C21.4793 39.5086 21.7693 39.4044 22.037 39.2431C22.1369 39.1829 22.1731 39.1973 22.2399 39.3152C22.3914 39.5842 22.5881 39.8109 22.8364 39.9873C23.208 40.2516 23.6197 40.3842 24.0714 40.3531C24.3965 40.3308 24.7033 40.2347 24.9788 40.0468C25.0035 40.0299 25.0292 40.0148 25.0559 40.0017C25.0665 39.9966 25.0785 39.9943 25.0919 39.9917C25.0987 39.9905 25.1058 39.9891 25.1132 39.9873C25.1527 40.0546 25.167 40.128 25.1811 40.2005L25.1818 40.2039C25.2197 40.3993 25.2754 40.5888 25.3366 40.7782C25.3506 40.8214 25.3644 40.8646 25.3782 40.9077L25.3783 40.9079C25.4398 41.1008 25.5011 41.2933 25.5814 41.4795C26.1861 42.8827 27.1452 43.9424 28.4637 44.6463C29.0335 44.9512 29.65 45.1512 30.286 45.2374C30.4082 45.2541 30.5309 45.2678 30.6535 45.2815L30.6536 45.2815L30.6536 45.2815L30.6537 45.2815C30.7332 45.2904 30.8127 45.2993 30.8921 45.3089C30.9244 45.3148 30.9564 45.3228 30.9878 45.3329ZM23.9623 35.4706C23.9657 35.5347 23.9689 35.5971 24.0254 35.6366V35.6364C24.072 35.6304 24.0857 35.6012 24.0878 35.5632C24.1209 35.0794 24.2415 34.6143 24.3622 34.1492L24.4002 34.0021C24.7176 32.7622 25.0357 31.5223 25.3547 30.2825C25.5693 29.4501 25.7841 28.6176 25.9991 27.7852C26.036 27.6431 26.0494 27.6316 26.1897 27.6316H28.1798C28.3366 27.6316 28.3514 27.6424 28.3889 27.8053C28.4427 28.0393 28.4959 28.2732 28.5491 28.5071L28.5494 28.5084L28.5498 28.5102C28.5972 28.7187 28.6446 28.9272 28.6925 29.1357L29.2248 31.4492C29.2848 31.7101 29.3451 31.9709 29.4053 32.2318L29.4055 32.2327L29.4058 32.2335L29.406 32.2345C29.5761 32.9709 29.7462 33.7073 29.9109 34.4451C29.9555 34.6445 29.9862 34.8471 30.0169 35.0498L30.0169 35.05C30.0303 35.1387 30.0437 35.2274 30.0583 35.3158C30.0698 35.3854 30.0807 35.4551 30.0926 35.5313L30.0926 35.5315L30.1108 35.6479C30.1723 35.5733 30.1793 35.5026 30.1813 35.4383C30.1928 35.0475 30.2704 34.6677 30.3479 34.2882L30.3479 34.2881L30.348 34.288L30.348 34.2879L30.348 34.2878C30.3691 34.1844 30.3902 34.0811 30.41 33.9776C30.5613 33.1848 30.7143 32.3924 30.869 31.6005C30.8908 31.4889 30.9156 31.3781 30.9404 31.2672L30.9404 31.2672C30.9654 31.1558 30.9903 31.0445 31.0121 30.9326L31.5174 28.3193C31.5427 28.1895 31.5686 28.06 31.5946 27.9301L31.6294 27.7561C31.6486 27.6622 31.6793 27.6359 31.7741 27.6308C31.7914 27.6303 31.8087 27.6304 31.826 27.6306L31.852 27.6308H33.6198C33.6285 27.6308 33.6371 27.6306 33.6458 27.6304C33.6631 27.6301 33.6804 27.6297 33.6976 27.6308C33.7861 27.6363 33.8105 27.6664 33.7904 27.7561C33.772 27.8391 33.751 27.9214 33.73 28.0037L33.7183 28.0498L33.7026 28.1123C33.3462 29.544 32.9904 30.9758 32.6353 32.4076C32.6208 32.466 32.6093 32.5252 32.5978 32.5844L32.5978 32.5844L32.5978 32.5844L32.5978 32.5844L32.5977 32.5844C32.5859 32.6452 32.5741 32.7059 32.5591 32.7659C32.5471 32.8138 32.5313 32.8608 32.5156 32.9078C32.5 32.9544 32.4844 33.0011 32.4724 33.0487C32.2992 33.7341 32.1279 34.4199 31.9585 35.1062C31.8388 35.5916 31.72 36.0773 31.6013 36.5629L31.6012 36.5636C31.5176 36.9056 31.4339 37.2476 31.35 37.5895C31.3351 37.65 31.3174 37.7097 31.2996 37.7695L31.2996 37.7696L31.2893 37.8041L31.278 37.8428C31.2598 37.9061 31.2207 37.9384 31.1548 37.9337C31.1352 37.9323 31.1154 37.9328 31.0956 37.9332H31.0956H31.0955H31.0955H31.0955L31.084 37.9335L31.0658 37.9337H29.0533L29.0272 37.9339C29.0099 37.934 28.9927 37.9342 28.9754 37.9337C28.8685 37.9303 28.8521 37.9173 28.824 37.8057C28.8138 37.765 28.8046 37.724 28.7954 37.683C28.787 37.6457 28.7786 37.6084 28.7695 37.5713C28.7064 37.3153 28.643 37.0593 28.5796 36.8034C28.495 36.4621 28.4104 36.1209 28.3268 35.7794C28.0438 34.6213 27.7621 33.4627 27.4819 32.3034L27.4357 32.1132C27.3508 31.7644 27.2658 31.4154 27.1947 31.0636C27.1601 30.8928 27.1421 30.7185 27.1241 30.5442L27.1241 30.5441C27.1161 30.4668 27.1081 30.3895 27.0987 30.3126L27.0989 30.3049C27.0991 30.2998 27.0993 30.2946 27.0987 30.2895C27.095 30.2584 27.0903 30.2211 27.0513 30.2283C27.0359 30.2312 27.0167 30.2649 27.0137 30.2867C27.0021 30.3709 26.9921 30.4553 26.9821 30.5398C26.9741 30.6074 26.9661 30.6751 26.9573 30.7426C26.9096 31.1098 26.82 31.4677 26.7304 31.8254L26.7206 31.8643L25.6569 36.1128C25.6351 36.1999 25.6137 36.2871 25.5922 36.3744C25.5526 36.5358 25.5129 36.6972 25.4708 36.8579C25.3994 37.1303 25.3253 37.4018 25.2512 37.6734L25.2116 37.8186C25.186 37.9126 25.1639 37.9291 25.0575 37.9291C24.843 37.9295 24.6282 37.9293 24.4132 37.9292H24.4132H24.4131H24.413H24.4129L24.0903 37.9291C23.668 37.9296 23.2455 37.9296 22.8228 37.9291C22.6963 37.9289 22.6779 37.9161 22.6459 37.7882C22.5006 37.2065 22.3555 36.6244 22.2103 36.0421C21.9722 35.0853 21.7348 34.1283 21.4983 33.171C21.462 33.0235 21.4272 32.8755 21.3923 32.7275L21.3923 32.7274L21.3923 32.7273L21.3923 32.7272L21.3922 32.727L21.3922 32.727L21.3922 32.7269L21.3922 32.7269L21.3922 32.7268C21.3369 32.4916 21.2816 32.2564 21.2202 32.0234C21.0539 31.3925 20.899 30.7587 20.7442 30.1248L20.7442 30.1247C20.6426 29.7086 20.5409 29.2924 20.436 28.8771C20.3699 28.6151 20.306 28.3525 20.2421 28.0899L20.2421 28.0897L20.168 27.786C20.1622 27.7639 20.158 27.7413 20.1556 27.7184C20.1515 27.6728 20.174 27.6443 20.2162 27.6371C20.2494 27.6327 20.2829 27.631 20.3163 27.6322H22.3176L22.3361 27.6319C22.3485 27.6317 22.3609 27.6315 22.3732 27.6322C22.4714 27.6379 22.5018 27.665 22.5219 27.7675C22.5383 27.8517 22.5546 27.936 22.5708 28.0202L22.5709 28.0207C22.6024 28.1842 22.6339 28.3475 22.6666 28.5106C22.7102 28.7281 22.7543 28.9455 22.7984 29.1629L22.7985 29.1636L22.7985 29.1637L22.7985 29.1637L22.7985 29.1638C22.8631 29.4821 22.9277 29.8003 22.9907 30.1189C23.0474 30.4045 23.1027 30.6903 23.158 30.9762L23.1581 30.9763L23.1581 30.9764L23.1581 30.9765L23.1581 30.9766L23.1582 30.9772C23.2111 31.2505 23.264 31.5238 23.3181 31.7968C23.3789 32.1054 23.4409 32.4138 23.5029 32.7223L23.503 32.7228L23.503 32.7229L23.5031 32.723L23.5031 32.7231C23.5805 33.1081 23.6579 33.493 23.733 33.8784C23.8048 34.2462 23.8722 34.6152 23.9306 34.9854C23.9486 35.0994 23.9526 35.2158 23.9566 35.3321C23.9582 35.377 23.9597 35.4219 23.9621 35.4667L23.9623 35.4706ZM37.8624 37.9299L37.2879 37.9301L35.3435 37.9284L35.3138 37.9286C35.294 37.9288 35.2742 37.9289 35.2545 37.9284C35.1351 37.9249 35.1024 37.8929 35.0981 37.772C35.0965 37.7246 35.0966 37.6772 35.0968 37.6298L35.0969 37.5878V33.7794C35.0973 31.8056 35.0975 29.8318 35.0975 27.858C35.0975 27.6429 35.1108 27.63 35.317 27.63C35.614 27.63 35.9109 27.6297 36.2078 27.6293C36.9189 27.6285 37.6301 27.6277 38.3412 27.6321C38.7114 27.6344 39.0839 27.6407 39.451 27.6817C40.042 27.7474 40.606 27.9258 41.1078 28.2628C41.5808 28.5805 41.8668 29.0387 41.9606 29.619C41.9614 29.6268 41.9628 29.6345 41.9648 29.642C42.0292 29.8372 42.0143 30.0374 41.9996 30.2356L41.9996 30.2358L41.9996 30.2359L41.9996 30.236C41.9977 30.2611 41.9958 30.2862 41.9941 30.3112C41.9783 30.5375 41.9203 30.7586 41.8232 30.9621C41.7199 31.1811 41.5768 31.3705 41.4211 31.5518C41.1089 31.9138 40.7168 32.1429 40.2829 32.3071C40.2547 32.3162 40.2275 32.3286 40.2019 32.344C40.1667 32.3676 40.1658 32.4061 40.2019 32.4269C40.2341 32.4452 40.2693 32.4569 40.3057 32.4614C40.7316 32.5083 41.1357 32.6801 41.4705 32.9566C41.6271 33.0843 41.7844 33.215 41.9026 33.3852C41.9562 33.4628 42.006 33.5426 42.0535 33.624C42.351 34.1338 42.439 34.6864 42.365 35.2718C42.3186 35.6355 42.233 35.9864 42.0647 36.3122C41.8032 36.8183 41.4158 37.194 40.933 37.4657C40.5368 37.6883 40.1057 37.8047 39.6639 37.8841C39.4477 37.9228 39.23 37.9307 39.0112 37.9301C38.6283 37.9294 38.2454 37.9297 37.8625 37.9299H37.8625H37.8624H37.8624H37.8624ZM47.9637 24.0005C48.5802 23.5726 48.8765 22.9653 48.8864 22.204C48.9011 21.9185 48.8492 21.6336 48.7351 21.3733C48.3803 20.5616 47.7728 20.1179 46.9098 20.0807C46.5448 20.0651 46.2004 20.1739 45.885 20.3708C45.1458 20.8325 44.7768 21.7099 44.9294 22.6022C45.0998 23.598 45.9446 24.3743 46.9816 24.3208C47.3376 24.3025 47.6685 24.2045 47.9637 24.0005ZM37.2915 34.8734V33.7013C37.2904 33.6744 37.291 33.6475 37.2931 33.6207C37.3026 33.5414 37.3306 33.5108 37.4074 33.5107C37.5223 33.5106 37.6373 33.5096 37.7523 33.5086C38.0632 33.506 38.3742 33.5033 38.6845 33.5169C39.0575 33.5333 39.4039 33.6512 39.6877 33.92C39.8901 34.1118 40.0348 34.3389 40.0721 34.6257C40.192 35.5503 39.6377 36.039 39.0106 36.1893C38.8824 36.22 38.7473 36.2304 38.615 36.2324C38.3454 36.2363 38.0757 36.2356 37.8059 36.2348C37.698 36.2345 37.5901 36.2342 37.4823 36.2342L37.4563 36.2344C37.4428 36.2346 37.4292 36.2348 37.4156 36.2345L37.4044 36.2342C37.3182 36.2295 37.2966 36.2067 37.2917 36.1145C37.2907 36.0967 37.291 36.0788 37.2914 36.0609L37.2916 36.043L37.2917 36.0339V34.8734H37.2915ZM37.3263 29.3498L37.3263 29.3499C37.3186 29.3517 37.3101 29.3538 37.3004 29.3557C37.2998 29.3624 37.2991 29.3691 37.2984 29.3758C37.2977 29.383 37.2969 29.3901 37.2961 29.3972C37.2931 29.4245 37.2902 29.4515 37.2898 29.4786C37.2896 30.1918 37.2897 30.905 37.2903 31.6181C37.2905 31.7542 37.307 31.7714 37.437 31.7714C37.5187 31.7715 37.6003 31.7718 37.682 31.7722H37.6822C37.908 31.7732 38.1338 31.7742 38.3595 31.7694C38.4889 31.7682 38.6178 31.7524 38.7439 31.7223C39.0671 31.6406 39.3387 31.4692 39.5338 31.1842C39.6974 30.9449 39.7222 30.6735 39.6926 30.3921C39.6669 30.149 39.5853 29.9294 39.4126 29.7567C39.167 29.511 38.8712 29.3613 38.5306 29.3473C38.2598 29.3362 37.9883 29.3387 37.7166 29.3413C37.599 29.3424 37.4814 29.3435 37.3638 29.3435C37.3522 29.3435 37.3406 29.3463 37.3263 29.3498Z" fill="#C6B3D2"/>
<path d="M32.9147 57.4803C34.582 57.5645 36.2831 57.5308 37.9505 57.3624C38.6241 57.3455 39.2978 57.295 39.9715 57.2108C40.3252 57.1771 40.6789 57.1266 41.0326 57.0592C43.6094 56.655 46.1189 55.7455 48.4599 54.516C48.7462 54.3476 49.0326 54.1792 49.3357 53.9939C49.8578 53.6739 50.3126 53.2529 50.7841 52.8655C52.081 51.956 53.2768 50.8781 54.3378 49.6992L54.5399 49.4971C56.2915 47.5771 57.6726 45.3203 58.6662 42.9287C59.0536 41.9518 59.4073 40.975 59.6768 39.9645C59.8115 39.476 59.9462 38.9708 60.0473 38.4655C60.0978 38.2129 60.1484 37.9603 60.2157 37.7076C60.2662 37.4887 60.3168 37.3034 60.2999 37.0676C60.2662 36.8824 60.2326 36.6466 60.2157 36.4781C60.1652 35.9224 60.3168 35.3497 60.3841 34.7939C60.4178 34.1708 60.4852 33.5308 60.4852 32.9076C60.5526 31.6445 60.4347 30.3981 60.4178 29.135C60.3841 28.4276 60.2662 27.7034 60.1989 26.996C60.1315 26.1708 60.0641 25.3455 59.9294 24.5203C59.8284 23.6613 59.5926 22.8024 59.3062 21.9603C59.0368 20.8992 58.4978 19.9224 58.0431 18.9287C57.521 17.8845 57.0326 16.8739 56.4768 15.8466C55.921 14.9371 55.2473 14.0276 54.4726 13.2697C53.6978 12.3603 52.7884 11.5855 51.8789 10.8276C50.8515 10.1034 49.8915 9.29499 48.7462 8.75604C47.601 8.13289 46.422 7.64447 45.2094 7.20657C45.1252 7.08868 45.2431 7.29078 45.1084 7.2571C44.7884 7.15604 44.4684 7.10552 44.1315 7.05499L43.8284 6.95394L42.5315 6.54973C42.1273 6.34762 41.7062 6.16236 41.2515 6.06131C40.6957 5.92657 40.1062 5.87604 39.5505 5.80868C39.3652 5.77499 39.1968 5.75815 39.062 5.74131C37.7484 5.57289 36.4347 5.30341 35.1041 5.25289C34.6999 5.20236 34.4473 5.15183 33.7231 5.11815L33.0831 5.05078L32.9484 8.45289C34.3799 8.58762 35.8452 8.65499 37.2431 8.92447L38.6578 9.19394C40.8305 9.74973 42.9862 10.3392 44.9399 11.2824C46.0347 11.7876 47.1126 12.3434 48.1062 13.0003C49.6894 13.9266 51.0199 15.2066 52.2999 16.5203C54.641 19.5013 56.1399 23.1392 56.6789 27.0297C57.0157 29.4887 57.3862 34.1708 56.0894 39.1729C55.4326 41.6655 54.3041 44.1918 52.6368 46.3645C50.9862 48.5371 48.7799 50.2887 46.4052 51.5181C45.7147 51.8718 45.0073 52.175 44.2831 52.4613L43.8789 52.596C43.121 52.815 42.3631 52.9497 41.6052 53.1013C40.3589 53.3539 39.1126 53.7076 37.8157 53.7918C37.1084 53.8592 36.4515 53.9097 35.6768 53.9771C35.121 54.0276 34.582 53.9939 34.0262 54.0276C33.9084 54.0276 33.8073 54.0276 33.6894 54.0276H33.0999L32.8978 57.4466L32.9147 57.4803Z" fill="#C6B3D2"/>
<path d="M33.1 5.08639C31.4158 5.03586 29.7316 5.10323 28.0642 5.30534C27.3905 5.33902 26.7168 5.40639 26.0431 5.50744C25.6894 5.55797 25.3358 5.6085 24.9821 5.67586C22.4052 6.1306 19.9294 7.07376 17.6052 8.30323C17.3021 8.45481 17.0158 8.62323 16.7294 8.8085C16.2073 9.1285 15.7526 9.53271 15.2979 9.92007C14.001 10.8295 12.8052 11.8569 11.6937 12.9853L11.4916 13.1874C9.68945 15.0232 8.17366 17.1959 7.07892 19.5369C6.62418 20.4801 6.25366 21.4738 5.91681 22.4674C5.78208 22.9727 5.61366 23.4611 5.49576 23.9664C5.42839 24.219 5.39471 24.4717 5.3105 24.7243C5.24313 24.9432 5.1926 25.1285 5.22629 25.3643C5.24313 25.5495 5.27681 25.7853 5.3105 25.9538C5.36103 26.5095 5.1926 27.099 5.14208 27.6548C5.09155 28.2948 5.05787 28.9348 5.05787 29.5748C5.02418 30.8717 5.15892 32.118 5.27681 33.3643C5.3105 34.0717 5.44524 34.779 5.56313 35.5032C5.68103 36.3117 5.71471 37.1369 5.89997 37.9622C6.05155 38.8211 6.2705 39.6632 6.5905 40.4885C6.9105 41.5327 7.4326 42.5095 7.93787 43.4864C8.47681 44.5138 8.98208 45.5243 9.55471 46.5348C10.1105 47.4443 10.8179 48.3201 11.5758 49.078C12.3505 49.9874 13.2937 50.7285 14.1863 51.5032C15.2137 52.2274 16.1905 53.0022 17.3189 53.5411C18.4473 54.198 19.66 54.619 20.8389 55.0906C20.9231 55.1917 20.8052 55.0064 20.94 55.0401C21.2263 55.0906 21.5968 55.1748 21.9168 55.2422L22.22 55.3432L22.0684 55.3095L22.2368 55.3432C22.6579 55.4948 23.0958 55.6632 23.5337 55.7643C23.9547 55.9495 24.3589 56.1348 24.7968 56.2695C25.3526 56.438 25.9252 56.5053 26.4979 56.5559C26.7 56.5727 26.8516 56.6064 26.9863 56.6232C28.2831 56.9095 29.5968 57.078 30.9105 57.2295C31.3147 57.2969 31.5673 57.3643 32.2916 57.398L32.9316 57.4653L33.1337 54.0632C31.7189 53.9622 30.2705 53.7264 28.8389 53.5074L27.4242 53.1706C25.2347 52.6485 23.1126 51.958 21.1252 51.0148C19.9968 50.5264 18.9694 49.9201 17.9421 49.2969C16.3926 48.3032 14.9779 47.1411 13.7147 45.7938C11.3063 42.8632 9.73997 39.2253 9.08313 35.3517C8.69576 32.8759 7.98839 28.2611 9.48734 23.3601C10.8684 18.4422 14.8094 13.659 19.6431 11.2506C20.3337 10.8801 21.041 10.5601 21.7652 10.2906L22.1694 10.1559C22.9273 9.93692 23.6852 9.78534 24.46 9.61692C25.7063 9.3306 26.9526 8.96008 28.2494 8.84218C28.9568 8.75797 29.6137 8.6906 30.3884 8.60639C30.9442 8.55586 31.4831 8.55586 32.0221 8.52218C32.14 8.52218 32.241 8.52218 32.3589 8.52218L32.9484 8.4885L33.0831 5.08639H33.1Z" fill="#C6B3D2"/>
</svg>
