<svg width="24" height="24" viewBox="0 0 24 24" fill="none" xmlns="http://www.w3.org/2000/svg">
<path d="M14.4955 12.0001C14.4955 11.4478 14.9432 11.0001 15.4955 11.0001H15.5045C16.0568 11.0001 16.5045 11.4478 16.5045 12.0001C16.5045 12.5524 16.0568 13.0001 15.5045 13.0001H15.4955C14.9432 13.0001 14.4955 12.5524 14.4955 12.0001Z" fill="black"/>
<path d="M8.49453 11.0001C7.94225 11.0001 7.49453 11.4478 7.49453 12.0001C7.49453 12.5524 7.94225 13.0001 8.49453 13.0001H8.50351C9.0558 13.0001 9.50351 12.5524 9.50351 12.0001C9.50351 11.4478 9.0558 11.0001 8.50351 11.0001H8.49453Z" fill="black"/>
<path fill-rule="evenodd" clip-rule="evenodd" d="M6.75002 7.31206V6.70011C6.75002 4.10811 8.81108 1.53423 11.489 1.28348C14.6153 0.980976 17.25 3.44391 17.25 6.51011V7.31207C18.805 7.47751 19.9181 7.97525 20.6264 8.81733C21.5047 9.8615 21.5869 11.2338 21.4454 12.5126L21.4443 12.5231L20.695 18.5168C20.5844 19.543 20.3255 20.667 19.4096 21.5038C18.4984 22.3362 17.0868 22.7501 15 22.7501H8.99997C6.91312 22.7501 5.5015 22.3362 4.59036 21.5038C3.67441 20.667 3.41551 19.543 3.30496 18.5167L2.55445 12.5126C2.41294 11.2338 2.49524 9.8615 3.37351 8.81733C4.08182 7.97523 5.19496 7.47749 6.75002 7.31206ZM11.6324 2.77661C13.8656 2.55996 15.75 4.31676 15.75 6.51011V7.2501H8.25002V6.70011C8.25002 4.79256 9.80827 2.94687 11.6297 2.77687L11.6324 2.77661ZM4.79418 18.3371L4.04485 12.3424C3.91732 11.1839 4.05041 10.3429 4.52144 9.78287C4.98602 9.23053 5.95301 8.7501 7.99997 8.7501H16C18.0469 8.7501 19.0139 9.23053 19.4785 9.78288C19.9495 10.3429 20.0826 11.1838 19.9551 12.3423L19.2058 18.3371L19.2042 18.3502C19.1044 19.2821 18.8974 19.94 18.3979 20.3964C17.8915 20.859 16.9331 21.2501 15 21.2501H8.99997C7.06682 21.2501 6.10844 20.859 5.60209 20.3964C5.10252 19.94 4.89555 19.2821 4.79571 18.3502L4.79418 18.3371Z" fill="black"/>
</svg>
