<svg width="24" height="24" viewBox="0 0 24 24" fill="none" xmlns="http://www.w3.org/2000/svg">
<path fill-rule="evenodd" clip-rule="evenodd" d="M10.9302 3.84646L9.17215 7.36258C8.98481 7.74342 8.6719 8.06883 8.35054 8.30711C8.02825 8.54607 7.62776 8.74908 7.21565 8.81906L7.21301 8.81951L4.02339 9.34944C3.13379 9.4978 2.84399 9.84815 2.77705 10.0578C2.70987 10.2682 2.74343 10.7223 3.38042 11.3593L5.86042 13.8393C6.18281 14.1617 6.39846 14.5928 6.51738 15.0082C6.6364 15.424 6.6809 15.9021 6.58193 16.3437L6.58082 16.3486L5.8708 19.4186C5.60638 20.5613 5.87384 20.9784 6.00967 21.0775C6.14608 21.1771 6.62645 21.3046 7.63733 20.7047L10.6329 18.9314C11.0489 18.6894 11.5469 18.5896 12.0038 18.5896C12.4599 18.5896 12.9583 18.6891 13.3721 18.9343L16.3615 20.7039C17.3807 21.3057 17.8606 21.1788 17.9945 21.0811C18.1272 20.9844 18.3947 20.5698 18.1292 19.4181L17.4182 16.3437C17.3193 15.9021 17.3638 15.424 17.4828 15.0082C17.6017 14.5928 17.8174 14.1617 18.1398 13.8393L20.6198 11.3593L20.6216 11.3575C21.2628 10.7207 21.2944 10.2678 21.2273 10.0592C21.1597 9.84889 20.8675 9.49798 19.9772 9.34951L16.7872 8.81951C16.3708 8.75011 15.9672 8.54787 15.6423 8.30815C15.3187 8.0694 15.0055 7.74368 14.8181 7.36263L13.0586 3.84365C12.6378 2.99763 12.2101 2.82715 11.9988 2.82715C11.7862 2.82715 11.3559 2.99979 10.9302 3.84646ZM14.4013 3.17499C13.8721 2.11134 13.0448 1.32715 11.9988 1.32715C10.954 1.32715 10.1242 2.11 9.58997 3.17284L7.82927 6.69424L7.82654 6.69975C7.77372 6.8076 7.64743 6.9611 7.45714 7.10219C7.2675 7.2428 7.08352 7.31975 6.96559 7.34005L6.96453 7.34023L3.77717 7.86979C2.62706 8.06147 1.66118 8.62118 1.34813 9.6015C1.03532 10.5811 1.49676 11.597 2.31976 12.42L4.79976 14.9C4.89737 14.9976 5.00672 15.1815 5.0753 15.4211C5.14346 15.6592 5.14923 15.8751 5.11868 16.0137L5.11825 16.0156L4.4094 19.0806C4.11385 20.3578 4.21636 21.6259 5.12551 22.2893C6.0341 22.9522 7.27374 22.6647 8.40286 21.9946L11.3873 20.2279L11.3891 20.2268C11.5234 20.1494 11.7445 20.0896 12.0038 20.0896C12.2651 20.0896 12.4817 20.1502 12.6077 20.2249L15.598 21.995C16.7285 22.6628 17.9697 22.9555 18.8782 22.2932C19.788 21.6299 19.8855 20.3595 19.5909 19.0812L18.8819 16.0156L18.8815 16.0137C18.851 15.8751 18.8567 15.6592 18.9249 15.4211C18.9935 15.1815 19.1028 14.9976 19.2004 14.9L21.6786 12.4218L21.6796 12.4208C22.5078 11.5978 22.9707 10.5811 22.6554 9.60014C22.3405 8.62044 21.3727 8.06141 20.2234 7.86985L17.0334 7.33985" fill="black"/>
</svg>
