<svg width="25" height="24" viewBox="0 0 25 24" fill="none" xmlns="http://www.w3.org/2000/svg">
<path d="M8.40002 17.25H6.40002C5.99002 17.25 5.65002 16.91 5.65002 16.5C5.65002 16.09 5.99002 15.75 6.40002 15.75H8.40002C8.81002 15.75 9.15002 16.09 9.15002 16.5C9.15002 16.91 8.81002 17.25 8.40002 17.25Z" fill="#362F3C" fill-opacity="0.8"/>
<path d="M14.9 17.25H10.9C10.49 17.25 10.15 16.91 10.15 16.5C10.15 16.09 10.49 15.75 10.9 15.75H14.9C15.31 15.75 15.65 16.09 15.65 16.5C15.65 16.91 15.31 17.25 14.9 17.25Z" fill="#362F3C" fill-opacity="0.8"/>
<path d="M18.4 8.25C18.21 8.25 18.02 8.18 17.87 8.03L16.37 6.53C16.08 6.24 16.08 5.76 16.37 5.47C16.66 5.18 17.14 5.18 17.43 5.47L18.4 6.44L21.87 2.97C22.16 2.68 22.64 2.68 22.93 2.97C23.22 3.26 23.22 3.74 22.93 4.03L18.93 8.03C18.78 8.18 18.59 8.25 18.4 8.25Z" fill="#362F3C" fill-opacity="0.8"/>
<path d="M13.9 7.75C14.31 7.75 14.65 8.09 14.65 8.5C14.65 8.91 14.31 9.25 13.9 9.25H3.15002V16.1C3.15002 19.2 3.70002 19.74 6.84002 19.74H17.95C21.09 19.74 21.64 19.2 21.64 16.1V11.02C21.64 10.61 21.98 10.27 22.39 10.27C22.8 10.27 23.14 10.61 23.14 11.02V16.1C23.15 20.05 21.94 21.25 17.96 21.25H6.84002C2.86002 21.25 1.65002 20.05 1.65002 16.11V7.89C1.65002 3.95 2.86002 2.75 6.84002 2.75H13.9C14.31 2.75 14.65 3.09 14.65 3.5C14.65 3.91 14.31 4.25 13.9 4.25H6.84002C3.74789 4.25 3.1674 4.77366 3.15042 7.75H13.9Z" fill="#362F3C" fill-opacity="0.8"/>
</svg>
