<svg width="24" height="24" viewBox="0 0 24 24" fill="none" xmlns="http://www.w3.org/2000/svg">
<path d="M12.12 13.53C12.1 13.53 12.07 13.53 12.05 13.53C12.02 13.53 11.98 13.53 11.95 13.53C9.68 13.46 7.98 11.69 7.98 9.51C7.98 7.29 9.79 5.48 12.01 5.48C14.23 5.48 16.04 7.29 16.04 9.51C16.03 11.7 14.32 13.46 12.15 13.53C12.13 13.53 12.13 13.53 12.12 13.53ZM12 6.97C10.6 6.97 9.47 8.11 9.47 9.5C9.47 10.87 10.54 11.98 11.9 12.03C11.93 12.02 12.03 12.02 12.13 12.03C13.47 11.96 14.52 10.86 14.53 9.5C14.53 8.11 13.4 6.97 12 6.97Z" fill="black"/>
<path fill-rule="evenodd" clip-rule="evenodd" d="M12 21.25C11.9476 21.25 11.8952 21.2496 11.8428 21.2487C11.7598 21.2473 11.6769 21.2447 11.5941 21.2411C11.7291 21.247 11.8644 21.25 12 21.25Z" fill="black"/>
<path fill-rule="evenodd" clip-rule="evenodd" d="M1.25 12C1.25 17.93 6.07 22.75 12 22.75C17.93 22.75 22.75 17.93 22.75 12C22.75 6.07 17.93 1.25 12 1.25C6.07 1.25 1.25 6.07 1.25 12ZM16.55 17.42C17.26 17.9 17.74 18.49 17.92 19.1C16.2989 20.4574 14.2677 21.214 12.1524 21.2487C12.1017 21.2496 12.0509 21.25 12 21.25C11.9476 21.25 11.8952 21.2496 11.8428 21.2487C11.7598 21.2473 11.6769 21.2447 11.5941 21.2411C9.57043 21.1525 7.63625 20.4031 6.08 19.1C6.26 18.49 6.73 17.9 7.44 17.42C9.92 15.78 14.09 15.78 16.55 17.42ZM6.61 16.18C9.59 14.2 14.42 14.2 17.39 16.18C18.1409 16.6867 18.7092 17.294 19.0675 17.961C20.4286 16.3499 21.25 14.269 21.25 12C21.25 6.9 17.1 2.75 12 2.75C6.9 2.75 2.75 6.9 2.75 12C2.75 14.2685 3.57106 16.349 4.93157 17.9599C5.28987 17.2903 5.85847 16.681 6.61 16.18ZM12.05 13.53H12.12H12.15C14.32 13.46 16.03 11.7 16.04 9.51C16.04 7.29 14.23 5.48 12.01 5.48C9.79 5.48 7.98 7.29 7.98 9.51C7.98 11.69 9.68 13.46 11.95 13.53H12.05ZM9.47 9.5C9.47 8.11 10.6 6.97 12 6.97C13.4 6.97 14.53 8.11 14.53 9.5C14.52 10.86 13.47 11.96 12.13 12.03C12.03 12.02 11.93 12.02 11.9 12.03C10.54 11.98 9.47 10.87 9.47 9.5Z" fill="black"/>
</svg>
