<svg width="24" height="24" viewBox="0 0 24 24" fill="none" xmlns="http://www.w3.org/2000/svg">
<g clip-path="url(#clip0_348_11800)">
<path d="M23.7196 22.3005L17.7592 16.3401C21.2557 12.0638 20.6235 5.76278 16.3473 2.26637C12.071 -1.23004 5.77003 -0.597974 2.27357 3.67829C-1.22288 7.95456 -0.590724 14.2556 3.68554 17.752C7.36889 20.7637 12.664 20.7637 16.3473 17.752L22.3077 23.7124C22.7044 24.0955 23.3366 24.0846 23.7197 23.6879C24.0934 23.3009 24.0934 22.6874 23.7196 22.3005ZM2.04389 10.0252C2.04389 5.61324 5.62045 2.03668 10.0324 2.03668C14.4443 2.03668 18.0209 5.61324 18.0209 10.0252C18.0209 14.4371 14.4443 18.0136 10.0324 18.0136C5.62251 18.0087 2.04885 14.435 2.04389 10.0252ZM12.0295 6.0309C11.2836 6.03428 10.5678 6.32626 10.0324 6.84573C9.49701 6.32631 8.78128 6.03428 8.03531 6.0309C6.32751 6.09006 4.98857 7.51824 5.03962 9.22628C5.03962 11.2234 7.0777 13.2834 8.78821 14.6584C9.51632 15.2383 10.5485 15.2383 11.2766 14.6584C12.9871 13.2834 15.0252 11.2234 15.0252 9.22628C15.0762 7.51824 13.7373 6.09006 12.0295 6.0309ZM10.0384 13.1007C8.18704 11.6129 7.03668 10.125 7.03668 9.22632C6.98685 8.62135 7.43118 8.0881 8.03526 8.02806C8.63929 8.0881 9.08367 8.62135 9.03384 9.22632C9.03384 9.77781 9.48088 10.2249 10.0324 10.2249C10.5839 10.2249 11.031 9.77785 11.031 9.22632C10.9812 8.62135 11.4255 8.0881 12.0296 8.02806C12.6336 8.0881 13.078 8.62135 13.0282 9.22632C13.0281 10.125 11.8777 11.6129 10.0384 13.1007Z" fill="black"/>
</g>
<defs>
<clipPath id="clip0_348_11800">
<rect width="24" height="24" fill="white"/>
</clipPath>
</defs>
</svg>
