<svg width="24" height="24" viewBox="0 0 24 24" fill="none" xmlns="http://www.w3.org/2000/svg">
<path fill-rule="evenodd" clip-rule="evenodd" d="M11.4837 1.26911C12.5191 1.24483 13.5961 1.5079 14.4501 2.10573L20.6288 6.43486C20.6286 6.43471 20.6291 6.43501 20.6288 6.43486C21.2484 6.86691 21.7707 7.53301 22.1361 8.2331C22.5017 8.93348 22.75 9.74295 22.75 10.5002V17.7802C22.75 20.5032 20.5254 22.7402 17.79 22.7402H6.21C3.47347 22.7402 1.25 20.5021 1.25 17.7702V10.3602C1.25 9.64968 1.47441 8.88067 1.80418 8.20855C2.134 7.53633 2.60552 6.887 3.16901 6.44856L8.55901 2.24856C9.38375 1.6071 10.4482 1.29339 11.4837 1.26911ZM9.48046 3.43217C9.48037 3.43224 9.48054 3.4321 9.48046 3.43217L4.09099 7.63176C3.75471 7.8933 3.4109 8.33919 3.15082 8.86927C2.89059 9.39965 2.75 9.94063 2.75 10.3602V17.7702C2.75 19.6783 4.30653 21.2402 6.21 21.2402H17.79C19.6946 21.2402 21.25 19.6771 21.25 17.7802V10.5002C21.25 10.0474 21.0933 9.47683 20.8064 8.92722C20.5195 8.37755 20.1413 7.92342 19.7712 7.66546L19.7696 7.66439L13.5899 3.33458C13.5898 3.33452 13.59 3.33464 13.5899 3.33458C13.044 2.95254 12.2958 2.75048 11.5188 2.7687C10.7419 2.78692 10.0057 3.02375 9.48046 3.43217ZM12 14.2402C12.4142 14.2402 12.75 14.5759 12.75 14.9902V17.9902C12.75 18.4044 12.4142 18.7402 12 18.7402C11.5858 18.7402 11.25 18.4044 11.25 17.9902V14.9902C11.25 14.5759 11.5858 14.2402 12 14.2402Z" fill="black"/>
</svg>
