<svg width="24" height="24" viewBox="0 0 24 24" fill="none" xmlns="http://www.w3.org/2000/svg">
<path fill-rule="evenodd" clip-rule="evenodd" d="M18.1967 1.0135C19.3101 0.904216 20.4139 1.39315 21.5103 2.48958C22.6068 3.58602 23.0957 4.68983 22.9864 5.80318C22.881 6.87719 22.2333 7.76732 21.5103 8.49024L20.3909 9.60969C20.3843 9.61654 20.3776 9.62325 20.3707 9.62983L13.6216 16.3789C13.3964 16.5969 13.1021 16.7873 12.8181 16.93C12.5357 17.0719 12.2031 17.1971 11.8861 17.2424L8.87225 17.6729C8.13016 17.775 7.42014 17.5724 6.922 17.0763C6.42278 16.5791 6.21859 15.8688 6.32773 15.1225C6.32781 15.122 6.32788 15.1215 6.32795 15.121L6.7572 12.1163C6.75726 12.1158 6.75732 12.1154 6.75739 12.1149C6.80243 11.7937 6.92695 11.4587 7.06988 11.1744C7.21312 10.8894 7.40599 10.5933 7.62967 10.3696L14.3701 3.62912C14.3767 3.62232 14.3834 3.61564 14.3902 3.60908L15.5097 2.48958C16.2326 1.76666 17.1227 1.11893 18.1967 1.0135ZM14.6121 5.50851L8.69033 11.4302C8.61401 11.5066 8.50688 11.6555 8.41012 11.848C8.31325 12.0407 8.25792 12.2152 8.2428 12.3236L8.24246 12.326L7.81246 15.336L7.81205 15.3388C7.76169 15.6819 7.86255 15.896 7.9805 16.0135C8.09966 16.1322 8.31908 16.2344 8.66596 16.1872C8.66656 16.1871 8.66716 16.187 8.66775 16.1869L11.6739 15.7575C11.7769 15.7427 11.9493 15.6879 12.1444 15.5898C12.3352 15.4939 12.4892 15.3861 12.5748 15.3044L18.4928 9.38641C16.7759 8.59752 15.3978 7.22108 14.6121 5.50851ZM19.6426 8.23663C17.8274 7.58851 16.403 6.16334 15.7624 4.35815L16.5703 3.55024C17.2074 2.91317 17.7873 2.5609 18.3433 2.50633C18.8599 2.45561 19.5461 2.64668 20.4497 3.55024C21.3532 4.45381 21.5443 5.14 21.4936 5.65665C21.439 6.21264 21.0867 6.79251 20.4497 7.42958L19.6426 8.23663ZM3.09467 3.09458C4.42914 1.76012 6.42603 1.24991 9 1.24991H11C11.4142 1.24991 11.75 1.5857 11.75 1.99991C11.75 2.41413 11.4142 2.74991 11 2.74991H9C6.57397 2.74991 5.07086 3.23971 4.15533 4.15524C3.2398 5.07078 2.75 6.57389 2.75 8.99991V14.9999C2.75 17.4259 3.2398 18.9291 4.15533 19.8446C5.07086 20.7601 6.57397 21.2499 9 21.2499H15C17.426 21.2499 18.9291 20.7601 19.8447 19.8446C20.7602 18.9291 21.25 17.4259 21.25 14.9999V12.9999C21.25 12.5857 21.5858 12.2499 22 12.2499C22.4142 12.2499 22.75 12.5857 22.75 12.9999V14.9999C22.75 17.5739 22.2398 19.5708 20.9053 20.9052C19.5709 22.2397 17.574 22.7499 15 22.7499H9C6.42603 22.7499 4.42914 22.2397 3.09467 20.9052C1.7602 19.5708 1.25 17.5739 1.25 14.9999V8.99991C1.25 6.42594 1.7602 4.42905 3.09467 3.09458Z" fill="black"/>
</svg>
