<svg width="24" height="24" viewBox="0 0 24 24" fill="none" xmlns="http://www.w3.org/2000/svg">
<g clip-path="url(#clip0_562_39219)">
<path fill-rule="evenodd" clip-rule="evenodd" d="M1.68707 1.68707C0 3.37413 0 6.0894 0 11.52V12.48C0 17.9106 0 20.6259 1.68707 22.313C3.37413 24 6.0894 24 11.52 24H12.48C17.9106 24 20.6259 24 22.313 22.313C24 20.6259 24 17.9106 24 12.48V11.52C24 6.0894 24 3.37413 22.313 1.68707C20.6259 0 17.9106 0 12.48 0H11.52C6.0894 0 3.37413 0 1.68707 1.68707ZM4.05005 7.30029C4.18005 13.5403 7.3 17.2903 12.77 17.2903H13.0801V13.7203C15.0901 13.9203 16.6099 15.3903 17.2199 17.2903H20.06C19.28 14.4503 17.2299 12.8803 15.9499 12.2803C17.2299 11.5403 19.0299 9.74029 19.4599 7.30029H16.8799C16.3199 9.28029 14.6601 11.0803 13.0801 11.2503V7.30029H10.5V14.2203C8.9 13.8203 6.88005 11.8803 6.79005 7.30029H4.05005Z" fill="black"/>
</g>
<defs>
<clipPath id="clip0_562_39219">
<rect width="24" height="24" fill="white"/>
</clipPath>
</defs>
</svg>
