<svg width="24" height="24" viewBox="0 0 24 24" fill="none" xmlns="http://www.w3.org/2000/svg">
<path fill-rule="evenodd" clip-rule="evenodd" d="M1.25 2C1.25 1.58579 1.58579 1.25 2 1.25H3.74001C4.92958 1.25 5.91944 2.0501 6.23293 3.12H18.73C20.833 3.12 22.4396 4.83723 22.288 6.93408L21.7481 14.4339L21.7478 14.4375C21.608 16.2545 20.0257 17.74 18.19 17.74H7.53999C5.46335 17.74 3.82544 15.9669 4.00267 13.8968C4.00264 13.8971 4.00269 13.8965 4.00267 13.8968L4.83259 3.93772C4.88589 3.30412 4.37993 2.75 3.74001 2.75H2C1.58579 2.75 1.25 2.41421 1.25 2ZM6.28094 4.62L5.49741 14.0223L5.49725 14.0242C5.39508 15.2137 6.33696 16.24 7.53999 16.24H18.19C19.2338 16.24 20.171 15.3664 20.2521 14.3242C20.2521 14.3236 20.2522 14.323 20.2522 14.3225L20.6534 8.75H9C8.58579 8.75 8.25 8.41421 8.25 8C8.25 7.58579 8.58579 7.25 9 7.25H20.7614L20.7919 6.82615C20.8804 5.603 19.967 4.62 18.73 4.62H6.28094ZM8.25 20.25C7.97386 20.25 7.75 20.4739 7.75 20.75C7.75 21.0261 7.97386 21.25 8.25 21.25C8.52614 21.25 8.75 21.0261 8.75 20.75C8.75 20.4739 8.52614 20.25 8.25 20.25ZM6.25 20.75C6.25 19.6454 7.14543 18.75 8.25 18.75C9.35457 18.75 10.25 19.6454 10.25 20.75C10.25 21.8546 9.35457 22.75 8.25 22.75C7.14543 22.75 6.25 21.8546 6.25 20.75ZM16.25 20.25C15.9739 20.25 15.75 20.4739 15.75 20.75C15.75 21.0261 15.9739 21.25 16.25 21.25C16.5261 21.25 16.75 21.0261 16.75 20.75C16.75 20.4739 16.5261 20.25 16.25 20.25ZM14.25 20.75C14.25 19.6454 15.1454 18.75 16.25 18.75C17.3546 18.75 18.25 19.6454 18.25 20.75C18.25 21.8546 17.3546 22.75 16.25 22.75C15.1454 22.75 14.25 21.8546 14.25 20.75Z" fill="black"/>
</svg>
