<svg width="24" height="24" viewBox="0 0 24 24" fill="none" xmlns="http://www.w3.org/2000/svg">
<g clip-path="url(#clip0_348_11802)">
<path d="M23.241 0.435353C23.0056 0.246276 22.73 0.113485 22.4354 0.047109C22.1407 -0.0192668 21.8349 -0.0174731 21.541 0.0523533C20.6052 0.302788 19.7421 0.771375 19.0223 1.41972C18.3025 2.06807 17.7466 2.87772 17.4 3.78235C15.6397 3.29735 13.8256 3.03464 12 3.00035C10.1745 3.03464 8.36035 3.29735 6.60004 3.78235C6.25314 2.87742 5.69673 2.06759 4.9764 1.41923C4.25608 0.770868 3.39236 0.302444 2.45604 0.0523533C2.16223 -0.0175486 1.85632 -0.0193802 1.56169 0.0469985C1.26706 0.113377 0.991495 0.24621 0.756041 0.435353C0.519614 0.623161 0.328779 0.862062 0.197849 1.13414C0.0669187 1.40622 -0.00070798 1.70441 4.09331e-05 2.00635V9.85835C-0.00391442 11.3035 0.278822 12.735 0.831882 14.0701C1.38494 15.4052 2.19734 16.6174 3.22204 17.6364L7.87904 22.2934C8.97637 23.378 10.4571 23.9864 12 23.9864C13.543 23.9864 15.0237 23.378 16.121 22.2934L20.778 17.6364C21.8026 16.6172 22.6148 15.4051 23.1679 14.07C23.7209 12.7349 24.0038 11.3034 24 9.85835V2.00635C24.0009 1.70409 23.933 1.4056 23.8015 1.13343C23.67 0.86127 23.4784 0.622561 23.241 0.435353ZM5.05104 5.31635C5.13481 5.56785 5.315 5.77579 5.55202 5.89449C5.78903 6.01318 6.06348 6.03292 6.31504 5.94935C8.15719 5.37229 10.0703 5.05293 12 5.00035C13.9297 5.05306 15.8429 5.37242 17.685 5.94935C17.9365 6.03261 18.2107 6.01272 18.4474 5.89405C18.6842 5.77537 18.8643 5.56761 18.948 5.31635C19.565 3.46735 20.619 2.32135 22 2.00635V8.17335C19.572 8.73235 13 10.9844 13 19.0004V19.1844C12.355 18.9444 11.6451 18.9444 11 19.1844V19.0004C11 10.9854 4.42904 8.73235 2.00004 8.17335V2.00035C3.38104 2.32135 4.43504 3.46835 5.05104 5.31635ZM4.63604 16.2224C3.03526 14.6259 2.09965 12.4817 2.01804 10.2224C2.69958 10.4017 3.36307 10.6438 4.00004 10.9454V11.0004C4.1797 11.8283 4.63223 12.5719 5.28503 13.1119C5.93784 13.6519 6.7531 13.9571 7.60004 13.9784C8.56027 15.4739 9.04809 17.2238 9.00004 19.0004V20.5864L4.63604 16.2224ZM19.364 16.2224L15 20.5864V19.0004C14.952 17.2238 15.4398 15.4739 16.4 13.9784C17.2469 13.9567 18.062 13.6515 18.7147 13.1115C19.3674 12.5716 19.8201 11.8281 20 11.0004V10.9454C20.637 10.6441 21.3005 10.4024 21.982 10.2234C21.9002 12.4823 20.9646 14.6262 19.364 16.2224Z" fill="black"/>
</g>
<defs>
<clipPath id="clip0_348_11802">
<rect width="24" height="24" fill="white"/>
</clipPath>
</defs>
</svg>
