<svg width="24" height="24" viewBox="0 0 24 24" fill="none" xmlns="http://www.w3.org/2000/svg">
<path d="M3 14.0005C4.10457 14.0005 5 13.1051 5 12.0005C5 10.8959 4.10457 10.0005 3 10.0005C1.89543 10.0005 1 10.8959 1 12.0005C1 13.1051 1.89543 14.0005 3 14.0005Z" fill="black"/>
<path d="M12.0001 14.0005C13.1046 14.0005 14.0001 13.1051 14.0001 12.0005C14.0001 10.8959 13.1046 10.0005 12.0001 10.0005C10.8955 10.0005 10.0001 10.8959 10.0001 12.0005C10.0001 13.1051 10.8955 14.0005 12.0001 14.0005Z" fill="black"/>
<path d="M21 14.0005C22.1045 14.0005 23 13.1051 23 12.0005C23 10.8959 22.1045 10.0005 21 10.0005C19.8954 10.0005 19 10.8959 19 12.0005C19 13.1051 19.8954 14.0005 21 14.0005Z" fill="black"/>
</svg>
