<svg width="24" height="24" viewBox="0 0 24 24" fill="none" xmlns="http://www.w3.org/2000/svg">
<path d="M14.9603 5.39985C14.6674 5.10695 14.1926 5.10695 13.8997 5.39985C13.6068 5.69274 13.6068 6.16761 13.8997 6.46051L18.6893 11.2502H3.5C3.08579 11.2502 2.75 11.586 2.75 12.0002C2.75 12.4144 3.08579 12.7502 3.5 12.7502H18.6893L13.8997 17.5398C13.6068 17.8327 13.6068 18.3076 13.8997 18.6005C14.1926 18.8934 14.6674 18.8934 14.9603 18.6005L21.0303 12.5305C21.171 12.3899 21.25 12.1991 21.25 12.0002C21.25 11.8013 21.171 11.6105 21.0303 11.4698L14.9603 5.39985Z" fill="black"/>
</svg>
