<svg width="24" height="24" viewBox="0 0 24 24" fill="none" xmlns="http://www.w3.org/2000/svg">
<path fill-rule="evenodd" clip-rule="evenodd" d="M14.4013 3.17499C13.8721 2.11134 13.0448 1.32715 11.9988 1.32715C10.954 1.32715 10.1242 2.11 9.58997 3.17284L7.82927 6.69424L7.82654 6.69975C7.77372 6.8076 7.64743 6.9611 7.45714 7.10219C7.2675 7.2428 7.08352 7.31975 6.96559 7.34005L6.96453 7.34023L3.77717 7.86979C2.62706 8.06147 1.66118 8.62118 1.34813 9.6015C1.03532 10.5811 1.49676 11.597 2.31976 12.42L4.79976 14.9C4.89737 14.9976 5.00672 15.1815 5.0753 15.4211C5.14346 15.6592 5.14923 15.8751 5.11868 16.0137L5.11825 16.0156L4.4094 19.0806C4.11385 20.3578 4.21636 21.6259 5.12551 22.2893C6.0341 22.9522 7.27374 22.6647 8.40286 21.9946L11.3873 20.2279L11.3891 20.2268C11.5234 20.1494 11.7445 20.0896 12.0038 20.0896C12.2651 20.0896 12.4817 20.1502 12.6077 20.2249L15.598 21.995C16.7285 22.6628 17.9697 22.9555 18.8782 22.2932C19.788 21.6299 19.8855 20.3595 19.5909 19.0812L18.8819 16.0156L18.8815 16.0137C18.851 15.8751 18.8567 15.6592 18.9249 15.4211C18.9935 15.1815 19.1028 14.9976 19.2004 14.9L21.6786 12.4218L21.6796 12.4208C22.5078 11.5978 22.9707 10.5811 22.6554 9.60014C22.3405 8.62044 21.3727 8.06141 20.2234 7.86985L17.0334 7.33985" fill="black"/>
</svg>
