<svg width="24" height="24" viewBox="0 0 24 24" fill="none" xmlns="http://www.w3.org/2000/svg">
<path fill-rule="evenodd" clip-rule="evenodd" d="M5.40002 2.8501C4.738 2.8501 4.15002 3.39014 4.15002 4.2001V6.5001C4.15002 6.65686 4.20912 6.92343 4.34691 7.23081C4.48179 7.5317 4.65976 7.79918 4.83035 7.96977L4.84377 7.98354L8.64377 11.9835C8.65842 11.9989 8.6724 12.015 8.68568 12.0316C8.9393 12.3486 9.17393 12.7654 9.34638 13.1966C9.51722 13.6237 9.65002 14.122 9.65002 14.6001V19.9001C9.65002 20.8669 10.7635 21.4746 11.6014 20.9648L12.9945 20.0692C13.001 20.065 13.0075 20.061 13.0142 20.057C13.1052 20.0024 13.2478 19.8556 13.3721 19.6166C13.494 19.3822 13.55 19.1509 13.55 19.0001V14.7001C13.55 14.1847 13.6765 13.6353 13.8846 13.1447C14.0898 12.6609 14.3984 12.1784 14.8108 11.8315L19.0842 8.05504C19.2538 7.88051 19.45 7.59269 19.6047 7.25225C19.7649 6.90002 19.85 6.55858 19.85 6.3001V4.1001C19.85 3.41431 19.2858 2.8501 18.6 2.8501H5.40002ZM2.65002 4.2001C2.65002 2.61005 3.86205 1.3501 5.40002 1.3501H18.6C20.1142 1.3501 21.35 2.58588 21.35 4.1001V6.3001C21.35 6.84162 21.1852 7.40018 20.9703 7.87295C20.7545 8.34774 20.4576 8.80322 20.1304 9.13043C20.1195 9.14133 20.1082 9.15189 20.0967 9.1621L15.7967 12.9621C15.7912 12.9669 15.7857 12.9716 15.7802 12.9763C15.5971 13.1288 15.4087 13.3928 15.2655 13.7305C15.1236 14.0649 15.05 14.4154 15.05 14.7001V19.0001C15.05 19.4493 14.906 19.918 14.7029 20.3086C14.5041 20.691 14.2005 21.0904 13.7971 21.3364L12.4056 22.231L12.3931 22.2388C10.6316 23.3229 8.15002 22.1311 8.15002 19.9001V14.6001C8.15002 14.3782 8.08282 14.0765 7.95367 13.7536C7.83132 13.4478 7.67417 13.1747 7.53237 12.9915L3.7624 9.02311C3.43627 8.69463 3.16685 8.26536 2.97814 7.84439C2.79093 7.42676 2.65002 6.94333 2.65002 6.5001V4.2001Z" fill="black"/>
</svg>
