<svg width="24" height="24" viewBox="0 0 24 24" fill="none" xmlns="http://www.w3.org/2000/svg">
<g clip-path="url(#clip0_348_11806)">
<path d="M19 0H5C3.67441 0.00158786 2.40356 0.528882 1.46622 1.46622C0.528882 2.40356 0.00158786 3.67441 0 5L0 19C0.00158786 20.3256 0.528882 21.5964 1.46622 22.5338C2.40356 23.4711 3.67441 23.9984 5 24H16.343C16.9998 24.0016 17.6504 23.873 18.2572 23.6215C18.864 23.37 19.4149 23.0008 19.878 22.535L22.536 19.879C23.0017 19.4157 23.3709 18.8646 23.6222 18.2576C23.8735 17.6507 24.0019 16.9999 24 16.343V5C23.9984 3.67441 23.4711 2.40356 22.5338 1.46622C21.5964 0.528882 20.3256 0.00158786 19 0ZM2 19V5C2 4.20435 2.31607 3.44129 2.87868 2.87868C3.44129 2.31607 4.20435 2 5 2H19C19.7957 2 20.5587 2.31607 21.1213 2.87868C21.6839 3.44129 22 4.20435 22 5V15H18C17.2044 15 16.4413 15.3161 15.8787 15.8787C15.3161 16.4413 15 17.2044 15 18V22H5C4.20435 22 3.44129 21.6839 2.87868 21.1213C2.31607 20.5587 2 19.7957 2 19ZM18.464 21.121C18.0608 21.5198 17.5534 21.7971 17 21.921V18C17 17.7348 17.1054 17.4804 17.2929 17.2929C17.4804 17.1054 17.7348 17 18 17H21.922C21.8004 17.5546 21.5229 18.0629 21.122 18.465L18.464 21.121Z" fill="black"/>
</g>
<defs>
<clipPath id="clip0_348_11806">
<rect width="24" height="24" fill="white"/>
</clipPath>
</defs>
</svg>
