<svg width="24" height="24" viewBox="0 0 24 24" fill="none" xmlns="http://www.w3.org/2000/svg">
<g clip-path="url(#clip0_402_11184)">
<path d="M0 11.52C0 6.0894 0 3.37413 1.68707 1.68707C3.37413 0 6.0894 0 11.52 0H12.48C17.9106 0 20.6259 0 22.313 1.68707C24 3.37413 24 6.0894 24 11.52V12.48C24 17.9106 24 20.6259 22.313 22.313C20.6259 24 17.9106 24 12.48 24H11.52C6.0894 24 3.37413 24 1.68707 22.313C0 20.6259 0 17.9106 0 12.48V11.52Z" fill="#0077FF"/>
<path d="M12.77 17.2901C7.3 17.2901 4.18005 13.54 4.05005 7.30005H6.79005C6.88005 11.88 8.9 13.8201 10.5 14.22V7.30005H13.0801V11.25C14.6601 11.08 16.3199 9.28005 16.8799 7.30005H19.4599C19.0299 9.74005 17.2299 11.5401 15.95 12.2801C17.2299 12.8801 19.28 14.4501 20.06 17.2901H17.2199C16.6099 15.3901 15.0901 13.92 13.0801 13.72V17.2901H12.77Z" fill="white"/>
</g>
<defs>
<clipPath id="clip0_402_11184">
<rect width="24" height="24" fill="white"/>
</clipPath>
</defs>
</svg>
